<svg width="365" height="365" viewBox="0 0 365 365" fill="none" xmlns="http://www.w3.org/2000/svg">
<circle cx="182.745" cy="182.2" r="182" fill="#DD0808"/>
<circle cx="181.245" cy="75.7" r="56.5" fill="#D9D9D9"/>
<path d="M59.0718 194.2C60.8584 194.2 62.2584 194.627 63.2718 195.48C64.2851 196.333 64.7918 197.507 64.7918 199C64.7918 200.493 64.2851 201.667 63.2718 202.52C62.2584 203.36 60.8584 203.78 59.0718 203.78H55.3118V208.2H53.8318V194.2H59.0718ZM59.0318 202.48C60.4184 202.48 61.4784 202.18 62.2118 201.58C62.9451 200.967 63.3118 200.107 63.3118 199C63.3118 197.867 62.9451 197 62.2118 196.4C61.4784 195.787 60.4184 195.48 59.0318 195.48H55.3118V202.48H59.0318ZM76.7933 203.38H67.9933C68.0733 204.473 68.4933 205.36 69.2533 206.04C70.0133 206.707 70.9733 207.04 72.1333 207.04C72.7867 207.04 73.3867 206.927 73.9333 206.7C74.48 206.46 74.9533 206.113 75.3533 205.66L76.1533 206.58C75.6867 207.14 75.1 207.567 74.3933 207.86C73.7 208.153 72.9333 208.3 72.0933 208.3C71.0133 208.3 70.0533 208.073 69.2133 207.62C68.3867 207.153 67.74 206.513 67.2733 205.7C66.8067 204.887 66.5733 203.967 66.5733 202.94C66.5733 201.913 66.7933 200.993 67.2333 200.18C67.6867 199.367 68.3 198.733 69.0733 198.28C69.86 197.827 70.74 197.6 71.7133 197.6C72.6867 197.6 73.56 197.827 74.3333 198.28C75.1067 198.733 75.7133 199.367 76.1533 200.18C76.5933 200.98 76.8133 201.9 76.8133 202.94L76.7933 203.38ZM71.7133 198.82C70.7 198.82 69.8467 199.147 69.1533 199.8C68.4733 200.44 68.0867 201.28 67.9933 202.32H75.4533C75.36 201.28 74.9667 200.44 74.2733 199.8C73.5933 199.147 72.74 198.82 71.7133 198.82ZM81.0636 199.74C81.397 199.033 81.8903 198.5 82.5436 198.14C83.2103 197.78 84.0303 197.6 85.0036 197.6V198.98L84.6636 198.96C83.557 198.96 82.6903 199.3 82.0636 199.98C81.437 200.66 81.1236 201.613 81.1236 202.84V208.2H79.7036V197.68H81.0636V199.74ZM91.211 194.46C90.5976 194.46 90.131 194.627 89.811 194.96C89.5043 195.293 89.351 195.787 89.351 196.44V197.68H92.591V198.88H89.391V208.2H87.971V198.88H86.091V197.68H87.971V196.38C87.971 195.42 88.2443 194.66 88.791 194.1C89.351 193.54 90.1376 193.26 91.151 193.26C91.551 193.26 91.9376 193.32 92.311 193.44C92.6843 193.547 92.9976 193.707 93.251 193.92L92.771 194.98C92.3576 194.633 91.8376 194.46 91.211 194.46ZM103.493 203.38H94.6925C94.7725 204.473 95.1925 205.36 95.9525 206.04C96.7125 206.707 97.6725 207.04 98.8325 207.04C99.4859 207.04 100.086 206.927 100.633 206.7C101.179 206.46 101.653 206.113 102.053 205.66L102.853 206.58C102.386 207.14 101.799 207.567 101.093 207.86C100.399 208.153 99.6325 208.3 98.7925 208.3C97.7125 208.3 96.7525 208.073 95.9125 207.62C95.0859 207.153 94.4392 206.513 93.9725 205.7C93.5059 204.887 93.2725 203.967 93.2725 202.94C93.2725 201.913 93.4925 200.993 93.9325 200.18C94.3859 199.367 94.9992 198.733 95.7725 198.28C96.5592 197.827 97.4392 197.6 98.4125 197.6C99.3859 197.6 100.259 197.827 101.033 198.28C101.806 198.733 102.413 199.367 102.853 200.18C103.293 200.98 103.513 201.9 103.513 202.94L103.493 203.38ZM98.4125 198.82C97.3992 198.82 96.5459 199.147 95.8525 199.8C95.1725 200.44 94.7859 201.28 94.6925 202.32H102.153C102.059 201.28 101.666 200.44 100.973 199.8C100.293 199.147 99.4392 198.82 98.4125 198.82ZM110.763 208.3C109.723 208.3 108.79 208.073 107.963 207.62C107.15 207.167 106.51 206.533 106.043 205.72C105.576 204.893 105.343 203.967 105.343 202.94C105.343 201.913 105.576 200.993 106.043 200.18C106.51 199.367 107.15 198.733 107.963 198.28C108.79 197.827 109.723 197.6 110.763 197.6C111.67 197.6 112.476 197.78 113.183 198.14C113.903 198.487 114.47 199 114.883 199.68L113.823 200.4C113.476 199.88 113.036 199.493 112.503 199.24C111.97 198.973 111.39 198.84 110.763 198.84C110.003 198.84 109.316 199.013 108.703 199.36C108.103 199.693 107.63 200.173 107.283 200.8C106.95 201.427 106.783 202.14 106.783 202.94C106.783 203.753 106.95 204.473 107.283 205.1C107.63 205.713 108.103 206.193 108.703 206.54C109.316 206.873 110.003 207.04 110.763 207.04C111.39 207.04 111.97 206.913 112.503 206.66C113.036 206.407 113.476 206.02 113.823 205.5L114.883 206.22C114.47 206.9 113.903 207.42 113.183 207.78C112.463 208.127 111.656 208.3 110.763 208.3ZM123.33 207.56C123.063 207.8 122.73 207.987 122.33 208.12C121.943 208.24 121.536 208.3 121.11 208.3C120.123 208.3 119.363 208.033 118.83 207.5C118.296 206.967 118.03 206.213 118.03 205.24V198.88H116.15V197.68H118.03V195.38H119.45V197.68H122.65V198.88H119.45V205.16C119.45 205.787 119.603 206.267 119.91 206.6C120.23 206.92 120.683 207.08 121.27 207.08C121.563 207.08 121.843 207.033 122.11 206.94C122.39 206.847 122.63 206.713 122.83 206.54L123.33 207.56ZM136.569 197.6C137.556 197.6 138.449 197.827 139.249 198.28C140.049 198.72 140.676 199.347 141.129 200.16C141.582 200.973 141.809 201.9 141.809 202.94C141.809 203.993 141.582 204.927 141.129 205.74C140.676 206.553 140.049 207.187 139.249 207.64C138.462 208.08 137.569 208.3 136.569 208.3C135.716 208.3 134.942 208.127 134.249 207.78C133.569 207.42 133.009 206.9 132.569 206.22V212.08H131.149V197.68H132.509V199.76C132.936 199.067 133.496 198.533 134.189 198.16C134.896 197.787 135.689 197.6 136.569 197.6ZM136.469 207.04C137.202 207.04 137.869 206.873 138.469 206.54C139.069 206.193 139.536 205.707 139.869 205.08C140.216 204.453 140.389 203.74 140.389 202.94C140.389 202.14 140.216 201.433 139.869 200.82C139.536 200.193 139.069 199.707 138.469 199.36C137.869 199.013 137.202 198.84 136.469 198.84C135.722 198.84 135.049 199.013 134.449 199.36C133.862 199.707 133.396 200.193 133.049 200.82C132.716 201.433 132.549 202.14 132.549 202.94C132.549 203.74 132.716 204.453 133.049 205.08C133.396 205.707 133.862 206.193 134.449 206.54C135.049 206.873 135.722 207.04 136.469 207.04ZM144.704 193.36H146.124V208.2H144.704V193.36ZM153.755 197.6C155.128 197.6 156.181 197.947 156.915 198.64C157.648 199.32 158.015 200.333 158.015 201.68V208.2H156.655V206.56C156.335 207.107 155.861 207.533 155.235 207.84C154.621 208.147 153.888 208.3 153.035 208.3C151.861 208.3 150.928 208.02 150.235 207.46C149.541 206.9 149.195 206.16 149.195 205.24C149.195 204.347 149.515 203.627 150.155 203.08C150.808 202.533 151.841 202.26 153.255 202.26H156.595V201.62C156.595 200.713 156.341 200.027 155.835 199.56C155.328 199.08 154.588 198.84 153.615 198.84C152.948 198.84 152.308 198.953 151.695 199.18C151.081 199.393 150.555 199.693 150.115 200.08L149.475 199.02C150.008 198.567 150.648 198.22 151.395 197.98C152.141 197.727 152.928 197.6 153.755 197.6ZM153.255 207.18C154.055 207.18 154.741 207 155.315 206.64C155.888 206.267 156.315 205.733 156.595 205.04V203.32H153.295C151.495 203.32 150.595 203.947 150.595 205.2C150.595 205.813 150.828 206.3 151.295 206.66C151.761 207.007 152.415 207.18 153.255 207.18ZM166.271 208.3C165.231 208.3 164.297 208.073 163.471 207.62C162.657 207.167 162.017 206.533 161.551 205.72C161.084 204.893 160.851 203.967 160.851 202.94C160.851 201.913 161.084 200.993 161.551 200.18C162.017 199.367 162.657 198.733 163.471 198.28C164.297 197.827 165.231 197.6 166.271 197.6C167.177 197.6 167.984 197.78 168.691 198.14C169.411 198.487 169.977 199 170.391 199.68L169.331 200.4C168.984 199.88 168.544 199.493 168.011 199.24C167.477 198.973 166.897 198.84 166.271 198.84C165.511 198.84 164.824 199.013 164.211 199.36C163.611 199.693 163.137 200.173 162.791 200.8C162.457 201.427 162.291 202.14 162.291 202.94C162.291 203.753 162.457 204.473 162.791 205.1C163.137 205.713 163.611 206.193 164.211 206.54C164.824 206.873 165.511 207.04 166.271 207.04C166.897 207.04 167.477 206.913 168.011 206.66C168.544 206.407 168.984 206.02 169.331 205.5L170.391 206.22C169.977 206.9 169.411 207.42 168.691 207.78C167.971 208.127 167.164 208.3 166.271 208.3ZM182.164 203.38H173.364C173.444 204.473 173.864 205.36 174.624 206.04C175.384 206.707 176.344 207.04 177.504 207.04C178.158 207.04 178.758 206.927 179.304 206.7C179.851 206.46 180.324 206.113 180.724 205.66L181.524 206.58C181.058 207.14 180.471 207.567 179.764 207.86C179.071 208.153 178.304 208.3 177.464 208.3C176.384 208.3 175.424 208.073 174.584 207.62C173.758 207.153 173.111 206.513 172.644 205.7C172.178 204.887 171.944 203.967 171.944 202.94C171.944 201.913 172.164 200.993 172.604 200.18C173.058 199.367 173.671 198.733 174.444 198.28C175.231 197.827 176.111 197.6 177.084 197.6C178.058 197.6 178.931 197.827 179.704 198.28C180.478 198.733 181.084 199.367 181.524 200.18C181.964 200.98 182.184 201.9 182.184 202.94L182.164 203.38ZM177.084 198.82C176.071 198.82 175.218 199.147 174.524 199.8C173.844 200.44 173.458 201.28 173.364 202.32H180.824C180.731 201.28 180.338 200.44 179.644 199.8C178.964 199.147 178.111 198.82 177.084 198.82ZM195.849 207.56C195.582 207.8 195.249 207.987 194.849 208.12C194.462 208.24 194.056 208.3 193.629 208.3C192.642 208.3 191.882 208.033 191.349 207.5C190.816 206.967 190.549 206.213 190.549 205.24V198.88H188.669V197.68H190.549V195.38H191.969V197.68H195.169V198.88H191.969V205.16C191.969 205.787 192.122 206.267 192.429 206.6C192.749 206.92 193.202 207.08 193.789 207.08C194.082 207.08 194.362 207.033 194.629 206.94C194.909 206.847 195.149 206.713 195.349 206.54L195.849 207.56ZM202.363 208.3C201.35 208.3 200.436 208.073 199.623 207.62C198.81 207.153 198.17 206.513 197.703 205.7C197.236 204.887 197.003 203.967 197.003 202.94C197.003 201.913 197.236 200.993 197.703 200.18C198.17 199.367 198.81 198.733 199.623 198.28C200.436 197.827 201.35 197.6 202.363 197.6C203.376 197.6 204.29 197.827 205.103 198.28C205.916 198.733 206.55 199.367 207.003 200.18C207.47 200.993 207.703 201.913 207.703 202.94C207.703 203.967 207.47 204.887 207.003 205.7C206.55 206.513 205.916 207.153 205.103 207.62C204.29 208.073 203.376 208.3 202.363 208.3ZM202.363 207.04C203.11 207.04 203.776 206.873 204.363 206.54C204.963 206.193 205.43 205.707 205.763 205.08C206.096 204.453 206.263 203.74 206.263 202.94C206.263 202.14 206.096 201.427 205.763 200.8C205.43 200.173 204.963 199.693 204.363 199.36C203.776 199.013 203.11 198.84 202.363 198.84C201.616 198.84 200.943 199.013 200.343 199.36C199.756 199.693 199.29 200.173 198.943 200.8C198.61 201.427 198.443 202.14 198.443 202.94C198.443 203.74 198.61 204.453 198.943 205.08C199.29 205.707 199.756 206.193 200.343 206.54C200.943 206.873 201.616 207.04 202.363 207.04ZM219.736 202.92L217.256 205.2V208.2H215.836V193.36H217.256V203.42L223.536 197.68H225.296L220.796 201.98L225.716 208.2H223.976L219.736 202.92ZM236.578 203.38H227.778C227.858 204.473 228.278 205.36 229.038 206.04C229.798 206.707 230.758 207.04 231.918 207.04C232.572 207.04 233.172 206.927 233.718 206.7C234.265 206.46 234.738 206.113 235.138 205.66L235.938 206.58C235.472 207.14 234.885 207.567 234.178 207.86C233.485 208.153 232.718 208.3 231.878 208.3C230.798 208.3 229.838 208.073 228.998 207.62C228.172 207.153 227.525 206.513 227.058 205.7C226.592 204.887 226.358 203.967 226.358 202.94C226.358 201.913 226.578 200.993 227.018 200.18C227.472 199.367 228.085 198.733 228.858 198.28C229.645 197.827 230.525 197.6 231.498 197.6C232.472 197.6 233.345 197.827 234.118 198.28C234.892 198.733 235.498 199.367 235.938 200.18C236.378 200.98 236.598 201.9 236.598 202.94L236.578 203.38ZM231.498 198.82C230.485 198.82 229.632 199.147 228.938 199.8C228.258 200.44 227.872 201.28 227.778 202.32H235.238C235.145 201.28 234.752 200.44 234.058 199.8C233.378 199.147 232.525 198.82 231.498 198.82ZM248.649 203.38H239.849C239.929 204.473 240.349 205.36 241.109 206.04C241.869 206.707 242.829 207.04 243.989 207.04C244.642 207.04 245.242 206.927 245.789 206.7C246.335 206.46 246.809 206.113 247.209 205.66L248.009 206.58C247.542 207.14 246.955 207.567 246.249 207.86C245.555 208.153 244.789 208.3 243.949 208.3C242.869 208.3 241.909 208.073 241.069 207.62C240.242 207.153 239.595 206.513 239.129 205.7C238.662 204.887 238.429 203.967 238.429 202.94C238.429 201.913 238.649 200.993 239.089 200.18C239.542 199.367 240.155 198.733 240.929 198.28C241.715 197.827 242.595 197.6 243.569 197.6C244.542 197.6 245.415 197.827 246.189 198.28C246.962 198.733 247.569 199.367 248.009 200.18C248.449 200.98 248.669 201.9 248.669 202.94L248.649 203.38ZM243.569 198.82C242.555 198.82 241.702 199.147 241.009 199.8C240.329 200.44 239.942 201.28 239.849 202.32H247.309C247.215 201.28 246.822 200.44 246.129 199.8C245.449 199.147 244.595 198.82 243.569 198.82ZM256.979 197.6C257.966 197.6 258.859 197.827 259.659 198.28C260.459 198.72 261.086 199.347 261.539 200.16C261.992 200.973 262.219 201.9 262.219 202.94C262.219 203.993 261.992 204.927 261.539 205.74C261.086 206.553 260.459 207.187 259.659 207.64C258.872 208.08 257.979 208.3 256.979 208.3C256.126 208.3 255.352 208.127 254.659 207.78C253.979 207.42 253.419 206.9 252.979 206.22V212.08H251.559V197.68H252.919V199.76C253.346 199.067 253.906 198.533 254.599 198.16C255.306 197.787 256.099 197.6 256.979 197.6ZM256.879 207.04C257.612 207.04 258.279 206.873 258.879 206.54C259.479 206.193 259.946 205.707 260.279 205.08C260.626 204.453 260.799 203.74 260.799 202.94C260.799 202.14 260.626 201.433 260.279 200.82C259.946 200.193 259.479 199.707 258.879 199.36C258.279 199.013 257.612 198.84 256.879 198.84C256.132 198.84 255.459 199.013 254.859 199.36C254.272 199.707 253.806 200.193 253.459 200.82C253.126 201.433 252.959 202.14 252.959 202.94C252.959 203.74 253.126 204.453 253.459 205.08C253.806 205.707 254.272 206.193 254.859 206.54C255.459 206.873 256.132 207.04 256.879 207.04ZM279.188 197.68L273.928 209.46C273.501 210.447 273.008 211.147 272.448 211.56C271.888 211.973 271.215 212.18 270.428 212.18C269.921 212.18 269.448 212.1 269.008 211.94C268.568 211.78 268.188 211.54 267.868 211.22L268.528 210.16C269.061 210.693 269.701 210.96 270.448 210.96C270.928 210.96 271.335 210.827 271.668 210.56C272.015 210.293 272.335 209.84 272.628 209.2L273.088 208.18L268.388 197.68H269.868L273.828 206.62L277.788 197.68H279.188ZM285.195 208.3C284.182 208.3 283.268 208.073 282.455 207.62C281.642 207.153 281.002 206.513 280.535 205.7C280.068 204.887 279.835 203.967 279.835 202.94C279.835 201.913 280.068 200.993 280.535 200.18C281.002 199.367 281.642 198.733 282.455 198.28C283.268 197.827 284.182 197.6 285.195 197.6C286.208 197.6 287.122 197.827 287.935 198.28C288.748 198.733 289.382 199.367 289.835 200.18C290.302 200.993 290.535 201.913 290.535 202.94C290.535 203.967 290.302 204.887 289.835 205.7C289.382 206.513 288.748 207.153 287.935 207.62C287.122 208.073 286.208 208.3 285.195 208.3ZM285.195 207.04C285.942 207.04 286.608 206.873 287.195 206.54C287.795 206.193 288.262 205.707 288.595 205.08C288.928 204.453 289.095 203.74 289.095 202.94C289.095 202.14 288.928 201.427 288.595 200.8C288.262 200.173 287.795 199.693 287.195 199.36C286.608 199.013 285.942 198.84 285.195 198.84C284.448 198.84 283.775 199.013 283.175 199.36C282.588 199.693 282.122 200.173 281.775 200.8C281.442 201.427 281.275 202.14 281.275 202.94C281.275 203.74 281.442 204.453 281.775 205.08C282.122 205.707 282.588 206.193 283.175 206.54C283.775 206.873 284.448 207.04 285.195 207.04ZM302.914 197.68V208.2H301.554V206.28C301.181 206.92 300.667 207.42 300.014 207.78C299.361 208.127 298.614 208.3 297.774 208.3C296.401 208.3 295.314 207.92 294.514 207.16C293.727 206.387 293.334 205.26 293.334 203.78V197.68H294.754V203.64C294.754 204.747 295.027 205.587 295.574 206.16C296.121 206.733 296.901 207.02 297.914 207.02C299.021 207.02 299.894 206.687 300.534 206.02C301.174 205.34 301.494 204.4 301.494 203.2V197.68H302.914ZM308.251 199.74C308.584 199.033 309.078 198.5 309.731 198.14C310.398 197.78 311.218 197.6 312.191 197.6V198.98L311.851 198.96C310.744 198.96 309.878 199.3 309.251 199.98C308.624 200.66 308.311 201.613 308.311 202.84V208.2H306.891V197.68H308.251V199.74ZM58.0171 231.56C57.7504 231.8 57.4171 231.987 57.0171 232.12C56.6304 232.24 56.2237 232.3 55.7971 232.3C54.8104 232.3 54.0504 232.033 53.5171 231.5C52.9837 230.967 52.7171 230.213 52.7171 229.24V222.88H50.8371V221.68H52.7171V219.38H54.1371V221.68H57.3371V222.88H54.1371V229.16C54.1371 229.787 54.2904 230.267 54.5971 230.6C54.9171 230.92 55.3704 231.08 55.9571 231.08C56.2504 231.08 56.5304 231.033 56.7971 230.94C57.0771 230.847 57.3171 230.713 57.5171 230.54L58.0171 231.56ZM64.2821 221.6C65.6554 221.6 66.7087 221.947 67.4421 222.64C68.1754 223.32 68.5421 224.333 68.5421 225.68V232.2H67.1821V230.56C66.8621 231.107 66.3887 231.533 65.7621 231.84C65.1487 232.147 64.4154 232.3 63.5621 232.3C62.3887 232.3 61.4554 232.02 60.7621 231.46C60.0687 230.9 59.7221 230.16 59.7221 229.24C59.7221 228.347 60.0421 227.627 60.6821 227.08C61.3354 226.533 62.3687 226.26 63.7821 226.26H67.1221V225.62C67.1221 224.713 66.8687 224.027 66.3621 223.56C65.8554 223.08 65.1154 222.84 64.1421 222.84C63.4754 222.84 62.8354 222.953 62.2221 223.18C61.6087 223.393 61.0821 223.693 60.6421 224.08L60.0021 223.02C60.5354 222.567 61.1754 222.22 61.9221 221.98C62.6687 221.727 63.4554 221.6 64.2821 221.6ZM63.7821 231.18C64.5821 231.18 65.2687 231 65.8421 230.64C66.4154 230.267 66.8421 229.733 67.1221 229.04V227.32H63.8221C62.0221 227.32 61.1221 227.947 61.1221 229.2C61.1221 229.813 61.3554 230.3 61.8221 230.66C62.2887 231.007 62.9421 231.18 63.7821 231.18ZM75.2189 232.3C74.3656 232.3 73.5456 232.18 72.7589 231.94C71.9856 231.687 71.3789 231.373 70.9389 231L71.5789 229.88C72.0189 230.227 72.5723 230.513 73.2389 230.74C73.9056 230.953 74.5989 231.06 75.3189 231.06C76.2789 231.06 76.9856 230.913 77.4389 230.62C77.9056 230.313 78.1389 229.887 78.1389 229.34C78.1389 228.953 78.0123 228.653 77.7589 228.44C77.5056 228.213 77.1856 228.047 76.7989 227.94C76.4123 227.82 75.8989 227.707 75.2589 227.6C74.4056 227.44 73.7189 227.28 73.1989 227.12C72.6789 226.947 72.2323 226.66 71.8589 226.26C71.4989 225.86 71.3189 225.307 71.3189 224.6C71.3189 223.72 71.6856 223 72.4189 222.44C73.1523 221.88 74.1723 221.6 75.4789 221.6C76.1589 221.6 76.8389 221.693 77.5189 221.88C78.1989 222.053 78.7589 222.287 79.1989 222.58L78.5789 223.72C77.7123 223.12 76.6789 222.82 75.4789 222.82C74.5723 222.82 73.8856 222.98 73.4189 223.3C72.9656 223.62 72.7389 224.04 72.7389 224.56C72.7389 224.96 72.8656 225.28 73.1189 225.52C73.3856 225.76 73.7123 225.94 74.0989 226.06C74.4856 226.167 75.0189 226.28 75.6989 226.4C76.5389 226.56 77.2123 226.72 77.7189 226.88C78.2256 227.04 78.6589 227.313 79.0189 227.7C79.3789 228.087 79.5589 228.62 79.5589 229.3C79.5589 230.22 79.1723 230.953 78.3989 231.5C77.6389 232.033 76.5789 232.3 75.2189 232.3ZM87.7241 231.56C87.4574 231.8 87.1241 231.987 86.7241 232.12C86.3374 232.24 85.9308 232.3 85.5041 232.3C84.5174 232.3 83.7574 232.033 83.2241 231.5C82.6908 230.967 82.4241 230.213 82.4241 229.24V222.88H80.5441V221.68H82.4241V219.38H83.8441V221.68H87.0441V222.88H83.8441V229.16C83.8441 229.787 83.9974 230.267 84.3041 230.6C84.6241 230.92 85.0774 231.08 85.6641 231.08C85.9574 231.08 86.2374 231.033 86.5041 230.94C86.7841 230.847 87.0241 230.713 87.2241 230.54L87.7241 231.56ZM99.098 227.38H90.298C90.378 228.473 90.798 229.36 91.558 230.04C92.318 230.707 93.278 231.04 94.438 231.04C95.0913 231.04 95.6913 230.927 96.238 230.7C96.7847 230.46 97.258 230.113 97.658 229.66L98.458 230.58C97.9913 231.14 97.4047 231.567 96.698 231.86C96.0047 232.153 95.238 232.3 94.398 232.3C93.318 232.3 92.358 232.073 91.518 231.62C90.6913 231.153 90.0447 230.513 89.578 229.7C89.1113 228.887 88.878 227.967 88.878 226.94C88.878 225.913 89.098 224.993 89.538 224.18C89.9913 223.367 90.6047 222.733 91.378 222.28C92.1647 221.827 93.0447 221.6 94.018 221.6C94.9913 221.6 95.8647 221.827 96.638 222.28C97.4113 222.733 98.018 223.367 98.458 224.18C98.898 224.98 99.118 225.9 99.118 226.94L99.098 227.38ZM94.018 222.82C93.0047 222.82 92.1513 223.147 91.458 223.8C90.778 224.44 90.3913 225.28 90.298 226.32H97.758C97.6647 225.28 97.2713 224.44 96.578 223.8C95.898 223.147 95.0447 222.82 94.018 222.82ZM112.663 221.6C113.649 221.6 114.543 221.827 115.343 222.28C116.143 222.72 116.769 223.347 117.223 224.16C117.676 224.973 117.903 225.9 117.903 226.94C117.903 227.98 117.676 228.907 117.223 229.72C116.769 230.533 116.143 231.167 115.343 231.62C114.543 232.073 113.649 232.3 112.663 232.3C111.783 232.3 110.989 232.113 110.283 231.74C109.589 231.367 109.029 230.827 108.603 230.12V232.2H107.243V217.36H108.663V223.68C109.103 223 109.663 222.487 110.343 222.14C111.036 221.78 111.809 221.6 112.663 221.6ZM112.563 231.04C113.296 231.04 113.963 230.873 114.563 230.54C115.163 230.193 115.629 229.707 115.963 229.08C116.309 228.453 116.483 227.74 116.483 226.94C116.483 226.14 116.309 225.427 115.963 224.8C115.629 224.173 115.163 223.693 114.563 223.36C113.963 223.013 113.296 222.84 112.563 222.84C111.816 222.84 111.143 223.013 110.543 223.36C109.956 223.693 109.489 224.173 109.143 224.8C108.809 225.427 108.643 226.14 108.643 226.94C108.643 227.74 108.809 228.453 109.143 229.08C109.489 229.707 109.956 230.193 110.543 230.54C111.143 230.873 111.816 231.04 112.563 231.04ZM130.277 221.68V232.2H128.917V230.28C128.544 230.92 128.031 231.42 127.377 231.78C126.724 232.127 125.977 232.3 125.137 232.3C123.764 232.3 122.677 231.92 121.877 231.16C121.091 230.387 120.697 229.26 120.697 227.78V221.68H122.117V227.64C122.117 228.747 122.391 229.587 122.937 230.16C123.484 230.733 124.264 231.02 125.277 231.02C126.384 231.02 127.257 230.687 127.897 230.02C128.537 229.34 128.857 228.4 128.857 227.2V221.68H130.277ZM143.854 217.36V232.2H142.494V230.12C142.068 230.827 141.501 231.367 140.794 231.74C140.101 232.113 139.314 232.3 138.434 232.3C137.448 232.3 136.554 232.073 135.754 231.62C134.954 231.167 134.328 230.533 133.874 229.72C133.421 228.907 133.194 227.98 133.194 226.94C133.194 225.9 133.421 224.973 133.874 224.16C134.328 223.347 134.954 222.72 135.754 222.28C136.554 221.827 137.448 221.6 138.434 221.6C139.288 221.6 140.054 221.78 140.734 222.14C141.428 222.487 141.994 223 142.434 223.68V217.36H143.854ZM138.554 231.04C139.288 231.04 139.948 230.873 140.534 230.54C141.134 230.193 141.601 229.707 141.934 229.08C142.281 228.453 142.454 227.74 142.454 226.94C142.454 226.14 142.281 225.427 141.934 224.8C141.601 224.173 141.134 223.693 140.534 223.36C139.948 223.013 139.288 222.84 138.554 222.84C137.808 222.84 137.134 223.013 136.534 223.36C135.948 223.693 135.481 224.173 135.134 224.8C134.801 225.427 134.634 226.14 134.634 226.94C134.634 227.74 134.801 228.453 135.134 229.08C135.481 229.707 135.948 230.193 136.534 230.54C137.134 230.873 137.808 231.04 138.554 231.04ZM150.629 232.3C149.776 232.3 148.956 232.18 148.169 231.94C147.396 231.687 146.789 231.373 146.349 231L146.989 229.88C147.429 230.227 147.982 230.513 148.649 230.74C149.316 230.953 150.009 231.06 150.729 231.06C151.689 231.06 152.396 230.913 152.849 230.62C153.316 230.313 153.549 229.887 153.549 229.34C153.549 228.953 153.422 228.653 153.169 228.44C152.916 228.213 152.596 228.047 152.209 227.94C151.822 227.82 151.309 227.707 150.669 227.6C149.816 227.44 149.129 227.28 148.609 227.12C148.089 226.947 147.642 226.66 147.269 226.26C146.909 225.86 146.729 225.307 146.729 224.6C146.729 223.72 147.096 223 147.829 222.44C148.562 221.88 149.582 221.6 150.889 221.6C151.569 221.6 152.249 221.693 152.929 221.88C153.609 222.053 154.169 222.287 154.609 222.58L153.989 223.72C153.122 223.12 152.089 222.82 150.889 222.82C149.982 222.82 149.296 222.98 148.829 223.3C148.376 223.62 148.149 224.04 148.149 224.56C148.149 224.96 148.276 225.28 148.529 225.52C148.796 225.76 149.122 225.94 149.509 226.06C149.896 226.167 150.429 226.28 151.109 226.4C151.949 226.56 152.622 226.72 153.129 226.88C153.636 227.04 154.069 227.313 154.429 227.7C154.789 228.087 154.969 228.62 154.969 229.3C154.969 230.22 154.582 230.953 153.809 231.5C153.049 232.033 151.989 232.3 150.629 232.3ZM168.189 221.6C169.509 221.6 170.555 221.987 171.329 222.76C172.115 223.52 172.509 224.633 172.509 226.1V232.2H171.089V226.24C171.089 225.147 170.815 224.313 170.269 223.74C169.722 223.167 168.942 222.88 167.929 222.88C166.795 222.88 165.895 223.22 165.229 223.9C164.575 224.567 164.249 225.493 164.249 226.68V232.2H162.829V217.36H164.249V223.52C164.635 222.907 165.169 222.433 165.849 222.1C166.529 221.767 167.309 221.6 168.189 221.6ZM180.044 221.6C181.417 221.6 182.47 221.947 183.204 222.64C183.937 223.32 184.304 224.333 184.304 225.68V232.2H182.944V230.56C182.624 231.107 182.15 231.533 181.524 231.84C180.91 232.147 180.177 232.3 179.324 232.3C178.15 232.3 177.217 232.02 176.524 231.46C175.83 230.9 175.484 230.16 175.484 229.24C175.484 228.347 175.804 227.627 176.444 227.08C177.097 226.533 178.13 226.26 179.544 226.26H182.884V225.62C182.884 224.713 182.63 224.027 182.124 223.56C181.617 223.08 180.877 222.84 179.904 222.84C179.237 222.84 178.597 222.953 177.984 223.18C177.37 223.393 176.844 223.693 176.404 224.08L175.764 223.02C176.297 222.567 176.937 222.22 177.684 221.98C178.43 221.727 179.217 221.6 180.044 221.6ZM179.544 231.18C180.344 231.18 181.03 231 181.604 230.64C182.177 230.267 182.604 229.733 182.884 229.04V227.32H179.584C177.784 227.32 176.884 227.947 176.884 229.2C176.884 229.813 177.117 230.3 177.584 230.66C178.05 231.007 178.704 231.18 179.544 231.18ZM193.581 221.6C194.567 221.6 195.461 221.827 196.261 222.28C197.061 222.72 197.687 223.347 198.141 224.16C198.594 224.973 198.821 225.9 198.821 226.94C198.821 227.993 198.594 228.927 198.141 229.74C197.687 230.553 197.061 231.187 196.261 231.64C195.474 232.08 194.581 232.3 193.581 232.3C192.727 232.3 191.954 232.127 191.261 231.78C190.581 231.42 190.021 230.9 189.581 230.22V236.08H188.161V221.68H189.521V223.76C189.947 223.067 190.507 222.533 191.201 222.16C191.907 221.787 192.701 221.6 193.581 221.6ZM193.481 231.04C194.214 231.04 194.881 230.873 195.481 230.54C196.081 230.193 196.547 229.707 196.881 229.08C197.227 228.453 197.401 227.74 197.401 226.94C197.401 226.14 197.227 225.433 196.881 224.82C196.547 224.193 196.081 223.707 195.481 223.36C194.881 223.013 194.214 222.84 193.481 222.84C192.734 222.84 192.061 223.013 191.461 223.36C190.874 223.707 190.407 224.193 190.061 224.82C189.727 225.433 189.561 226.14 189.561 226.94C189.561 227.74 189.727 228.453 190.061 229.08C190.407 229.707 190.874 230.193 191.461 230.54C192.061 230.873 192.734 231.04 193.481 231.04ZM207.135 221.6C208.122 221.6 209.015 221.827 209.815 222.28C210.615 222.72 211.242 223.347 211.695 224.16C212.149 224.973 212.375 225.9 212.375 226.94C212.375 227.993 212.149 228.927 211.695 229.74C211.242 230.553 210.615 231.187 209.815 231.64C209.029 232.08 208.135 232.3 207.135 232.3C206.282 232.3 205.509 232.127 204.815 231.78C204.135 231.42 203.575 230.9 203.135 230.22V236.08H201.715V221.68H203.075V223.76C203.502 223.067 204.062 222.533 204.755 222.16C205.462 221.787 206.255 221.6 207.135 221.6ZM207.035 231.04C207.769 231.04 208.435 230.873 209.035 230.54C209.635 230.193 210.102 229.707 210.435 229.08C210.782 228.453 210.955 227.74 210.955 226.94C210.955 226.14 210.782 225.433 210.435 224.82C210.102 224.193 209.635 223.707 209.035 223.36C208.435 223.013 207.769 222.84 207.035 222.84C206.289 222.84 205.615 223.013 205.015 223.36C204.429 223.707 203.962 224.193 203.615 224.82C203.282 225.433 203.115 226.14 203.115 226.94C203.115 227.74 203.282 228.453 203.615 229.08C203.962 229.707 204.429 230.193 205.015 230.54C205.615 230.873 206.289 231.04 207.035 231.04ZM223.817 221.68L218.557 233.46C218.13 234.447 217.637 235.147 217.077 235.56C216.517 235.973 215.844 236.18 215.057 236.18C214.55 236.18 214.077 236.1 213.637 235.94C213.197 235.78 212.817 235.54 212.497 235.22L213.157 234.16C213.69 234.693 214.33 234.96 215.077 234.96C215.557 234.96 215.964 234.827 216.297 234.56C216.644 234.293 216.964 233.84 217.257 233.2L217.717 232.18L213.017 221.68H214.497L218.457 230.62L222.417 221.68H223.817ZM234.731 221.6C236.105 221.6 237.158 221.947 237.891 222.64C238.625 223.32 238.991 224.333 238.991 225.68V232.2H237.631V230.56C237.311 231.107 236.838 231.533 236.211 231.84C235.598 232.147 234.865 232.3 234.011 232.3C232.838 232.3 231.905 232.02 231.211 231.46C230.518 230.9 230.171 230.16 230.171 229.24C230.171 228.347 230.491 227.627 231.131 227.08C231.785 226.533 232.818 226.26 234.231 226.26H237.571V225.62C237.571 224.713 237.318 224.027 236.811 223.56C236.305 223.08 235.565 222.84 234.591 222.84C233.925 222.84 233.285 222.953 232.671 223.18C232.058 223.393 231.531 223.693 231.091 224.08L230.451 223.02C230.985 222.567 231.625 222.22 232.371 221.98C233.118 221.727 233.905 221.6 234.731 221.6ZM234.231 231.18C235.031 231.18 235.718 231 236.291 230.64C236.865 230.267 237.291 229.733 237.571 229.04V227.32H234.271C232.471 227.32 231.571 227.947 231.571 229.2C231.571 229.813 231.805 230.3 232.271 230.66C232.738 231.007 233.391 231.18 234.231 231.18ZM248.208 221.6C249.528 221.6 250.575 221.987 251.348 222.76C252.135 223.52 252.528 224.633 252.528 226.1V232.2H251.108V226.24C251.108 225.147 250.835 224.313 250.288 223.74C249.741 223.167 248.961 222.88 247.948 222.88C246.815 222.88 245.915 223.22 245.248 223.9C244.595 224.567 244.268 225.493 244.268 226.68V232.2H242.848V221.68H244.208V223.62C244.595 222.98 245.128 222.487 245.808 222.14C246.501 221.78 247.301 221.6 248.208 221.6ZM266.022 217.36V232.2H264.662V230.12C264.236 230.827 263.669 231.367 262.962 231.74C262.269 232.113 261.482 232.3 260.602 232.3C259.616 232.3 258.722 232.073 257.922 231.62C257.122 231.167 256.496 230.533 256.042 229.72C255.589 228.907 255.362 227.98 255.362 226.94C255.362 225.9 255.589 224.973 256.042 224.16C256.496 223.347 257.122 222.72 257.922 222.28C258.722 221.827 259.616 221.6 260.602 221.6C261.456 221.6 262.222 221.78 262.902 222.14C263.596 222.487 264.162 223 264.602 223.68V217.36H266.022ZM260.722 231.04C261.456 231.04 262.116 230.873 262.702 230.54C263.302 230.193 263.769 229.707 264.102 229.08C264.449 228.453 264.622 227.74 264.622 226.94C264.622 226.14 264.449 225.427 264.102 224.8C263.769 224.173 263.302 223.693 262.702 223.36C262.116 223.013 261.456 222.84 260.722 222.84C259.976 222.84 259.302 223.013 258.702 223.36C258.116 223.693 257.649 224.173 257.302 224.8C256.969 225.427 256.802 226.14 256.802 226.94C256.802 227.74 256.969 228.453 257.302 229.08C257.649 229.707 258.116 230.193 258.702 230.54C259.302 230.873 259.976 231.04 260.722 231.04ZM279.571 232.3C278.531 232.3 277.598 232.073 276.771 231.62C275.958 231.167 275.318 230.533 274.851 229.72C274.385 228.893 274.151 227.967 274.151 226.94C274.151 225.913 274.385 224.993 274.851 224.18C275.318 223.367 275.958 222.733 276.771 222.28C277.598 221.827 278.531 221.6 279.571 221.6C280.478 221.6 281.285 221.78 281.991 222.14C282.711 222.487 283.278 223 283.691 223.68L282.631 224.4C282.285 223.88 281.845 223.493 281.311 223.24C280.778 222.973 280.198 222.84 279.571 222.84C278.811 222.84 278.125 223.013 277.511 223.36C276.911 223.693 276.438 224.173 276.091 224.8C275.758 225.427 275.591 226.14 275.591 226.94C275.591 227.753 275.758 228.473 276.091 229.1C276.438 229.713 276.911 230.193 277.511 230.54C278.125 230.873 278.811 231.04 279.571 231.04C280.198 231.04 280.778 230.913 281.311 230.66C281.845 230.407 282.285 230.02 282.631 229.5L283.691 230.22C283.278 230.9 282.711 231.42 281.991 231.78C281.271 232.127 280.465 232.3 279.571 232.3ZM291.685 221.6C293.005 221.6 294.051 221.987 294.825 222.76C295.611 223.52 296.005 224.633 296.005 226.1V232.2H294.585V226.24C294.585 225.147 294.311 224.313 293.765 223.74C293.218 223.167 292.438 222.88 291.425 222.88C290.291 222.88 289.391 223.22 288.725 223.9C288.071 224.567 287.745 225.493 287.745 226.68V232.2H286.325V217.36H287.745V223.52C288.131 222.907 288.665 222.433 289.345 222.1C290.025 221.767 290.805 221.6 291.685 221.6ZM299.86 221.68H301.28V232.2H299.86V221.68ZM300.58 219.38C300.287 219.38 300.04 219.28 299.84 219.08C299.64 218.88 299.54 218.64 299.54 218.36C299.54 218.093 299.64 217.86 299.84 217.66C300.04 217.46 300.287 217.36 300.58 217.36C300.873 217.36 301.12 217.46 301.32 217.66C301.52 217.847 301.62 218.073 301.62 218.34C301.62 218.633 301.52 218.88 301.32 219.08C301.12 219.28 300.873 219.38 300.58 219.38ZM305.231 217.36H306.651V232.2H305.231V217.36ZM310.602 217.36H312.022V232.2H310.602V217.36ZM54.9704 256.3C53.9571 256.3 53.0438 256.073 52.2304 255.62C51.4171 255.153 50.7771 254.513 50.3104 253.7C49.8438 252.887 49.6104 251.967 49.6104 250.94C49.6104 249.913 49.8438 248.993 50.3104 248.18C50.7771 247.367 51.4171 246.733 52.2304 246.28C53.0438 245.827 53.9571 245.6 54.9704 245.6C55.9838 245.6 56.8971 245.827 57.7104 246.28C58.5238 246.733 59.1571 247.367 59.6104 248.18C60.0771 248.993 60.3104 249.913 60.3104 250.94C60.3104 251.967 60.0771 252.887 59.6104 253.7C59.1571 254.513 58.5238 255.153 57.7104 255.62C56.8971 256.073 55.9838 256.3 54.9704 256.3ZM54.9704 255.04C55.7171 255.04 56.3838 254.873 56.9704 254.54C57.5704 254.193 58.0371 253.707 58.3704 253.08C58.7038 252.453 58.8704 251.74 58.8704 250.94C58.8704 250.14 58.7038 249.427 58.3704 248.8C58.0371 248.173 57.5704 247.693 56.9704 247.36C56.3838 247.013 55.7171 246.84 54.9704 246.84C54.2238 246.84 53.5504 247.013 52.9504 247.36C52.3638 247.693 51.8971 248.173 51.5504 248.8C51.2171 249.427 51.0504 250.14 51.0504 250.94C51.0504 251.74 51.2171 252.453 51.5504 253.08C51.8971 253.707 52.3638 254.193 52.9504 254.54C53.5504 254.873 54.2238 255.04 54.9704 255.04ZM72.6895 245.68V256.2H71.3295V254.28C70.9562 254.92 70.4428 255.42 69.7895 255.78C69.1362 256.127 68.3895 256.3 67.5495 256.3C66.1762 256.3 65.0895 255.92 64.2895 255.16C63.5028 254.387 63.1095 253.26 63.1095 251.78V245.68H64.5295V251.64C64.5295 252.747 64.8028 253.587 65.3495 254.16C65.8962 254.733 66.6762 255.02 67.6895 255.02C68.7962 255.02 69.6695 254.687 70.3095 254.02C70.9495 253.34 71.2695 252.4 71.2695 251.2V245.68H72.6895ZM82.2065 255.56C81.9399 255.8 81.6065 255.987 81.2065 256.12C80.8199 256.24 80.4132 256.3 79.9865 256.3C78.9999 256.3 78.2399 256.033 77.7065 255.5C77.1732 254.967 76.9065 254.213 76.9065 253.24V246.88H75.0265V245.68H76.9065V243.38H78.3265V245.68H81.5265V246.88H78.3265V253.16C78.3265 253.787 78.4799 254.267 78.7865 254.6C79.1065 254.92 79.5599 255.08 80.1465 255.08C80.4399 255.08 80.7199 255.033 80.9865 254.94C81.2665 254.847 81.5065 254.713 81.7065 254.54L82.2065 255.56ZM105.466 245.68L101.486 256.2H100.146L96.8259 247.58L93.5059 256.2H92.1659L88.2059 245.68H89.5659L92.8659 254.62L96.2459 245.68H97.4659L100.826 254.62L104.166 245.68H105.466ZM107.604 245.68H109.024V256.2H107.604V245.68ZM108.324 243.38C108.031 243.38 107.784 243.28 107.584 243.08C107.384 242.88 107.284 242.64 107.284 242.36C107.284 242.093 107.384 241.86 107.584 241.66C107.784 241.46 108.031 241.36 108.324 241.36C108.617 241.36 108.864 241.46 109.064 241.66C109.264 241.847 109.364 242.073 109.364 242.34C109.364 242.633 109.264 242.88 109.064 243.08C108.864 243.28 108.617 243.38 108.324 243.38ZM118.515 255.56C118.248 255.8 117.915 255.987 117.515 256.12C117.128 256.24 116.722 256.3 116.295 256.3C115.308 256.3 114.548 256.033 114.015 255.5C113.482 254.967 113.215 254.213 113.215 253.24V246.88H111.335V245.68H113.215V243.38H114.635V245.68H117.835V246.88H114.635V253.16C114.635 253.787 114.788 254.267 115.095 254.6C115.415 254.92 115.868 255.08 116.455 255.08C116.748 255.08 117.028 255.033 117.295 254.94C117.575 254.847 117.815 254.713 118.015 254.54L118.515 255.56ZM126.46 245.6C127.78 245.6 128.827 245.987 129.6 246.76C130.387 247.52 130.78 248.633 130.78 250.1V256.2H129.36V250.24C129.36 249.147 129.087 248.313 128.54 247.74C127.993 247.167 127.213 246.88 126.2 246.88C125.067 246.88 124.167 247.22 123.5 247.9C122.847 248.567 122.52 249.493 122.52 250.68V256.2H121.1V241.36H122.52V247.52C122.907 246.907 123.44 246.433 124.12 246.1C124.8 245.767 125.58 245.6 126.46 245.6ZM148.71 245.68L143.45 257.46C143.023 258.447 142.53 259.147 141.97 259.56C141.41 259.973 140.736 260.18 139.95 260.18C139.443 260.18 138.97 260.1 138.53 259.94C138.09 259.78 137.71 259.54 137.39 259.22L138.05 258.16C138.583 258.693 139.223 258.96 139.97 258.96C140.45 258.96 140.856 258.827 141.19 258.56C141.536 258.293 141.856 257.84 142.15 257.2L142.61 256.18L137.91 245.68H139.39L143.35 254.62L147.31 245.68H148.71ZM154.717 256.3C153.703 256.3 152.79 256.073 151.977 255.62C151.163 255.153 150.523 254.513 150.057 253.7C149.59 252.887 149.357 251.967 149.357 250.94C149.357 249.913 149.59 248.993 150.057 248.18C150.523 247.367 151.163 246.733 151.977 246.28C152.79 245.827 153.703 245.6 154.717 245.6C155.73 245.6 156.643 245.827 157.457 246.28C158.27 246.733 158.903 247.367 159.357 248.18C159.823 248.993 160.057 249.913 160.057 250.94C160.057 251.967 159.823 252.887 159.357 253.7C158.903 254.513 158.27 255.153 157.457 255.62C156.643 256.073 155.73 256.3 154.717 256.3ZM154.717 255.04C155.463 255.04 156.13 254.873 156.717 254.54C157.317 254.193 157.783 253.707 158.117 253.08C158.45 252.453 158.617 251.74 158.617 250.94C158.617 250.14 158.45 249.427 158.117 248.8C157.783 248.173 157.317 247.693 156.717 247.36C156.13 247.013 155.463 246.84 154.717 246.84C153.97 246.84 153.297 247.013 152.697 247.36C152.11 247.693 151.643 248.173 151.297 248.8C150.963 249.427 150.797 250.14 150.797 250.94C150.797 251.74 150.963 252.453 151.297 253.08C151.643 253.707 152.11 254.193 152.697 254.54C153.297 254.873 153.97 255.04 154.717 255.04ZM172.436 245.68V256.2H171.076V254.28C170.702 254.92 170.189 255.42 169.536 255.78C168.882 256.127 168.136 256.3 167.296 256.3C165.922 256.3 164.836 255.92 164.036 255.16C163.249 254.387 162.856 253.26 162.856 251.78V245.68H164.276V251.64C164.276 252.747 164.549 253.587 165.096 254.16C165.642 254.733 166.422 255.02 167.436 255.02C168.542 255.02 169.416 254.687 170.056 254.02C170.696 253.34 171.016 252.4 171.016 251.2V245.68H172.436ZM177.773 247.74C178.106 247.033 178.599 246.5 179.253 246.14C179.919 245.78 180.739 245.6 181.713 245.6V246.98L181.373 246.96C180.266 246.96 179.399 247.3 178.773 247.98C178.146 248.66 177.833 249.613 177.833 250.84V256.2H176.413V245.68H177.773V247.74ZM193.154 242.46C192.541 242.46 192.074 242.627 191.754 242.96C191.448 243.293 191.294 243.787 191.294 244.44V245.68H194.534V246.88H191.334V256.2H189.914V246.88H188.034V245.68H189.914V244.38C189.914 243.42 190.188 242.66 190.734 242.1C191.294 241.54 192.081 241.26 193.094 241.26C193.494 241.26 193.881 241.32 194.254 241.44C194.628 241.547 194.941 241.707 195.194 241.92L194.714 242.98C194.301 242.633 193.781 242.46 193.154 242.46ZM199.413 247.74C199.747 247.033 200.24 246.5 200.893 246.14C201.56 245.78 202.38 245.6 203.353 245.6V246.98L203.013 246.96C201.907 246.96 201.04 247.3 200.413 247.98C199.787 248.66 199.473 249.613 199.473 250.84V256.2H198.053V245.68H199.413V247.74ZM205.924 245.68H207.344V256.2H205.924V245.68ZM206.644 243.38C206.351 243.38 206.104 243.28 205.904 243.08C205.704 242.88 205.604 242.64 205.604 242.36C205.604 242.093 205.704 241.86 205.904 241.66C206.104 241.46 206.351 241.36 206.644 241.36C206.938 241.36 207.184 241.46 207.384 241.66C207.584 241.847 207.684 242.073 207.684 242.34C207.684 242.633 207.584 242.88 207.384 243.08C207.184 243.28 206.938 243.38 206.644 243.38ZM220.455 251.38H211.655C211.735 252.473 212.155 253.36 212.915 254.04C213.675 254.707 214.635 255.04 215.795 255.04C216.449 255.04 217.049 254.927 217.595 254.7C218.142 254.46 218.615 254.113 219.015 253.66L219.815 254.58C219.349 255.14 218.762 255.567 218.055 255.86C217.362 256.153 216.595 256.3 215.755 256.3C214.675 256.3 213.715 256.073 212.875 255.62C212.049 255.153 211.402 254.513 210.935 253.7C210.469 252.887 210.235 251.967 210.235 250.94C210.235 249.913 210.455 248.993 210.895 248.18C211.349 247.367 211.962 246.733 212.735 246.28C213.522 245.827 214.402 245.6 215.375 245.6C216.349 245.6 217.222 245.827 217.995 246.28C218.769 246.733 219.375 247.367 219.815 248.18C220.255 248.98 220.475 249.9 220.475 250.94L220.455 251.38ZM215.375 246.82C214.362 246.82 213.509 247.147 212.815 247.8C212.135 248.44 211.749 249.28 211.655 250.32H219.115C219.022 249.28 218.629 248.44 217.935 247.8C217.255 247.147 216.402 246.82 215.375 246.82ZM228.726 245.6C230.046 245.6 231.092 245.987 231.866 246.76C232.652 247.52 233.046 248.633 233.046 250.1V256.2H231.626V250.24C231.626 249.147 231.352 248.313 230.806 247.74C230.259 247.167 229.479 246.88 228.466 246.88C227.332 246.88 226.432 247.22 225.766 247.9C225.112 248.567 224.786 249.493 224.786 250.68V256.2H223.366V245.68H224.726V247.62C225.112 246.98 225.646 246.487 226.326 246.14C227.019 245.78 227.819 245.6 228.726 245.6ZM246.54 241.36V256.2H245.18V254.12C244.753 254.827 244.187 255.367 243.48 255.74C242.787 256.113 242 256.3 241.12 256.3C240.133 256.3 239.24 256.073 238.44 255.62C237.64 255.167 237.013 254.533 236.56 253.72C236.107 252.907 235.88 251.98 235.88 250.94C235.88 249.9 236.107 248.973 236.56 248.16C237.013 247.347 237.64 246.72 238.44 246.28C239.24 245.827 240.133 245.6 241.12 245.6C241.973 245.6 242.74 245.78 243.42 246.14C244.113 246.487 244.68 247 245.12 247.68V241.36H246.54ZM241.24 255.04C241.973 255.04 242.633 254.873 243.22 254.54C243.82 254.193 244.287 253.707 244.62 253.08C244.967 252.453 245.14 251.74 245.14 250.94C245.14 250.14 244.967 249.427 244.62 248.8C244.287 248.173 243.82 247.693 243.22 247.36C242.633 247.013 241.973 246.84 241.24 246.84C240.493 246.84 239.82 247.013 239.22 247.36C238.633 247.693 238.167 248.173 237.82 248.8C237.487 249.427 237.32 250.14 237.32 250.94C237.32 251.74 237.487 252.453 237.82 253.08C238.167 253.707 238.633 254.193 239.22 254.54C239.82 254.873 240.493 255.04 241.24 255.04ZM253.315 256.3C252.461 256.3 251.641 256.18 250.855 255.94C250.081 255.687 249.475 255.373 249.035 255L249.675 253.88C250.115 254.227 250.668 254.513 251.335 254.74C252.001 254.953 252.695 255.06 253.415 255.06C254.375 255.06 255.081 254.913 255.535 254.62C256.001 254.313 256.235 253.887 256.235 253.34C256.235 252.953 256.108 252.653 255.855 252.44C255.601 252.213 255.281 252.047 254.895 251.94C254.508 251.82 253.995 251.707 253.355 251.6C252.501 251.44 251.815 251.28 251.295 251.12C250.775 250.947 250.328 250.66 249.955 250.26C249.595 249.86 249.415 249.307 249.415 248.6C249.415 247.72 249.781 247 250.515 246.44C251.248 245.88 252.268 245.6 253.575 245.6C254.255 245.6 254.935 245.693 255.615 245.88C256.295 246.053 256.855 246.287 257.295 246.58L256.675 247.72C255.808 247.12 254.775 246.82 253.575 246.82C252.668 246.82 251.981 246.98 251.515 247.3C251.061 247.62 250.835 248.04 250.835 248.56C250.835 248.96 250.961 249.28 251.215 249.52C251.481 249.76 251.808 249.94 252.195 250.06C252.581 250.167 253.115 250.28 253.795 250.4C254.635 250.56 255.308 250.72 255.815 250.88C256.321 251.04 256.755 251.313 257.115 251.7C257.475 252.087 257.655 252.62 257.655 253.3C257.655 254.22 257.268 254.953 256.495 255.5C255.735 256.033 254.675 256.3 253.315 256.3ZM260.44 254.12C260.746 254.12 261 254.227 261.2 254.44C261.4 254.64 261.5 254.893 261.5 255.2C261.5 255.36 261.473 255.533 261.42 255.72C261.38 255.907 261.313 256.12 261.22 256.36L260.38 259.12H259.42L260.1 256.22C259.886 256.153 259.713 256.033 259.58 255.86C259.446 255.673 259.38 255.453 259.38 255.2C259.38 254.893 259.48 254.64 259.68 254.44C259.88 254.227 260.133 254.12 260.44 254.12ZM278.912 251.38H270.112C270.192 252.473 270.612 253.36 271.372 254.04C272.132 254.707 273.092 255.04 274.252 255.04C274.906 255.04 275.506 254.927 276.052 254.7C276.599 254.46 277.072 254.113 277.472 253.66L278.272 254.58C277.806 255.14 277.219 255.567 276.512 255.86C275.819 256.153 275.052 256.3 274.212 256.3C273.132 256.3 272.172 256.073 271.332 255.62C270.506 255.153 269.859 254.513 269.392 253.7C268.926 252.887 268.692 251.967 268.692 250.94C268.692 249.913 268.912 248.993 269.352 248.18C269.806 247.367 270.419 246.733 271.192 246.28C271.979 245.827 272.859 245.6 273.832 245.6C274.806 245.6 275.679 245.827 276.452 246.28C277.226 246.733 277.832 247.367 278.272 248.18C278.712 248.98 278.932 249.9 278.932 250.94L278.912 251.38ZM273.832 246.82C272.819 246.82 271.966 247.147 271.272 247.8C270.592 248.44 270.206 249.28 270.112 250.32H277.572C277.479 249.28 277.086 248.44 276.392 247.8C275.712 247.147 274.859 246.82 273.832 246.82ZM290.467 245.68L285.787 256.2H284.327L279.667 245.68H281.147L285.087 254.64L289.067 245.68H290.467ZM301.334 251.38H292.534C292.614 252.473 293.034 253.36 293.794 254.04C294.554 254.707 295.514 255.04 296.674 255.04C297.328 255.04 297.928 254.927 298.474 254.7C299.021 254.46 299.494 254.113 299.894 253.66L300.694 254.58C300.228 255.14 299.641 255.567 298.934 255.86C298.241 256.153 297.474 256.3 296.634 256.3C295.554 256.3 294.594 256.073 293.754 255.62C292.928 255.153 292.281 254.513 291.814 253.7C291.348 252.887 291.114 251.967 291.114 250.94C291.114 249.913 291.334 248.993 291.774 248.18C292.228 247.367 292.841 246.733 293.614 246.28C294.401 245.827 295.281 245.6 296.254 245.6C297.228 245.6 298.101 245.827 298.874 246.28C299.648 246.733 300.254 247.367 300.694 248.18C301.134 248.98 301.354 249.9 301.354 250.94L301.334 251.38ZM296.254 246.82C295.241 246.82 294.388 247.147 293.694 247.8C293.014 248.44 292.628 249.28 292.534 250.32H299.994C299.901 249.28 299.508 248.44 298.814 247.8C298.134 247.147 297.281 246.82 296.254 246.82ZM309.605 245.6C310.925 245.6 311.971 245.987 312.745 246.76C313.531 247.52 313.925 248.633 313.925 250.1V256.2H312.505V250.24C312.505 249.147 312.231 248.313 311.685 247.74C311.138 247.167 310.358 246.88 309.345 246.88C308.211 246.88 307.311 247.22 306.645 247.9C305.991 248.567 305.665 249.493 305.665 250.68V256.2H304.245V245.68H305.605V247.62C305.991 246.98 306.525 246.487 307.205 246.14C307.898 245.78 308.698 245.6 309.605 245.6ZM131.709 266.46C131.096 266.46 130.629 266.627 130.309 266.96C130.002 267.293 129.849 267.787 129.849 268.44V269.68H133.089V270.88H129.889V280.2H128.469V270.88H126.589V269.68H128.469V268.38C128.469 267.42 128.742 266.66 129.289 266.1C129.849 265.54 130.636 265.26 131.649 265.26C132.049 265.26 132.436 265.32 132.809 265.44C133.182 265.547 133.496 265.707 133.749 265.92L133.269 266.98C132.856 266.633 132.336 266.46 131.709 266.46ZM138.491 269.6C139.864 269.6 140.918 269.947 141.651 270.64C142.384 271.32 142.751 272.333 142.751 273.68V280.2H141.391V278.56C141.071 279.107 140.598 279.533 139.971 279.84C139.358 280.147 138.624 280.3 137.771 280.3C136.598 280.3 135.664 280.02 134.971 279.46C134.278 278.9 133.931 278.16 133.931 277.24C133.931 276.347 134.251 275.627 134.891 275.08C135.544 274.533 136.578 274.26 137.991 274.26H141.331V273.62C141.331 272.713 141.078 272.027 140.571 271.56C140.064 271.08 139.324 270.84 138.351 270.84C137.684 270.84 137.044 270.953 136.431 271.18C135.818 271.393 135.291 271.693 134.851 272.08L134.211 271.02C134.744 270.567 135.384 270.22 136.131 269.98C136.878 269.727 137.664 269.6 138.491 269.6ZM137.991 279.18C138.791 279.18 139.478 279 140.051 278.64C140.624 278.267 141.051 277.733 141.331 277.04V275.32H138.031C136.231 275.32 135.331 275.947 135.331 277.2C135.331 277.813 135.564 278.3 136.031 278.66C136.498 279.007 137.151 279.18 137.991 279.18ZM159.728 269.6C161.048 269.6 162.081 269.98 162.828 270.74C163.588 271.5 163.968 272.62 163.968 274.1V280.2H162.548V274.24C162.548 273.147 162.281 272.313 161.748 271.74C161.228 271.167 160.488 270.88 159.528 270.88C158.435 270.88 157.575 271.22 156.948 271.9C156.321 272.567 156.008 273.493 156.008 274.68V280.2H154.588V274.24C154.588 273.147 154.321 272.313 153.788 271.74C153.268 271.167 152.521 270.88 151.548 270.88C150.468 270.88 149.608 271.22 148.968 271.9C148.341 272.567 148.028 273.493 148.028 274.68V280.2H146.608V269.68H147.968V271.6C148.341 270.96 148.861 270.467 149.528 270.12C150.195 269.773 150.961 269.6 151.828 269.6C152.708 269.6 153.468 269.787 154.108 270.16C154.761 270.533 155.248 271.087 155.568 271.82C155.955 271.127 156.508 270.587 157.228 270.2C157.961 269.8 158.795 269.6 159.728 269.6ZM167.819 269.68H169.239V280.2H167.819V269.68ZM168.539 267.38C168.246 267.38 167.999 267.28 167.799 267.08C167.599 266.88 167.499 266.64 167.499 266.36C167.499 266.093 167.599 265.86 167.799 265.66C167.999 265.46 168.246 265.36 168.539 265.36C168.832 265.36 169.079 265.46 169.279 265.66C169.479 265.847 169.579 266.073 169.579 266.34C169.579 266.633 169.479 266.88 169.279 267.08C169.079 267.28 168.832 267.38 168.539 267.38ZM173.19 265.36H174.61V280.2H173.19V265.36ZM187.401 269.68L182.141 281.46C181.714 282.447 181.221 283.147 180.661 283.56C180.101 283.973 179.428 284.18 178.641 284.18C178.134 284.18 177.661 284.1 177.221 283.94C176.781 283.78 176.401 283.54 176.081 283.22L176.741 282.16C177.274 282.693 177.914 282.96 178.661 282.96C179.141 282.96 179.548 282.827 179.881 282.56C180.228 282.293 180.548 281.84 180.841 281.2L181.301 280.18L176.601 269.68H178.081L182.041 278.62L186.001 269.68H187.401ZM202.755 270.3L195.395 273.2L202.755 276.1V277.34L194.055 273.86V272.54L202.755 269.04V270.3ZM209.959 272.2C211.426 272.28 212.539 272.68 213.299 273.4C214.073 274.107 214.459 275.033 214.459 276.18C214.459 276.98 214.266 277.693 213.879 278.32C213.493 278.933 212.919 279.42 212.159 279.78C211.399 280.14 210.473 280.32 209.379 280.32C208.366 280.32 207.406 280.16 206.499 279.84C205.606 279.507 204.886 279.067 204.339 278.52L205.039 277.38C205.506 277.86 206.126 278.253 206.899 278.56C207.673 278.853 208.499 279 209.379 279C210.526 279 211.413 278.753 212.039 278.26C212.666 277.753 212.979 277.06 212.979 276.18C212.979 275.313 212.666 274.633 212.039 274.14C211.413 273.647 210.466 273.4 209.199 273.4H208.199V272.34L212.079 267.48H204.919V266.2H213.919V267.22L209.959 272.2ZM225.548 270.3L218.188 273.2L225.548 276.1V277.34L216.848 273.86V272.54L225.548 269.04V270.3ZM232.752 272.2C234.219 272.28 235.332 272.68 236.092 273.4C236.865 274.107 237.252 275.033 237.252 276.18C237.252 276.98 237.059 277.693 236.672 278.32C236.285 278.933 235.712 279.42 234.952 279.78C234.192 280.14 233.265 280.32 232.172 280.32C231.159 280.32 230.199 280.16 229.292 279.84C228.399 279.507 227.679 279.067 227.132 278.52L227.832 277.38C228.299 277.86 228.919 278.253 229.692 278.56C230.465 278.853 231.292 279 232.172 279C233.319 279 234.205 278.753 234.832 278.26C235.459 277.753 235.772 277.06 235.772 276.18C235.772 275.313 235.459 274.633 234.832 274.14C234.205 273.647 233.259 273.4 231.992 273.4H230.992V272.34L234.872 267.48H227.712V266.2H236.712V267.22L232.752 272.2Z" fill="white"/>
<path d="M153.335 318.18C152.868 318.18 152.455 318.093 152.095 317.92C151.735 317.747 151.408 317.547 151.115 317.32C150.821 317.093 150.548 316.893 150.295 316.72C150.041 316.533 149.781 316.44 149.515 316.44C149.155 316.44 148.861 316.58 148.635 316.86C148.421 317.14 148.301 317.52 148.275 318H146.335C146.361 316.733 146.648 315.78 147.195 315.14C147.755 314.5 148.468 314.18 149.335 314.18C149.801 314.18 150.215 314.273 150.575 314.46C150.935 314.633 151.255 314.833 151.535 315.06C151.828 315.273 152.101 315.473 152.355 315.66C152.608 315.833 152.868 315.92 153.135 315.92C153.508 315.92 153.801 315.78 154.015 315.5C154.241 315.22 154.361 314.84 154.375 314.36H156.335C156.308 315.613 156.015 316.567 155.455 317.22C154.908 317.86 154.201 318.18 153.335 318.18ZM158.967 323.2V309.2H165.027C166.281 309.2 167.361 309.407 168.267 309.82C169.174 310.22 169.874 310.8 170.367 311.56C170.861 312.32 171.107 313.227 171.107 314.28C171.107 315.32 170.861 316.22 170.367 316.98C169.874 317.727 169.174 318.3 168.267 318.7C167.361 319.1 166.281 319.3 165.027 319.3H160.767L162.207 317.88V323.2H158.967ZM167.867 323.2L164.367 318.12H167.827L171.367 323.2H167.867ZM162.207 318.24L160.767 316.72H164.847C165.847 316.72 166.594 316.507 167.087 316.08C167.581 315.64 167.827 315.04 167.827 314.28C167.827 313.507 167.581 312.907 167.087 312.48C166.594 312.053 165.847 311.84 164.847 311.84H160.767L162.207 310.3V318.24ZM179.957 323.2V321.1L179.757 320.64V316.88C179.757 316.213 179.55 315.693 179.137 315.32C178.737 314.947 178.117 314.76 177.277 314.76C176.703 314.76 176.137 314.853 175.577 315.04C175.03 315.213 174.563 315.453 174.177 315.76L173.057 313.58C173.643 313.167 174.35 312.847 175.177 312.62C176.003 312.393 176.843 312.28 177.697 312.28C179.337 312.28 180.61 312.667 181.517 313.44C182.423 314.213 182.877 315.42 182.877 317.06V323.2H179.957ZM176.677 323.36C175.837 323.36 175.117 323.22 174.517 322.94C173.917 322.647 173.457 322.253 173.137 321.76C172.817 321.267 172.657 320.713 172.657 320.1C172.657 319.46 172.81 318.9 173.117 318.42C173.437 317.94 173.937 317.567 174.617 317.3C175.297 317.02 176.183 316.88 177.277 316.88H180.137V318.7H177.617C176.883 318.7 176.377 318.82 176.097 319.06C175.83 319.3 175.697 319.6 175.697 319.96C175.697 320.36 175.85 320.68 176.157 320.92C176.477 321.147 176.91 321.26 177.457 321.26C177.977 321.26 178.443 321.14 178.857 320.9C179.27 320.647 179.57 320.28 179.757 319.8L180.237 321.24C180.01 321.933 179.597 322.46 178.997 322.82C178.397 323.18 177.623 323.36 176.677 323.36ZM192.24 312.28C193.094 312.28 193.854 312.453 194.52 312.8C195.2 313.133 195.734 313.653 196.12 314.36C196.507 315.053 196.7 315.947 196.7 317.04V323.2H193.58V317.52C193.58 316.653 193.387 316.013 193 315.6C192.627 315.187 192.094 314.98 191.4 314.98C190.907 314.98 190.46 315.087 190.06 315.3C189.674 315.5 189.367 315.813 189.14 316.24C188.927 316.667 188.82 317.213 188.82 317.88V323.2H185.7V308.36H188.82V315.42L188.12 314.52C188.507 313.8 189.06 313.247 189.78 312.86C190.5 312.473 191.32 312.28 192.24 312.28ZM204.068 323.36C203.175 323.36 202.375 323.187 201.668 322.84C200.975 322.493 200.435 321.967 200.048 321.26C199.662 320.54 199.468 319.627 199.468 318.52V312.44H202.588V318.06C202.588 318.953 202.775 319.613 203.148 320.04C203.535 320.453 204.075 320.66 204.768 320.66C205.248 320.66 205.675 320.56 206.048 320.36C206.422 320.147 206.715 319.827 206.928 319.4C207.142 318.96 207.248 318.413 207.248 317.76V312.44H210.368V323.2H207.408V320.24L207.948 321.1C207.588 321.847 207.055 322.413 206.348 322.8C205.655 323.173 204.895 323.36 204.068 323.36ZM213.259 323.2V308.36H216.379V323.2H213.259Z" fill="white"/>
</svg>
