<svg width="331" height="331" viewBox="0 0 331 331" fill="none" xmlns="http://www.w3.org/2000/svg">
<circle cx="165.745" cy="165.2" r="165" fill="#DD0808"/>
<circle cx="164.245" cy="68.7" r="51.5" fill="#D9D9D9"/>
<path d="M77.7524 161.46H69.9524L68.2724 165.2H66.7324L73.1324 151.2H74.5924L80.9924 165.2H79.4324L77.7524 161.46ZM77.2124 160.26L73.8524 152.74L70.4924 160.26H77.2124ZM88.4283 154.6C89.415 154.6 90.3083 154.827 91.1083 155.28C91.9083 155.72 92.535 156.347 92.9883 157.16C93.4417 157.973 93.6683 158.9 93.6683 159.94C93.6683 160.98 93.4417 161.907 92.9883 162.72C92.535 163.533 91.9083 164.167 91.1083 164.62C90.3083 165.073 89.415 165.3 88.4283 165.3C87.5483 165.3 86.755 165.113 86.0483 164.74C85.355 164.367 84.795 163.827 84.3683 163.12V165.2H83.0083V150.36H84.4283V156.68C84.8683 156 85.4283 155.487 86.1083 155.14C86.8017 154.78 87.575 154.6 88.4283 154.6ZM88.3283 164.04C89.0617 164.04 89.7283 163.873 90.3283 163.54C90.9283 163.193 91.395 162.707 91.7283 162.08C92.075 161.453 92.2483 160.74 92.2483 159.94C92.2483 159.14 92.075 158.427 91.7283 157.8C91.395 157.173 90.9283 156.693 90.3283 156.36C89.7283 156.013 89.0617 155.84 88.3283 155.84C87.5817 155.84 86.9083 156.013 86.3083 156.36C85.7217 156.693 85.255 157.173 84.9083 157.8C84.575 158.427 84.4083 159.14 84.4083 159.94C84.4083 160.74 84.575 161.453 84.9083 162.08C85.255 162.707 85.7217 163.193 86.3083 163.54C86.9083 163.873 87.5817 164.04 88.3283 164.04ZM99.383 165.3C98.5297 165.3 97.7097 165.18 96.923 164.94C96.1497 164.687 95.543 164.373 95.103 164L95.743 162.88C96.183 163.227 96.7363 163.513 97.403 163.74C98.0697 163.953 98.763 164.06 99.483 164.06C100.443 164.06 101.15 163.913 101.603 163.62C102.07 163.313 102.303 162.887 102.303 162.34C102.303 161.953 102.176 161.653 101.923 161.44C101.67 161.213 101.35 161.047 100.963 160.94C100.576 160.82 100.063 160.707 99.423 160.6C98.5697 160.44 97.883 160.28 97.363 160.12C96.843 159.947 96.3963 159.66 96.023 159.26C95.663 158.86 95.483 158.307 95.483 157.6C95.483 156.72 95.8497 156 96.583 155.44C97.3163 154.88 98.3363 154.6 99.643 154.6C100.323 154.6 101.003 154.693 101.683 154.88C102.363 155.053 102.923 155.287 103.363 155.58L102.743 156.72C101.876 156.12 100.843 155.82 99.643 155.82C98.7363 155.82 98.0497 155.98 97.583 156.3C97.1297 156.62 96.903 157.04 96.903 157.56C96.903 157.96 97.0297 158.28 97.283 158.52C97.5497 158.76 97.8763 158.94 98.263 159.06C98.6497 159.167 99.183 159.28 99.863 159.4C100.703 159.56 101.376 159.72 101.883 159.88C102.39 160.04 102.823 160.313 103.183 160.7C103.543 161.087 103.723 161.62 103.723 162.3C103.723 163.22 103.336 163.953 102.563 164.5C101.803 165.033 100.743 165.3 99.383 165.3ZM110.648 165.3C109.635 165.3 108.721 165.073 107.908 164.62C107.095 164.153 106.455 163.513 105.988 162.7C105.521 161.887 105.288 160.967 105.288 159.94C105.288 158.913 105.521 157.993 105.988 157.18C106.455 156.367 107.095 155.733 107.908 155.28C108.721 154.827 109.635 154.6 110.648 154.6C111.661 154.6 112.575 154.827 113.388 155.28C114.201 155.733 114.835 156.367 115.288 157.18C115.755 157.993 115.988 158.913 115.988 159.94C115.988 160.967 115.755 161.887 115.288 162.7C114.835 163.513 114.201 164.153 113.388 164.62C112.575 165.073 111.661 165.3 110.648 165.3ZM110.648 164.04C111.395 164.04 112.061 163.873 112.648 163.54C113.248 163.193 113.715 162.707 114.048 162.08C114.381 161.453 114.548 160.74 114.548 159.94C114.548 159.14 114.381 158.427 114.048 157.8C113.715 157.173 113.248 156.693 112.648 156.36C112.061 156.013 111.395 155.84 110.648 155.84C109.901 155.84 109.228 156.013 108.628 156.36C108.041 156.693 107.575 157.173 107.228 157.8C106.895 158.427 106.728 159.14 106.728 159.94C106.728 160.74 106.895 161.453 107.228 162.08C107.575 162.707 108.041 163.193 108.628 163.54C109.228 163.873 109.901 164.04 110.648 164.04ZM118.887 150.36H120.307V165.2H118.887V150.36ZM133.738 154.68V165.2H132.378V163.28C132.005 163.92 131.492 164.42 130.838 164.78C130.185 165.127 129.438 165.3 128.598 165.3C127.225 165.3 126.138 164.92 125.338 164.16C124.552 163.387 124.158 162.26 124.158 160.78V154.68H125.578V160.64C125.578 161.747 125.852 162.587 126.398 163.16C126.945 163.733 127.725 164.02 128.738 164.02C129.845 164.02 130.718 163.687 131.358 163.02C131.998 162.34 132.318 161.4 132.318 160.2V154.68H133.738ZM143.255 164.56C142.989 164.8 142.655 164.987 142.255 165.12C141.869 165.24 141.462 165.3 141.035 165.3C140.049 165.3 139.289 165.033 138.755 164.5C138.222 163.967 137.955 163.213 137.955 162.24V155.88H136.075V154.68H137.955V152.38H139.375V154.68H142.575V155.88H139.375V162.16C139.375 162.787 139.529 163.267 139.835 163.6C140.155 163.92 140.609 164.08 141.195 164.08C141.489 164.08 141.769 164.033 142.035 163.94C142.315 163.847 142.555 163.713 142.755 163.54L143.255 164.56ZM154.629 160.38H145.829C145.909 161.473 146.329 162.36 147.089 163.04C147.849 163.707 148.809 164.04 149.969 164.04C150.623 164.04 151.223 163.927 151.769 163.7C152.316 163.46 152.789 163.113 153.189 162.66L153.989 163.58C153.523 164.14 152.936 164.567 152.229 164.86C151.536 165.153 150.769 165.3 149.929 165.3C148.849 165.3 147.889 165.073 147.049 164.62C146.223 164.153 145.576 163.513 145.109 162.7C144.643 161.887 144.409 160.967 144.409 159.94C144.409 158.913 144.629 157.993 145.069 157.18C145.523 156.367 146.136 155.733 146.909 155.28C147.696 154.827 148.576 154.6 149.549 154.6C150.523 154.6 151.396 154.827 152.169 155.28C152.943 155.733 153.549 156.367 153.989 157.18C154.429 157.98 154.649 158.9 154.649 159.94L154.629 160.38ZM149.549 155.82C148.536 155.82 147.683 156.147 146.989 156.8C146.309 157.44 145.923 158.28 145.829 159.32H153.289C153.196 158.28 152.803 157.44 152.109 156.8C151.429 156.147 150.576 155.82 149.549 155.82ZM157.54 150.36H158.96V165.2H157.54V150.36ZM171.751 154.68L166.491 166.46C166.064 167.447 165.571 168.147 165.011 168.56C164.451 168.973 163.777 169.18 162.991 169.18C162.484 169.18 162.011 169.1 161.571 168.94C161.131 168.78 160.751 168.54 160.431 168.22L161.091 167.16C161.624 167.693 162.264 167.96 163.011 167.96C163.491 167.96 163.897 167.827 164.231 167.56C164.577 167.293 164.897 166.84 165.191 166.2L165.651 165.18L160.951 154.68H162.431L166.391 163.62L170.351 154.68H171.751ZM178.985 150.36H180.405V165.2H178.985V150.36ZM188.656 165.3C187.643 165.3 186.729 165.073 185.916 164.62C185.103 164.153 184.463 163.513 183.996 162.7C183.529 161.887 183.296 160.967 183.296 159.94C183.296 158.913 183.529 157.993 183.996 157.18C184.463 156.367 185.103 155.733 185.916 155.28C186.729 154.827 187.643 154.6 188.656 154.6C189.669 154.6 190.583 154.827 191.396 155.28C192.209 155.733 192.843 156.367 193.296 157.18C193.763 157.993 193.996 158.913 193.996 159.94C193.996 160.967 193.763 161.887 193.296 162.7C192.843 163.513 192.209 164.153 191.396 164.62C190.583 165.073 189.669 165.3 188.656 165.3ZM188.656 164.04C189.403 164.04 190.069 163.873 190.656 163.54C191.256 163.193 191.723 162.707 192.056 162.08C192.389 161.453 192.556 160.74 192.556 159.94C192.556 159.14 192.389 158.427 192.056 157.8C191.723 157.173 191.256 156.693 190.656 156.36C190.069 156.013 189.403 155.84 188.656 155.84C187.909 155.84 187.236 156.013 186.636 156.36C186.049 156.693 185.583 157.173 185.236 157.8C184.903 158.427 184.736 159.14 184.736 159.94C184.736 160.74 184.903 161.453 185.236 162.08C185.583 162.707 186.049 163.193 186.636 163.54C187.236 163.873 187.909 164.04 188.656 164.04ZM205.442 154.68L200.762 165.2H199.302L194.642 154.68H196.122L200.062 163.64L204.042 154.68H205.442ZM216.309 160.38H207.509C207.589 161.473 208.009 162.36 208.769 163.04C209.529 163.707 210.489 164.04 211.649 164.04C212.302 164.04 212.902 163.927 213.449 163.7C213.996 163.46 214.469 163.113 214.869 162.66L215.669 163.58C215.202 164.14 214.616 164.567 213.909 164.86C213.216 165.153 212.449 165.3 211.609 165.3C210.529 165.3 209.569 165.073 208.729 164.62C207.902 164.153 207.256 163.513 206.789 162.7C206.322 161.887 206.089 160.967 206.089 159.94C206.089 158.913 206.309 157.993 206.749 157.18C207.202 156.367 207.816 155.733 208.589 155.28C209.376 154.827 210.256 154.6 211.229 154.6C212.202 154.6 213.076 154.827 213.849 155.28C214.622 155.733 215.229 156.367 215.669 157.18C216.109 157.98 216.329 158.9 216.329 159.94L216.309 160.38ZM211.229 155.82C210.216 155.82 209.362 156.147 208.669 156.8C207.989 157.44 207.602 158.28 207.509 159.32H214.969C214.876 158.28 214.482 157.44 213.789 156.8C213.109 156.147 212.256 155.82 211.229 155.82ZM228.819 150.36V165.2H227.459V163.12C227.033 163.827 226.466 164.367 225.759 164.74C225.066 165.113 224.279 165.3 223.399 165.3C222.413 165.3 221.519 165.073 220.719 164.62C219.919 164.167 219.293 163.533 218.839 162.72C218.386 161.907 218.159 160.98 218.159 159.94C218.159 158.9 218.386 157.973 218.839 157.16C219.293 156.347 219.919 155.72 220.719 155.28C221.519 154.827 222.413 154.6 223.399 154.6C224.253 154.6 225.019 154.78 225.699 155.14C226.393 155.487 226.959 156 227.399 156.68V150.36H228.819ZM223.519 164.04C224.253 164.04 224.913 163.873 225.499 163.54C226.099 163.193 226.566 162.707 226.899 162.08C227.246 161.453 227.419 160.74 227.419 159.94C227.419 159.14 227.246 158.427 226.899 157.8C226.566 157.173 226.099 156.693 225.499 156.36C224.913 156.013 224.253 155.84 223.519 155.84C222.773 155.84 222.099 156.013 221.499 156.36C220.913 156.693 220.446 157.173 220.099 157.8C219.766 158.427 219.599 159.14 219.599 159.94C219.599 160.74 219.766 161.453 220.099 162.08C220.446 162.707 220.913 163.193 221.499 163.54C222.099 163.873 222.773 164.04 223.519 164.04ZM243.548 164.56C243.282 164.8 242.948 164.987 242.548 165.12C242.162 165.24 241.755 165.3 241.328 165.3C240.342 165.3 239.582 165.033 239.048 164.5C238.515 163.967 238.248 163.213 238.248 162.24V155.88H236.368V154.68H238.248V152.38H239.668V154.68H242.868V155.88H239.668V162.16C239.668 162.787 239.822 163.267 240.128 163.6C240.448 163.92 240.902 164.08 241.488 164.08C241.782 164.08 242.062 164.033 242.328 163.94C242.608 163.847 242.848 163.713 243.048 163.54L243.548 164.56ZM251.493 154.6C252.813 154.6 253.86 154.987 254.633 155.76C255.42 156.52 255.813 157.633 255.813 159.1V165.2H254.393V159.24C254.393 158.147 254.12 157.313 253.573 156.74C253.027 156.167 252.247 155.88 251.233 155.88C250.1 155.88 249.2 156.22 248.533 156.9C247.88 157.567 247.553 158.493 247.553 159.68V165.2H246.133V150.36H247.553V156.52C247.94 155.907 248.473 155.433 249.153 155.1C249.833 154.767 250.613 154.6 251.493 154.6ZM268.868 160.38H260.068C260.148 161.473 260.568 162.36 261.328 163.04C262.088 163.707 263.048 164.04 264.208 164.04C264.861 164.04 265.461 163.927 266.008 163.7C266.554 163.46 267.028 163.113 267.428 162.66L268.228 163.58C267.761 164.14 267.174 164.567 266.468 164.86C265.774 165.153 265.008 165.3 264.168 165.3C263.088 165.3 262.128 165.073 261.288 164.62C260.461 164.153 259.814 163.513 259.348 162.7C258.881 161.887 258.648 160.967 258.648 159.94C258.648 158.913 258.868 157.993 259.308 157.18C259.761 156.367 260.374 155.733 261.148 155.28C261.934 154.827 262.814 154.6 263.788 154.6C264.761 154.6 265.634 154.827 266.408 155.28C267.181 155.733 267.788 156.367 268.228 157.18C268.668 157.98 268.888 158.9 268.888 159.94L268.868 160.38ZM263.788 155.82C262.774 155.82 261.921 156.147 261.228 156.8C260.548 157.44 260.161 158.28 260.068 159.32H267.528C267.434 158.28 267.041 157.44 266.348 156.8C265.668 156.147 264.814 155.82 263.788 155.82ZM64.0456 178.68L59.3656 189.2H57.9056L53.2456 178.68H54.7256L58.6656 187.64L62.6456 178.68H64.0456ZM66.0454 178.68H67.4654V189.2H66.0454V178.68ZM66.7654 176.38C66.4721 176.38 66.2254 176.28 66.0254 176.08C65.8254 175.88 65.7254 175.64 65.7254 175.36C65.7254 175.093 65.8254 174.86 66.0254 174.66C66.2254 174.46 66.4721 174.36 66.7654 174.36C67.0588 174.36 67.3054 174.46 67.5054 174.66C67.7054 174.847 67.8054 175.073 67.8054 175.34C67.8054 175.633 67.7054 175.88 67.5054 176.08C67.3054 176.28 67.0588 176.38 66.7654 176.38ZM76.8365 178.6C77.8232 178.6 78.7165 178.827 79.5165 179.28C80.3165 179.72 80.9432 180.347 81.3965 181.16C81.8499 181.973 82.0765 182.9 82.0765 183.94C82.0765 184.98 81.8499 185.907 81.3965 186.72C80.9432 187.533 80.3165 188.167 79.5165 188.62C78.7165 189.073 77.8232 189.3 76.8365 189.3C75.9565 189.3 75.1632 189.113 74.4565 188.74C73.7632 188.367 73.2032 187.827 72.7765 187.12V189.2H71.4165V174.36H72.8365V180.68C73.2765 180 73.8365 179.487 74.5165 179.14C75.2099 178.78 75.9832 178.6 76.8365 178.6ZM76.7365 188.04C77.4699 188.04 78.1365 187.873 78.7365 187.54C79.3365 187.193 79.8032 186.707 80.1365 186.08C80.4832 185.453 80.6565 184.74 80.6565 183.94C80.6565 183.14 80.4832 182.427 80.1365 181.8C79.8032 181.173 79.3365 180.693 78.7365 180.36C78.1365 180.013 77.4699 179.84 76.7365 179.84C75.9899 179.84 75.3165 180.013 74.7165 180.36C74.1299 180.693 73.6632 181.173 73.3165 181.8C72.9832 182.427 72.8165 183.14 72.8165 183.94C72.8165 184.74 72.9832 185.453 73.3165 186.08C73.6632 186.707 74.1299 187.193 74.7165 187.54C75.3165 187.873 75.9899 188.04 76.7365 188.04ZM94.1312 184.38H85.3312C85.4112 185.473 85.8312 186.36 86.5912 187.04C87.3512 187.707 88.3112 188.04 89.4712 188.04C90.1245 188.04 90.7245 187.927 91.2712 187.7C91.8179 187.46 92.2912 187.113 92.6912 186.66L93.4912 187.58C93.0245 188.14 92.4379 188.567 91.7312 188.86C91.0379 189.153 90.2712 189.3 89.4312 189.3C88.3512 189.3 87.3912 189.073 86.5512 188.62C85.7245 188.153 85.0779 187.513 84.6112 186.7C84.1445 185.887 83.9112 184.967 83.9112 183.94C83.9112 182.913 84.1312 181.993 84.5712 181.18C85.0245 180.367 85.6379 179.733 86.4112 179.28C87.1979 178.827 88.0779 178.6 89.0512 178.6C90.0245 178.6 90.8979 178.827 91.6712 179.28C92.4445 179.733 93.0512 180.367 93.4912 181.18C93.9312 181.98 94.1512 182.9 94.1512 183.94L94.1312 184.38ZM89.0512 179.82C88.0379 179.82 87.1845 180.147 86.4912 180.8C85.8112 181.44 85.4245 182.28 85.3312 183.32H92.7912C92.6979 182.28 92.3045 181.44 91.6112 180.8C90.9312 180.147 90.0779 179.82 89.0512 179.82ZM99.8615 189.3C99.0082 189.3 98.1882 189.18 97.4015 188.94C96.6282 188.687 96.0215 188.373 95.5815 188L96.2215 186.88C96.6615 187.227 97.2149 187.513 97.8815 187.74C98.5482 187.953 99.2415 188.06 99.9615 188.06C100.922 188.06 101.628 187.913 102.082 187.62C102.548 187.313 102.782 186.887 102.782 186.34C102.782 185.953 102.655 185.653 102.402 185.44C102.148 185.213 101.828 185.047 101.442 184.94C101.055 184.82 100.542 184.707 99.9015 184.6C99.0482 184.44 98.3615 184.28 97.8415 184.12C97.3215 183.947 96.8749 183.66 96.5015 183.26C96.1415 182.86 95.9615 182.307 95.9615 181.6C95.9615 180.72 96.3282 180 97.0615 179.44C97.7949 178.88 98.8149 178.6 100.122 178.6C100.802 178.6 101.482 178.693 102.162 178.88C102.842 179.053 103.402 179.287 103.842 179.58L103.222 180.72C102.355 180.12 101.322 179.82 100.122 179.82C99.2149 179.82 98.5282 179.98 98.0615 180.3C97.6082 180.62 97.3815 181.04 97.3815 181.56C97.3815 181.96 97.5082 182.28 97.7615 182.52C98.0282 182.76 98.3549 182.94 98.7415 183.06C99.1282 183.167 99.6615 183.28 100.342 183.4C101.182 183.56 101.855 183.72 102.362 183.88C102.868 184.04 103.302 184.313 103.662 184.7C104.022 185.087 104.202 185.62 104.202 186.3C104.202 187.22 103.815 187.953 103.042 188.5C102.282 189.033 101.222 189.3 99.8615 189.3ZM106.967 189.3C106.673 189.3 106.42 189.193 106.207 188.98C106.007 188.767 105.907 188.507 105.907 188.2C105.907 187.893 106.007 187.64 106.207 187.44C106.42 187.227 106.673 187.12 106.967 187.12C107.26 187.12 107.513 187.227 107.727 187.44C107.94 187.64 108.047 187.893 108.047 188.2C108.047 188.507 107.94 188.767 107.727 188.98C107.513 189.193 107.26 189.3 106.967 189.3ZM111.205 189.3C110.912 189.3 110.658 189.193 110.445 188.98C110.245 188.767 110.145 188.507 110.145 188.2C110.145 187.893 110.245 187.64 110.445 187.44C110.658 187.227 110.912 187.12 111.205 187.12C111.498 187.12 111.752 187.227 111.965 187.44C112.178 187.64 112.285 187.893 112.285 188.2C112.285 188.507 112.178 188.767 111.965 188.98C111.752 189.193 111.498 189.3 111.205 189.3ZM115.443 189.3C115.15 189.3 114.897 189.193 114.683 188.98C114.483 188.767 114.383 188.507 114.383 188.2C114.383 187.893 114.483 187.64 114.683 187.44C114.897 187.227 115.15 187.12 115.443 187.12C115.737 187.12 115.99 187.227 116.203 187.44C116.417 187.64 116.523 187.893 116.523 188.2C116.523 188.507 116.417 188.767 116.203 188.98C115.99 189.193 115.737 189.3 115.443 189.3ZM134.382 175.2V189.2H132.962V178L127.462 187.42H126.762L121.262 178.06V189.2H119.842V175.2H121.062L127.142 185.58L133.162 175.2H134.382ZM142.323 178.6C143.696 178.6 144.75 178.947 145.483 179.64C146.216 180.32 146.583 181.333 146.583 182.68V189.2H145.223V187.56C144.903 188.107 144.43 188.533 143.803 188.84C143.19 189.147 142.456 189.3 141.603 189.3C140.43 189.3 139.496 189.02 138.803 188.46C138.11 187.9 137.763 187.16 137.763 186.24C137.763 185.347 138.083 184.627 138.723 184.08C139.376 183.533 140.41 183.26 141.823 183.26H145.163V182.62C145.163 181.713 144.91 181.027 144.403 180.56C143.896 180.08 143.156 179.84 142.183 179.84C141.516 179.84 140.876 179.953 140.263 180.18C139.65 180.393 139.123 180.693 138.683 181.08L138.043 180.02C138.576 179.567 139.216 179.22 139.963 178.98C140.71 178.727 141.496 178.6 142.323 178.6ZM141.823 188.18C142.623 188.18 143.31 188 143.883 187.64C144.456 187.267 144.883 186.733 145.163 186.04V184.32H141.863C140.063 184.32 139.163 184.947 139.163 186.2C139.163 186.813 139.396 187.3 139.863 187.66C140.33 188.007 140.983 188.18 141.823 188.18ZM160.079 174.36V189.2H158.719V187.12C158.292 187.827 157.726 188.367 157.019 188.74C156.326 189.113 155.539 189.3 154.659 189.3C153.672 189.3 152.779 189.073 151.979 188.62C151.179 188.167 150.552 187.533 150.099 186.72C149.646 185.907 149.419 184.98 149.419 183.94C149.419 182.9 149.646 181.973 150.099 181.16C150.552 180.347 151.179 179.72 151.979 179.28C152.779 178.827 153.672 178.6 154.659 178.6C155.512 178.6 156.279 178.78 156.959 179.14C157.652 179.487 158.219 180 158.659 180.68V174.36H160.079ZM154.779 188.04C155.512 188.04 156.172 187.873 156.759 187.54C157.359 187.193 157.826 186.707 158.159 186.08C158.506 185.453 158.679 184.74 158.679 183.94C158.679 183.14 158.506 182.427 158.159 181.8C157.826 181.173 157.359 180.693 156.759 180.36C156.172 180.013 155.512 179.84 154.779 179.84C154.032 179.84 153.359 180.013 152.759 180.36C152.172 180.693 151.706 181.173 151.359 181.8C151.026 182.427 150.859 183.14 150.859 183.94C150.859 184.74 151.026 185.453 151.359 186.08C151.706 186.707 152.172 187.193 152.759 187.54C153.359 187.873 154.032 188.04 154.779 188.04ZM173.194 184.38H164.394C164.474 185.473 164.894 186.36 165.654 187.04C166.414 187.707 167.374 188.04 168.534 188.04C169.187 188.04 169.787 187.927 170.334 187.7C170.88 187.46 171.354 187.113 171.754 186.66L172.554 187.58C172.087 188.14 171.5 188.567 170.794 188.86C170.1 189.153 169.334 189.3 168.494 189.3C167.414 189.3 166.454 189.073 165.614 188.62C164.787 188.153 164.14 187.513 163.674 186.7C163.207 185.887 162.974 184.967 162.974 183.94C162.974 182.913 163.194 181.993 163.634 181.18C164.087 180.367 164.7 179.733 165.474 179.28C166.26 178.827 167.14 178.6 168.114 178.6C169.087 178.6 169.96 178.827 170.734 179.28C171.507 179.733 172.114 180.367 172.554 181.18C172.994 181.98 173.214 182.9 173.214 183.94L173.194 184.38ZM168.114 179.82C167.1 179.82 166.247 180.147 165.554 180.8C164.874 181.44 164.487 182.28 164.394 183.32H171.854C171.76 182.28 171.367 181.44 170.674 180.8C169.994 180.147 169.14 179.82 168.114 179.82ZM184.158 189.3C183.305 189.3 182.485 189.18 181.698 188.94C180.925 188.687 180.318 188.373 179.878 188L180.518 186.88C180.958 187.227 181.512 187.513 182.178 187.74C182.845 187.953 183.538 188.06 184.258 188.06C185.218 188.06 185.925 187.913 186.378 187.62C186.845 187.313 187.078 186.887 187.078 186.34C187.078 185.953 186.952 185.653 186.698 185.44C186.445 185.213 186.125 185.047 185.738 184.94C185.352 184.82 184.838 184.707 184.198 184.6C183.345 184.44 182.658 184.28 182.138 184.12C181.618 183.947 181.172 183.66 180.798 183.26C180.438 182.86 180.258 182.307 180.258 181.6C180.258 180.72 180.625 180 181.358 179.44C182.092 178.88 183.112 178.6 184.418 178.6C185.098 178.6 185.778 178.693 186.458 178.88C187.138 179.053 187.698 179.287 188.138 179.58L187.518 180.72C186.652 180.12 185.618 179.82 184.418 179.82C183.512 179.82 182.825 179.98 182.358 180.3C181.905 180.62 181.678 181.04 181.678 181.56C181.678 181.96 181.805 182.28 182.058 182.52C182.325 182.76 182.652 182.94 183.038 183.06C183.425 183.167 183.958 183.28 184.638 183.4C185.478 183.56 186.152 183.72 186.658 183.88C187.165 184.04 187.598 184.313 187.958 184.7C188.318 185.087 188.498 185.62 188.498 186.3C188.498 187.22 188.112 187.953 187.338 188.5C186.578 189.033 185.518 189.3 184.158 189.3ZM195.424 189.3C194.41 189.3 193.497 189.073 192.684 188.62C191.87 188.153 191.23 187.513 190.764 186.7C190.297 185.887 190.064 184.967 190.064 183.94C190.064 182.913 190.297 181.993 190.764 181.18C191.23 180.367 191.87 179.733 192.684 179.28C193.497 178.827 194.41 178.6 195.424 178.6C196.437 178.6 197.35 178.827 198.164 179.28C198.977 179.733 199.61 180.367 200.064 181.18C200.53 181.993 200.764 182.913 200.764 183.94C200.764 184.967 200.53 185.887 200.064 186.7C199.61 187.513 198.977 188.153 198.164 188.62C197.35 189.073 196.437 189.3 195.424 189.3ZM195.424 188.04C196.17 188.04 196.837 187.873 197.424 187.54C198.024 187.193 198.49 186.707 198.824 186.08C199.157 185.453 199.324 184.74 199.324 183.94C199.324 183.14 199.157 182.427 198.824 181.8C198.49 181.173 198.024 180.693 197.424 180.36C196.837 180.013 196.17 179.84 195.424 179.84C194.677 179.84 194.004 180.013 193.404 180.36C192.817 180.693 192.35 181.173 192.004 181.8C191.67 182.427 191.504 183.14 191.504 183.94C191.504 184.74 191.67 185.453 192.004 186.08C192.35 186.707 192.817 187.193 193.404 187.54C194.004 187.873 194.677 188.04 195.424 188.04ZM216.783 178.6C218.103 178.6 219.136 178.98 219.883 179.74C220.643 180.5 221.023 181.62 221.023 183.1V189.2H219.603V183.24C219.603 182.147 219.336 181.313 218.803 180.74C218.283 180.167 217.543 179.88 216.583 179.88C215.489 179.88 214.629 180.22 214.003 180.9C213.376 181.567 213.063 182.493 213.063 183.68V189.2H211.643V183.24C211.643 182.147 211.376 181.313 210.843 180.74C210.323 180.167 209.576 179.88 208.603 179.88C207.523 179.88 206.663 180.22 206.023 180.9C205.396 181.567 205.083 182.493 205.083 183.68V189.2H203.663V178.68H205.023V180.6C205.396 179.96 205.916 179.467 206.583 179.12C207.249 178.773 208.016 178.6 208.883 178.6C209.763 178.6 210.523 178.787 211.163 179.16C211.816 179.533 212.303 180.087 212.623 180.82C213.009 180.127 213.563 179.587 214.283 179.2C215.016 178.8 215.849 178.6 216.783 178.6ZM234.073 184.38H225.273C225.353 185.473 225.773 186.36 226.533 187.04C227.293 187.707 228.253 188.04 229.413 188.04C230.066 188.04 230.666 187.927 231.213 187.7C231.759 187.46 232.233 187.113 232.633 186.66L233.433 187.58C232.966 188.14 232.379 188.567 231.673 188.86C230.979 189.153 230.213 189.3 229.373 189.3C228.293 189.3 227.333 189.073 226.493 188.62C225.666 188.153 225.019 187.513 224.553 186.7C224.086 185.887 223.853 184.967 223.853 183.94C223.853 182.913 224.073 181.993 224.513 181.18C224.966 180.367 225.579 179.733 226.353 179.28C227.139 178.827 228.019 178.6 228.993 178.6C229.966 178.6 230.839 178.827 231.613 179.28C232.386 179.733 232.993 180.367 233.433 181.18C233.873 181.98 234.093 182.9 234.093 183.94L234.073 184.38ZM228.993 179.82C227.979 179.82 227.126 180.147 226.433 180.8C225.753 181.44 225.366 182.28 225.273 183.32H232.733C232.639 182.28 232.246 181.44 231.553 180.8C230.873 180.147 230.019 179.82 228.993 179.82ZM247.577 178.6C248.897 178.6 249.944 178.987 250.717 179.76C251.504 180.52 251.897 181.633 251.897 183.1V189.2H250.477V183.24C250.477 182.147 250.204 181.313 249.657 180.74C249.111 180.167 248.331 179.88 247.317 179.88C246.184 179.88 245.284 180.22 244.617 180.9C243.964 181.567 243.637 182.493 243.637 183.68V189.2H242.217V178.68H243.577V180.62C243.964 179.98 244.497 179.487 245.177 179.14C245.871 178.78 246.671 178.6 247.577 178.6ZM264.952 184.38H256.152C256.232 185.473 256.652 186.36 257.412 187.04C258.172 187.707 259.132 188.04 260.292 188.04C260.945 188.04 261.545 187.927 262.092 187.7C262.638 187.46 263.112 187.113 263.512 186.66L264.312 187.58C263.845 188.14 263.258 188.567 262.552 188.86C261.858 189.153 261.092 189.3 260.252 189.3C259.172 189.3 258.212 189.073 257.372 188.62C256.545 188.153 255.898 187.513 255.432 186.7C254.965 185.887 254.732 184.967 254.732 183.94C254.732 182.913 254.952 181.993 255.392 181.18C255.845 180.367 256.458 179.733 257.232 179.28C258.018 178.827 258.898 178.6 259.872 178.6C260.845 178.6 261.718 178.827 262.492 179.28C263.265 179.733 263.872 180.367 264.312 181.18C264.752 181.98 264.972 182.9 264.972 183.94L264.952 184.38ZM259.872 179.82C258.858 179.82 258.005 180.147 257.312 180.8C256.632 181.44 256.245 182.28 256.152 183.32H263.612C263.518 182.28 263.125 181.44 262.432 180.8C261.752 180.147 260.898 179.82 259.872 179.82ZM283.107 178.68L279.127 189.2H277.787L274.467 180.58L271.147 189.2H269.807L265.847 178.68H267.207L270.507 187.62L273.887 178.68H275.107L278.467 187.62L281.807 178.68H283.107ZM60.8256 202.6C62.1456 202.6 63.1789 202.98 63.9256 203.74C64.6856 204.5 65.0656 205.62 65.0656 207.1V213.2H63.6456V207.24C63.6456 206.147 63.3789 205.313 62.8456 204.74C62.3256 204.167 61.5856 203.88 60.6256 203.88C59.5323 203.88 58.6723 204.22 58.0456 204.9C57.4189 205.567 57.1056 206.493 57.1056 207.68V213.2H55.6856V207.24C55.6856 206.147 55.4189 205.313 54.8856 204.74C54.3656 204.167 53.6189 203.88 52.6456 203.88C51.5656 203.88 50.7056 204.22 50.0656 204.9C49.4389 205.567 49.1256 206.493 49.1256 207.68V213.2H47.7056V202.68H49.0656V204.6C49.4389 203.96 49.9589 203.467 50.6256 203.12C51.2923 202.773 52.0589 202.6 52.9256 202.6C53.8056 202.6 54.5656 202.787 55.2056 203.16C55.8589 203.533 56.3456 204.087 56.6656 204.82C57.0523 204.127 57.6056 203.587 58.3256 203.2C59.0589 202.8 59.8923 202.6 60.8256 202.6ZM78.1156 208.38H69.3156C69.3956 209.473 69.8156 210.36 70.5756 211.04C71.3356 211.707 72.2956 212.04 73.4556 212.04C74.1089 212.04 74.7089 211.927 75.2556 211.7C75.8023 211.46 76.2756 211.113 76.6756 210.66L77.4756 211.58C77.0089 212.14 76.4223 212.567 75.7156 212.86C75.0223 213.153 74.2556 213.3 73.4156 213.3C72.3356 213.3 71.3756 213.073 70.5356 212.62C69.7089 212.153 69.0623 211.513 68.5956 210.7C68.1289 209.887 67.8956 208.967 67.8956 207.94C67.8956 206.913 68.1156 205.993 68.5556 205.18C69.0089 204.367 69.6223 203.733 70.3956 203.28C71.1823 202.827 72.0623 202.6 73.0356 202.6C74.0089 202.6 74.8823 202.827 75.6556 203.28C76.4289 203.733 77.0356 204.367 77.4756 205.18C77.9156 205.98 78.1356 206.9 78.1356 207.94L78.1156 208.38ZM73.0356 203.82C72.0223 203.82 71.1689 204.147 70.4756 204.8C69.7956 205.44 69.4089 206.28 69.3156 207.32H76.7756C76.6823 206.28 76.2889 205.44 75.5956 204.8C74.9156 204.147 74.0623 203.82 73.0356 203.82ZM94.1459 202.6C95.4659 202.6 96.4992 202.98 97.2459 203.74C98.0059 204.5 98.3859 205.62 98.3859 207.1V213.2H96.9659V207.24C96.9659 206.147 96.6992 205.313 96.1659 204.74C95.6459 204.167 94.9059 203.88 93.9459 203.88C92.8526 203.88 91.9926 204.22 91.3659 204.9C90.7392 205.567 90.4259 206.493 90.4259 207.68V213.2H89.0059V207.24C89.0059 206.147 88.7392 205.313 88.2059 204.74C87.6859 204.167 86.9392 203.88 85.9659 203.88C84.8859 203.88 84.0259 204.22 83.3859 204.9C82.7592 205.567 82.4459 206.493 82.4459 207.68V213.2H81.0259V202.68H82.3859V204.6C82.7592 203.96 83.2792 203.467 83.9459 203.12C84.6126 202.773 85.3792 202.6 86.2459 202.6C87.1259 202.6 87.8859 202.787 88.5259 203.16C89.1792 203.533 89.6659 204.087 89.9859 204.82C90.3726 204.127 90.9259 203.587 91.6459 203.2C92.3792 202.8 93.2126 202.6 94.1459 202.6ZM106.576 213.3C105.563 213.3 104.649 213.073 103.836 212.62C103.023 212.153 102.383 211.513 101.916 210.7C101.449 209.887 101.216 208.967 101.216 207.94C101.216 206.913 101.449 205.993 101.916 205.18C102.383 204.367 103.023 203.733 103.836 203.28C104.649 202.827 105.563 202.6 106.576 202.6C107.589 202.6 108.503 202.827 109.316 203.28C110.129 203.733 110.763 204.367 111.216 205.18C111.683 205.993 111.916 206.913 111.916 207.94C111.916 208.967 111.683 209.887 111.216 210.7C110.763 211.513 110.129 212.153 109.316 212.62C108.503 213.073 107.589 213.3 106.576 213.3ZM106.576 212.04C107.323 212.04 107.989 211.873 108.576 211.54C109.176 211.193 109.643 210.707 109.976 210.08C110.309 209.453 110.476 208.74 110.476 207.94C110.476 207.14 110.309 206.427 109.976 205.8C109.643 205.173 109.176 204.693 108.576 204.36C107.989 204.013 107.323 203.84 106.576 203.84C105.829 203.84 105.156 204.013 104.556 204.36C103.969 204.693 103.503 205.173 103.156 205.8C102.823 206.427 102.656 207.14 102.656 207.94C102.656 208.74 102.823 209.453 103.156 210.08C103.503 210.707 103.969 211.193 104.556 211.54C105.156 211.873 105.829 212.04 106.576 212.04ZM116.175 204.74C116.508 204.033 117.002 203.5 117.655 203.14C118.322 202.78 119.142 202.6 120.115 202.6V203.98L119.775 203.96C118.668 203.96 117.802 204.3 117.175 204.98C116.548 205.66 116.235 206.613 116.235 207.84V213.2H114.815V202.68H116.175V204.74ZM122.686 202.68H124.106V213.2H122.686V202.68ZM123.406 200.38C123.113 200.38 122.866 200.28 122.666 200.08C122.466 199.88 122.366 199.64 122.366 199.36C122.366 199.093 122.466 198.86 122.666 198.66C122.866 198.46 123.113 198.36 123.406 198.36C123.699 198.36 123.946 198.46 124.146 198.66C124.346 198.847 124.446 199.073 124.446 199.34C124.446 199.633 124.346 199.88 124.146 200.08C123.946 200.28 123.699 200.38 123.406 200.38ZM137.217 208.38H128.417C128.497 209.473 128.917 210.36 129.677 211.04C130.437 211.707 131.397 212.04 132.557 212.04C133.21 212.04 133.81 211.927 134.357 211.7C134.904 211.46 135.377 211.113 135.777 210.66L136.577 211.58C136.11 212.14 135.524 212.567 134.817 212.86C134.124 213.153 133.357 213.3 132.517 213.3C131.437 213.3 130.477 213.073 129.637 212.62C128.81 212.153 128.164 211.513 127.697 210.7C127.23 209.887 126.997 208.967 126.997 207.94C126.997 206.913 127.217 205.993 127.657 205.18C128.11 204.367 128.724 203.733 129.497 203.28C130.284 202.827 131.164 202.6 132.137 202.6C133.11 202.6 133.984 202.827 134.757 203.28C135.53 203.733 136.137 204.367 136.577 205.18C137.017 205.98 137.237 206.9 137.237 207.94L137.217 208.38ZM132.137 203.82C131.124 203.82 130.27 204.147 129.577 204.8C128.897 205.44 128.51 206.28 128.417 207.32H135.877C135.784 206.28 135.39 205.44 134.697 204.8C134.017 204.147 133.164 203.82 132.137 203.82ZM142.947 213.3C142.094 213.3 141.274 213.18 140.487 212.94C139.714 212.687 139.107 212.373 138.667 212L139.307 210.88C139.747 211.227 140.301 211.513 140.967 211.74C141.634 211.953 142.327 212.06 143.047 212.06C144.007 212.06 144.714 211.913 145.167 211.62C145.634 211.313 145.867 210.887 145.867 210.34C145.867 209.953 145.741 209.653 145.487 209.44C145.234 209.213 144.914 209.047 144.527 208.94C144.141 208.82 143.627 208.707 142.987 208.6C142.134 208.44 141.447 208.28 140.927 208.12C140.407 207.947 139.961 207.66 139.587 207.26C139.227 206.86 139.047 206.307 139.047 205.6C139.047 204.72 139.414 204 140.147 203.44C140.881 202.88 141.901 202.6 143.207 202.6C143.887 202.6 144.567 202.693 145.247 202.88C145.927 203.053 146.487 203.287 146.927 203.58L146.307 204.72C145.441 204.12 144.407 203.82 143.207 203.82C142.301 203.82 141.614 203.98 141.147 204.3C140.694 204.62 140.467 205.04 140.467 205.56C140.467 205.96 140.594 206.28 140.847 206.52C141.114 206.76 141.441 206.94 141.827 207.06C142.214 207.167 142.747 207.28 143.427 207.4C144.267 207.56 144.941 207.72 145.447 207.88C145.954 208.04 146.387 208.313 146.747 208.7C147.107 209.087 147.287 209.62 147.287 210.3C147.287 211.22 146.901 211.953 146.127 212.5C145.367 213.033 144.307 213.3 142.947 213.3ZM158.827 202.6C160.2 202.6 161.254 202.947 161.987 203.64C162.72 204.32 163.087 205.333 163.087 206.68V213.2H161.727V211.56C161.407 212.107 160.934 212.533 160.307 212.84C159.694 213.147 158.96 213.3 158.107 213.3C156.934 213.3 156 213.02 155.307 212.46C154.614 211.9 154.267 211.16 154.267 210.24C154.267 209.347 154.587 208.627 155.227 208.08C155.88 207.533 156.914 207.26 158.327 207.26H161.667V206.62C161.667 205.713 161.414 205.027 160.907 204.56C160.4 204.08 159.66 203.84 158.687 203.84C158.02 203.84 157.38 203.953 156.767 204.18C156.154 204.393 155.627 204.693 155.187 205.08L154.547 204.02C155.08 203.567 155.72 203.22 156.467 202.98C157.214 202.727 158 202.6 158.827 202.6ZM158.327 212.18C159.127 212.18 159.814 212 160.387 211.64C160.96 211.267 161.387 210.733 161.667 210.04V208.32H158.367C156.567 208.32 155.667 208.947 155.667 210.2C155.667 210.813 155.9 211.3 156.367 211.66C156.834 212.007 157.487 212.18 158.327 212.18ZM171.343 213.3C170.303 213.3 169.37 213.073 168.543 212.62C167.73 212.167 167.09 211.533 166.623 210.72C166.156 209.893 165.923 208.967 165.923 207.94C165.923 206.913 166.156 205.993 166.623 205.18C167.09 204.367 167.73 203.733 168.543 203.28C169.37 202.827 170.303 202.6 171.343 202.6C172.25 202.6 173.056 202.78 173.763 203.14C174.483 203.487 175.05 204 175.463 204.68L174.403 205.4C174.056 204.88 173.616 204.493 173.083 204.24C172.55 203.973 171.97 203.84 171.343 203.84C170.583 203.84 169.896 204.013 169.283 204.36C168.683 204.693 168.21 205.173 167.863 205.8C167.53 206.427 167.363 207.14 167.363 207.94C167.363 208.753 167.53 209.473 167.863 210.1C168.21 210.713 168.683 211.193 169.283 211.54C169.896 211.873 170.583 212.04 171.343 212.04C171.97 212.04 172.55 211.913 173.083 211.66C173.616 211.407 174.056 211.02 174.403 210.5L175.463 211.22C175.05 211.9 174.483 212.42 173.763 212.78C173.043 213.127 172.236 213.3 171.343 213.3ZM182.437 213.3C181.397 213.3 180.463 213.073 179.637 212.62C178.823 212.167 178.183 211.533 177.717 210.72C177.25 209.893 177.017 208.967 177.017 207.94C177.017 206.913 177.25 205.993 177.717 205.18C178.183 204.367 178.823 203.733 179.637 203.28C180.463 202.827 181.397 202.6 182.437 202.6C183.343 202.6 184.15 202.78 184.857 203.14C185.577 203.487 186.143 204 186.557 204.68L185.497 205.4C185.15 204.88 184.71 204.493 184.177 204.24C183.643 203.973 183.063 203.84 182.437 203.84C181.677 203.84 180.99 204.013 180.377 204.36C179.777 204.693 179.303 205.173 178.957 205.8C178.623 206.427 178.457 207.14 178.457 207.94C178.457 208.753 178.623 209.473 178.957 210.1C179.303 210.713 179.777 211.193 180.377 211.54C180.99 211.873 181.677 212.04 182.437 212.04C183.063 212.04 183.643 211.913 184.177 211.66C184.71 211.407 185.15 211.02 185.497 210.5L186.557 211.22C186.143 211.9 185.577 212.42 184.857 212.78C184.137 213.127 183.33 213.3 182.437 213.3ZM193.47 213.3C192.457 213.3 191.544 213.073 190.73 212.62C189.917 212.153 189.277 211.513 188.81 210.7C188.344 209.887 188.11 208.967 188.11 207.94C188.11 206.913 188.344 205.993 188.81 205.18C189.277 204.367 189.917 203.733 190.73 203.28C191.544 202.827 192.457 202.6 193.47 202.6C194.484 202.6 195.397 202.827 196.21 203.28C197.024 203.733 197.657 204.367 198.11 205.18C198.577 205.993 198.81 206.913 198.81 207.94C198.81 208.967 198.577 209.887 198.11 210.7C197.657 211.513 197.024 212.153 196.21 212.62C195.397 213.073 194.484 213.3 193.47 213.3ZM193.47 212.04C194.217 212.04 194.884 211.873 195.47 211.54C196.07 211.193 196.537 210.707 196.87 210.08C197.204 209.453 197.37 208.74 197.37 207.94C197.37 207.14 197.204 206.427 196.87 205.8C196.537 205.173 196.07 204.693 195.47 204.36C194.884 204.013 194.217 203.84 193.47 203.84C192.724 203.84 192.05 204.013 191.45 204.36C190.864 204.693 190.397 205.173 190.05 205.8C189.717 206.427 189.55 207.14 189.55 207.94C189.55 208.74 189.717 209.453 190.05 210.08C190.397 210.707 190.864 211.193 191.45 211.54C192.05 211.873 192.724 212.04 193.47 212.04ZM214.829 202.6C216.149 202.6 217.183 202.98 217.929 203.74C218.689 204.5 219.069 205.62 219.069 207.1V213.2H217.649V207.24C217.649 206.147 217.383 205.313 216.849 204.74C216.329 204.167 215.589 203.88 214.629 203.88C213.536 203.88 212.676 204.22 212.049 204.9C211.423 205.567 211.109 206.493 211.109 207.68V213.2H209.689V207.24C209.689 206.147 209.423 205.313 208.889 204.74C208.369 204.167 207.623 203.88 206.649 203.88C205.569 203.88 204.709 204.22 204.069 204.9C203.443 205.567 203.129 206.493 203.129 207.68V213.2H201.709V202.68H203.069V204.6C203.443 203.96 203.963 203.467 204.629 203.12C205.296 202.773 206.063 202.6 206.929 202.6C207.809 202.6 208.569 202.787 209.209 203.16C209.863 203.533 210.349 204.087 210.669 204.82C211.056 204.127 211.609 203.587 212.329 203.2C213.063 202.8 213.896 202.6 214.829 202.6ZM228.34 202.6C229.327 202.6 230.22 202.827 231.02 203.28C231.82 203.72 232.447 204.347 232.9 205.16C233.354 205.973 233.58 206.9 233.58 207.94C233.58 208.993 233.354 209.927 232.9 210.74C232.447 211.553 231.82 212.187 231.02 212.64C230.234 213.08 229.34 213.3 228.34 213.3C227.487 213.3 226.714 213.127 226.02 212.78C225.34 212.42 224.78 211.9 224.34 211.22V217.08H222.92V202.68H224.28V204.76C224.707 204.067 225.267 203.533 225.96 203.16C226.667 202.787 227.46 202.6 228.34 202.6ZM228.24 212.04C228.974 212.04 229.64 211.873 230.24 211.54C230.84 211.193 231.307 210.707 231.64 210.08C231.987 209.453 232.16 208.74 232.16 207.94C232.16 207.14 231.987 206.433 231.64 205.82C231.307 205.193 230.84 204.707 230.24 204.36C229.64 204.013 228.974 203.84 228.24 203.84C227.494 203.84 226.82 204.013 226.22 204.36C225.634 204.707 225.167 205.193 224.82 205.82C224.487 206.433 224.32 207.14 224.32 207.94C224.32 208.74 224.487 209.453 224.82 210.08C225.167 210.707 225.634 211.193 226.22 211.54C226.82 211.873 227.494 212.04 228.24 212.04ZM240.097 202.6C241.47 202.6 242.523 202.947 243.257 203.64C243.99 204.32 244.357 205.333 244.357 206.68V213.2H242.997V211.56C242.677 212.107 242.203 212.533 241.577 212.84C240.963 213.147 240.23 213.3 239.377 213.3C238.203 213.3 237.27 213.02 236.577 212.46C235.883 211.9 235.537 211.16 235.537 210.24C235.537 209.347 235.857 208.627 236.497 208.08C237.15 207.533 238.183 207.26 239.597 207.26H242.937V206.62C242.937 205.713 242.683 205.027 242.177 204.56C241.67 204.08 240.93 203.84 239.957 203.84C239.29 203.84 238.65 203.953 238.037 204.18C237.423 204.393 236.897 204.693 236.457 205.08L235.817 204.02C236.35 203.567 236.99 203.22 237.737 202.98C238.483 202.727 239.27 202.6 240.097 202.6ZM239.597 212.18C240.397 212.18 241.083 212 241.657 211.64C242.23 211.267 242.657 210.733 242.937 210.04V208.32H239.637C237.837 208.32 236.937 208.947 236.937 210.2C236.937 210.813 237.17 211.3 237.637 211.66C238.103 212.007 238.757 212.18 239.597 212.18ZM253.573 202.6C254.893 202.6 255.94 202.987 256.713 203.76C257.5 204.52 257.893 205.633 257.893 207.1V213.2H256.473V207.24C256.473 206.147 256.2 205.313 255.653 204.74C255.107 204.167 254.327 203.88 253.313 203.88C252.18 203.88 251.28 204.22 250.613 204.9C249.96 205.567 249.633 206.493 249.633 207.68V213.2H248.213V202.68H249.573V204.62C249.96 203.98 250.493 203.487 251.173 203.14C251.867 202.78 252.667 202.6 253.573 202.6ZM261.749 202.68H263.169V213.2H261.749V202.68ZM262.469 200.38C262.175 200.38 261.929 200.28 261.729 200.08C261.529 199.88 261.429 199.64 261.429 199.36C261.429 199.093 261.529 198.86 261.729 198.66C261.929 198.46 262.175 198.36 262.469 198.36C262.762 198.36 263.009 198.46 263.209 198.66C263.409 198.847 263.509 199.073 263.509 199.34C263.509 199.633 263.409 199.88 263.209 200.08C263.009 200.28 262.762 200.38 262.469 200.38ZM276.28 208.38H267.48C267.56 209.473 267.98 210.36 268.74 211.04C269.5 211.707 270.46 212.04 271.62 212.04C272.273 212.04 272.873 211.927 273.42 211.7C273.966 211.46 274.44 211.113 274.84 210.66L275.64 211.58C275.173 212.14 274.586 212.567 273.88 212.86C273.186 213.153 272.42 213.3 271.58 213.3C270.5 213.3 269.54 213.073 268.7 212.62C267.873 212.153 267.226 211.513 266.76 210.7C266.293 209.887 266.06 208.967 266.06 207.94C266.06 206.913 266.28 205.993 266.72 205.18C267.173 204.367 267.786 203.733 268.56 203.28C269.346 202.827 270.226 202.6 271.2 202.6C272.173 202.6 273.046 202.827 273.82 203.28C274.593 203.733 275.2 204.367 275.64 205.18C276.08 205.98 276.3 206.9 276.3 207.94L276.28 208.38ZM271.2 203.82C270.186 203.82 269.333 204.147 268.64 204.8C267.96 205.44 267.573 206.28 267.48 207.32H274.94C274.846 206.28 274.453 205.44 273.76 204.8C273.08 204.147 272.226 203.82 271.2 203.82ZM288.79 198.36V213.2H287.43V211.12C287.003 211.827 286.437 212.367 285.73 212.74C285.037 213.113 284.25 213.3 283.37 213.3C282.383 213.3 281.49 213.073 280.69 212.62C279.89 212.167 279.263 211.533 278.81 210.72C278.357 209.907 278.13 208.98 278.13 207.94C278.13 206.9 278.357 205.973 278.81 205.16C279.263 204.347 279.89 203.72 280.69 203.28C281.49 202.827 282.383 202.6 283.37 202.6C284.223 202.6 284.99 202.78 285.67 203.14C286.363 203.487 286.93 204 287.37 204.68V198.36H288.79ZM283.49 212.04C284.223 212.04 284.883 211.873 285.47 211.54C286.07 211.193 286.537 210.707 286.87 210.08C287.217 209.453 287.39 208.74 287.39 207.94C287.39 207.14 287.217 206.427 286.87 205.8C286.537 205.173 286.07 204.693 285.47 204.36C284.883 204.013 284.223 203.84 283.49 203.84C282.743 203.84 282.07 204.013 281.47 204.36C280.883 204.693 280.417 205.173 280.07 205.8C279.737 206.427 279.57 207.14 279.57 207.94C279.57 208.74 279.737 209.453 280.07 210.08C280.417 210.707 280.883 211.193 281.47 211.54C282.07 211.873 282.743 212.04 283.49 212.04ZM84.9718 226.68L80.9918 237.2H79.6518L76.3318 228.58L73.0118 237.2H71.6718L67.7118 226.68H69.0718L72.3718 235.62L75.7518 226.68H76.9718L80.3318 235.62L83.6718 226.68H84.9718ZM87.1099 226.68H88.5299V237.2H87.1099V226.68ZM87.8299 224.38C87.5365 224.38 87.2899 224.28 87.0899 224.08C86.8899 223.88 86.7899 223.64 86.7899 223.36C86.7899 223.093 86.8899 222.86 87.0899 222.66C87.2899 222.46 87.5365 222.36 87.8299 222.36C88.1232 222.36 88.3699 222.46 88.5699 222.66C88.7699 222.847 88.8699 223.073 88.8699 223.34C88.8699 223.633 88.7699 223.88 88.5699 224.08C88.3699 224.28 88.1232 224.38 87.8299 224.38ZM98.021 236.56C97.7543 236.8 97.421 236.987 97.021 237.12C96.6343 237.24 96.2276 237.3 95.801 237.3C94.8143 237.3 94.0543 237.033 93.521 236.5C92.9876 235.967 92.721 235.213 92.721 234.24V227.88H90.841V226.68H92.721V224.38H94.141V226.68H97.341V227.88H94.141V234.16C94.141 234.787 94.2943 235.267 94.601 235.6C94.921 235.92 95.3743 236.08 95.961 236.08C96.2543 236.08 96.5343 236.033 96.801 235.94C97.081 235.847 97.321 235.713 97.521 235.54L98.021 236.56ZM105.966 226.6C107.286 226.6 108.333 226.987 109.106 227.76C109.893 228.52 110.286 229.633 110.286 231.1V237.2H108.866V231.24C108.866 230.147 108.593 229.313 108.046 228.74C107.499 228.167 106.719 227.88 105.706 227.88C104.573 227.88 103.673 228.22 103.006 228.9C102.353 229.567 102.026 230.493 102.026 231.68V237.2H100.606V222.36H102.026V228.52C102.413 227.907 102.946 227.433 103.626 227.1C104.306 226.767 105.086 226.6 105.966 226.6ZM119.376 226.68H120.796V237.2H119.376V226.68ZM120.096 224.38C119.802 224.38 119.556 224.28 119.356 224.08C119.156 223.88 119.056 223.64 119.056 223.36C119.056 223.093 119.156 222.86 119.356 222.66C119.556 222.46 119.802 222.36 120.096 222.36C120.389 222.36 120.636 222.46 120.836 222.66C121.036 222.847 121.136 223.073 121.136 223.34C121.136 223.633 121.036 223.88 120.836 224.08C120.636 224.28 120.389 224.38 120.096 224.38ZM129.107 237.3C128.067 237.3 127.133 237.073 126.307 236.62C125.493 236.167 124.853 235.533 124.387 234.72C123.92 233.893 123.687 232.967 123.687 231.94C123.687 230.913 123.92 229.993 124.387 229.18C124.853 228.367 125.493 227.733 126.307 227.28C127.133 226.827 128.067 226.6 129.107 226.6C130.013 226.6 130.82 226.78 131.527 227.14C132.247 227.487 132.813 228 133.227 228.68L132.167 229.4C131.82 228.88 131.38 228.493 130.847 228.24C130.313 227.973 129.733 227.84 129.107 227.84C128.347 227.84 127.66 228.013 127.047 228.36C126.447 228.693 125.973 229.173 125.627 229.8C125.293 230.427 125.127 231.14 125.127 231.94C125.127 232.753 125.293 233.473 125.627 234.1C125.973 234.713 126.447 235.193 127.047 235.54C127.66 235.873 128.347 236.04 129.107 236.04C129.733 236.04 130.313 235.913 130.847 235.66C131.38 235.407 131.82 235.02 132.167 234.5L133.227 235.22C132.813 235.9 132.247 236.42 131.527 236.78C130.807 237.127 130 237.3 129.107 237.3ZM145 232.38H136.2C136.28 233.473 136.7 234.36 137.46 235.04C138.22 235.707 139.18 236.04 140.34 236.04C140.994 236.04 141.594 235.927 142.14 235.7C142.687 235.46 143.16 235.113 143.56 234.66L144.36 235.58C143.894 236.14 143.307 236.567 142.6 236.86C141.907 237.153 141.14 237.3 140.3 237.3C139.22 237.3 138.26 237.073 137.42 236.62C136.594 236.153 135.947 235.513 135.48 234.7C135.014 233.887 134.78 232.967 134.78 231.94C134.78 230.913 135 229.993 135.44 229.18C135.894 228.367 136.507 227.733 137.28 227.28C138.067 226.827 138.947 226.6 139.92 226.6C140.894 226.6 141.767 226.827 142.54 227.28C143.314 227.733 143.92 228.367 144.36 229.18C144.8 229.98 145.02 230.9 145.02 231.94L145 232.38ZM139.92 227.82C138.907 227.82 138.054 228.147 137.36 228.8C136.68 229.44 136.294 230.28 136.2 231.32H143.66C143.567 230.28 143.174 229.44 142.48 228.8C141.8 228.147 140.947 227.82 139.92 227.82ZM157.505 237.3C156.465 237.3 155.532 237.073 154.705 236.62C153.892 236.167 153.252 235.533 152.785 234.72C152.318 233.893 152.085 232.967 152.085 231.94C152.085 230.913 152.318 229.993 152.785 229.18C153.252 228.367 153.892 227.733 154.705 227.28C155.532 226.827 156.465 226.6 157.505 226.6C158.412 226.6 159.218 226.78 159.925 227.14C160.645 227.487 161.212 228 161.625 228.68L160.565 229.4C160.218 228.88 159.778 228.493 159.245 228.24C158.712 227.973 158.132 227.84 157.505 227.84C156.745 227.84 156.058 228.013 155.445 228.36C154.845 228.693 154.372 229.173 154.025 229.8C153.692 230.427 153.525 231.14 153.525 231.94C153.525 232.753 153.692 233.473 154.025 234.1C154.372 234.713 154.845 235.193 155.445 235.54C156.058 235.873 156.745 236.04 157.505 236.04C158.132 236.04 158.712 235.913 159.245 235.66C159.778 235.407 160.218 235.02 160.565 234.5L161.625 235.22C161.212 235.9 160.645 236.42 159.925 236.78C159.205 237.127 158.398 237.3 157.505 237.3ZM165.775 228.74C166.108 228.033 166.601 227.5 167.255 227.14C167.921 226.78 168.741 226.6 169.715 226.6V227.98L169.375 227.96C168.268 227.96 167.401 228.3 166.775 228.98C166.148 229.66 165.835 230.613 165.835 231.84V237.2H164.415V226.68H165.775V228.74ZM181.348 232.38H172.548C172.628 233.473 173.048 234.36 173.808 235.04C174.568 235.707 175.528 236.04 176.688 236.04C177.341 236.04 177.941 235.927 178.488 235.7C179.035 235.46 179.508 235.113 179.908 234.66L180.708 235.58C180.241 236.14 179.655 236.567 178.948 236.86C178.255 237.153 177.488 237.3 176.648 237.3C175.568 237.3 174.608 237.073 173.768 236.62C172.941 236.153 172.295 235.513 171.828 234.7C171.361 233.887 171.128 232.967 171.128 231.94C171.128 230.913 171.348 229.993 171.788 229.18C172.241 228.367 172.855 227.733 173.628 227.28C174.415 226.827 175.295 226.6 176.268 226.6C177.241 226.6 178.115 226.827 178.888 227.28C179.661 227.733 180.268 228.367 180.708 229.18C181.148 229.98 181.368 230.9 181.368 231.94L181.348 232.38ZM176.268 227.82C175.255 227.82 174.401 228.147 173.708 228.8C173.028 229.44 172.641 230.28 172.548 231.32H180.008C179.915 230.28 179.521 229.44 178.828 228.8C178.148 228.147 177.295 227.82 176.268 227.82ZM187.645 226.6C189.019 226.6 190.072 226.947 190.805 227.64C191.539 228.32 191.905 229.333 191.905 230.68V237.2H190.545V235.56C190.225 236.107 189.752 236.533 189.125 236.84C188.512 237.147 187.779 237.3 186.925 237.3C185.752 237.3 184.819 237.02 184.125 236.46C183.432 235.9 183.085 235.16 183.085 234.24C183.085 233.347 183.405 232.627 184.045 232.08C184.699 231.533 185.732 231.26 187.145 231.26H190.485V230.62C190.485 229.713 190.232 229.027 189.725 228.56C189.219 228.08 188.479 227.84 187.505 227.84C186.839 227.84 186.199 227.953 185.585 228.18C184.972 228.393 184.445 228.693 184.005 229.08L183.365 228.02C183.899 227.567 184.539 227.22 185.285 226.98C186.032 226.727 186.819 226.6 187.645 226.6ZM187.145 236.18C187.945 236.18 188.632 236 189.205 235.64C189.779 235.267 190.205 234.733 190.485 234.04V232.32H187.185C185.385 232.32 184.485 232.947 184.485 234.2C184.485 234.813 184.719 235.3 185.185 235.66C185.652 236.007 186.305 236.18 187.145 236.18ZM208.882 226.6C210.202 226.6 211.236 226.98 211.982 227.74C212.742 228.5 213.122 229.62 213.122 231.1V237.2H211.702V231.24C211.702 230.147 211.436 229.313 210.902 228.74C210.382 228.167 209.642 227.88 208.682 227.88C207.589 227.88 206.729 228.22 206.102 228.9C205.476 229.567 205.162 230.493 205.162 231.68V237.2H203.742V231.24C203.742 230.147 203.476 229.313 202.942 228.74C202.422 228.167 201.676 227.88 200.702 227.88C199.622 227.88 198.762 228.22 198.122 228.9C197.496 229.567 197.182 230.493 197.182 231.68V237.2H195.762V226.68H197.122V228.6C197.496 227.96 198.016 227.467 198.682 227.12C199.349 226.773 200.116 226.6 200.982 226.6C201.862 226.6 202.622 226.787 203.262 227.16C203.916 227.533 204.402 228.087 204.722 228.82C205.109 228.127 205.662 227.587 206.382 227.2C207.116 226.8 207.949 226.6 208.882 226.6ZM219.793 237.3C218.94 237.3 218.12 237.18 217.333 236.94C216.56 236.687 215.953 236.373 215.513 236L216.153 234.88C216.593 235.227 217.146 235.513 217.813 235.74C218.48 235.953 219.173 236.06 219.893 236.06C220.853 236.06 221.56 235.913 222.013 235.62C222.48 235.313 222.713 234.887 222.713 234.34C222.713 233.953 222.586 233.653 222.333 233.44C222.08 233.213 221.76 233.047 221.373 232.94C220.986 232.82 220.473 232.707 219.833 232.6C218.98 232.44 218.293 232.28 217.773 232.12C217.253 231.947 216.806 231.66 216.433 231.26C216.073 230.86 215.893 230.307 215.893 229.6C215.893 228.72 216.26 228 216.993 227.44C217.726 226.88 218.746 226.6 220.053 226.6C220.733 226.6 221.413 226.693 222.093 226.88C222.773 227.053 223.333 227.287 223.773 227.58L223.153 228.72C222.286 228.12 221.253 227.82 220.053 227.82C219.146 227.82 218.46 227.98 217.993 228.3C217.54 228.62 217.313 229.04 217.313 229.56C217.313 229.96 217.44 230.28 217.693 230.52C217.96 230.76 218.286 230.94 218.673 231.06C219.06 231.167 219.593 231.28 220.273 231.4C221.113 231.56 221.786 231.72 222.293 231.88C222.8 232.04 223.233 232.313 223.593 232.7C223.953 233.087 224.133 233.62 224.133 234.3C224.133 235.22 223.746 235.953 222.973 236.5C222.213 237.033 221.153 237.3 219.793 237.3ZM235.673 226.6C237.046 226.6 238.099 226.947 238.833 227.64C239.566 228.32 239.933 229.333 239.933 230.68V237.2H238.573V235.56C238.253 236.107 237.779 236.533 237.153 236.84C236.539 237.147 235.806 237.3 234.953 237.3C233.779 237.3 232.846 237.02 232.153 236.46C231.459 235.9 231.113 235.16 231.113 234.24C231.113 233.347 231.433 232.627 232.073 232.08C232.726 231.533 233.759 231.26 235.173 231.26H238.513V230.62C238.513 229.713 238.259 229.027 237.753 228.56C237.246 228.08 236.506 227.84 235.533 227.84C234.866 227.84 234.226 227.953 233.613 228.18C232.999 228.393 232.473 228.693 232.033 229.08L231.393 228.02C231.926 227.567 232.566 227.22 233.313 226.98C234.059 226.727 234.846 226.6 235.673 226.6ZM235.173 236.18C235.973 236.18 236.659 236 237.233 235.64C237.806 235.267 238.233 234.733 238.513 234.04V232.32H235.213C233.413 232.32 232.513 232.947 232.513 234.2C232.513 234.813 232.746 235.3 233.213 235.66C233.679 236.007 234.333 236.18 235.173 236.18ZM249.15 226.6C250.47 226.6 251.516 226.987 252.29 227.76C253.076 228.52 253.47 229.633 253.47 231.1V237.2H252.05V231.24C252.05 230.147 251.776 229.313 251.23 228.74C250.683 228.167 249.903 227.88 248.89 227.88C247.756 227.88 246.856 228.22 246.19 228.9C245.536 229.567 245.21 230.493 245.21 231.68V237.2H243.79V226.68H245.15V228.62C245.536 227.98 246.07 227.487 246.75 227.14C247.443 226.78 248.243 226.6 249.15 226.6ZM266.964 222.36V237.2H265.604V235.12C265.177 235.827 264.61 236.367 263.904 236.74C263.21 237.113 262.424 237.3 261.544 237.3C260.557 237.3 259.664 237.073 258.864 236.62C258.064 236.167 257.437 235.533 256.984 234.72C256.53 233.907 256.304 232.98 256.304 231.94C256.304 230.9 256.53 229.973 256.984 229.16C257.437 228.347 258.064 227.72 258.864 227.28C259.664 226.827 260.557 226.6 261.544 226.6C262.397 226.6 263.164 226.78 263.844 227.14C264.537 227.487 265.104 228 265.544 228.68V222.36H266.964ZM261.664 236.04C262.397 236.04 263.057 235.873 263.644 235.54C264.244 235.193 264.71 234.707 265.044 234.08C265.39 233.453 265.564 232.74 265.564 231.94C265.564 231.14 265.39 230.427 265.044 229.8C264.71 229.173 264.244 228.693 263.644 228.36C263.057 228.013 262.397 227.84 261.664 227.84C260.917 227.84 260.244 228.013 259.644 228.36C259.057 228.693 258.59 229.173 258.244 229.8C257.91 230.427 257.744 231.14 257.744 231.94C257.744 232.74 257.91 233.453 258.244 234.08C258.59 234.707 259.057 235.193 259.644 235.54C260.244 235.873 260.917 236.04 261.664 236.04ZM116.566 260.56C116.299 260.8 115.966 260.987 115.566 261.12C115.179 261.24 114.773 261.3 114.346 261.3C113.359 261.3 112.599 261.033 112.066 260.5C111.533 259.967 111.266 259.213 111.266 258.24V251.88H109.386V250.68H111.266V248.38H112.686V250.68H115.886V251.88H112.686V258.16C112.686 258.787 112.839 259.267 113.146 259.6C113.466 259.92 113.919 260.08 114.506 260.08C114.799 260.08 115.079 260.033 115.346 259.94C115.626 259.847 115.866 259.713 116.066 259.54L116.566 260.56ZM124.511 250.6C125.831 250.6 126.878 250.987 127.651 251.76C128.438 252.52 128.831 253.633 128.831 255.1V261.2H127.411V255.24C127.411 254.147 127.138 253.313 126.591 252.74C126.044 252.167 125.264 251.88 124.251 251.88C123.118 251.88 122.218 252.22 121.551 252.9C120.898 253.567 120.571 254.493 120.571 255.68V261.2H119.151V246.36H120.571V252.52C120.958 251.907 121.491 251.433 122.171 251.1C122.851 250.767 123.631 250.6 124.511 250.6ZM132.686 250.68H134.106V261.2H132.686V250.68ZM133.406 248.38C133.113 248.38 132.866 248.28 132.666 248.08C132.466 247.88 132.366 247.64 132.366 247.36C132.366 247.093 132.466 246.86 132.666 246.66C132.866 246.46 133.113 246.36 133.406 246.36C133.699 246.36 133.946 246.46 134.146 246.66C134.346 246.847 134.446 247.073 134.446 247.34C134.446 247.633 134.346 247.88 134.146 248.08C133.946 248.28 133.699 248.38 133.406 248.38ZM142.417 261.3C141.377 261.3 140.444 261.073 139.617 260.62C138.804 260.167 138.164 259.533 137.697 258.72C137.23 257.893 136.997 256.967 136.997 255.94C136.997 254.913 137.23 253.993 137.697 253.18C138.164 252.367 138.804 251.733 139.617 251.28C140.444 250.827 141.377 250.6 142.417 250.6C143.324 250.6 144.13 250.78 144.837 251.14C145.557 251.487 146.124 252 146.537 252.68L145.477 253.4C145.13 252.88 144.69 252.493 144.157 252.24C143.624 251.973 143.044 251.84 142.417 251.84C141.657 251.84 140.97 252.013 140.357 252.36C139.757 252.693 139.284 253.173 138.937 253.8C138.604 254.427 138.437 255.14 138.437 255.94C138.437 256.753 138.604 257.473 138.937 258.1C139.284 258.713 139.757 259.193 140.357 259.54C140.97 259.873 141.657 260.04 142.417 260.04C143.044 260.04 143.624 259.913 144.157 259.66C144.69 259.407 145.13 259.02 145.477 258.5L146.537 259.22C146.124 259.9 145.557 260.42 144.837 260.78C144.117 261.127 143.31 261.3 142.417 261.3ZM153.07 255.92L150.59 258.2V261.2H149.17V246.36H150.59V256.42L156.87 250.68H158.63L154.13 254.98L159.05 261.2H157.31L153.07 255.92ZM163.69 261.3C162.836 261.3 162.016 261.18 161.23 260.94C160.456 260.687 159.85 260.373 159.41 260L160.05 258.88C160.49 259.227 161.043 259.513 161.71 259.74C162.376 259.953 163.07 260.06 163.79 260.06C164.75 260.06 165.456 259.913 165.91 259.62C166.376 259.313 166.61 258.887 166.61 258.34C166.61 257.953 166.483 257.653 166.23 257.44C165.976 257.213 165.656 257.047 165.27 256.94C164.883 256.82 164.37 256.707 163.73 256.6C162.876 256.44 162.19 256.28 161.67 256.12C161.15 255.947 160.703 255.66 160.33 255.26C159.97 254.86 159.79 254.307 159.79 253.6C159.79 252.72 160.156 252 160.89 251.44C161.623 250.88 162.643 250.6 163.95 250.6C164.63 250.6 165.31 250.693 165.99 250.88C166.67 251.053 167.23 251.287 167.67 251.58L167.05 252.72C166.183 252.12 165.15 251.82 163.95 251.82C163.043 251.82 162.356 251.98 161.89 252.3C161.436 252.62 161.21 253.04 161.21 253.56C161.21 253.96 161.336 254.28 161.59 254.52C161.856 254.76 162.183 254.94 162.57 255.06C162.956 255.167 163.49 255.28 164.17 255.4C165.01 255.56 165.683 255.72 166.19 255.88C166.696 256.04 167.13 256.313 167.49 256.7C167.85 257.087 168.03 257.62 168.03 258.3C168.03 259.22 167.643 259.953 166.87 260.5C166.11 261.033 165.05 261.3 163.69 261.3ZM176.015 250.6C177.335 250.6 178.381 250.987 179.155 251.76C179.941 252.52 180.335 253.633 180.335 255.1V261.2H178.915V255.24C178.915 254.147 178.641 253.313 178.095 252.74C177.548 252.167 176.768 251.88 175.755 251.88C174.621 251.88 173.721 252.22 173.055 252.9C172.401 253.567 172.075 254.493 172.075 255.68V261.2H170.655V246.36H172.075V252.52C172.461 251.907 172.995 251.433 173.675 251.1C174.355 250.767 175.135 250.6 176.015 250.6ZM187.87 250.6C189.243 250.6 190.297 250.947 191.03 251.64C191.763 252.32 192.13 253.333 192.13 254.68V261.2H190.77V259.56C190.45 260.107 189.977 260.533 189.35 260.84C188.737 261.147 188.003 261.3 187.15 261.3C185.977 261.3 185.043 261.02 184.35 260.46C183.657 259.9 183.31 259.16 183.31 258.24C183.31 257.347 183.63 256.627 184.27 256.08C184.923 255.533 185.957 255.26 187.37 255.26H190.71V254.62C190.71 253.713 190.457 253.027 189.95 252.56C189.443 252.08 188.703 251.84 187.73 251.84C187.063 251.84 186.423 251.953 185.81 252.18C185.197 252.393 184.67 252.693 184.23 253.08L183.59 252.02C184.123 251.567 184.763 251.22 185.51 250.98C186.257 250.727 187.043 250.6 187.87 250.6ZM187.37 260.18C188.17 260.18 188.857 260 189.43 259.64C190.003 259.267 190.43 258.733 190.71 258.04V256.32H187.41C185.61 256.32 184.71 256.947 184.71 258.2C184.71 258.813 184.943 259.3 185.41 259.66C185.877 260.007 186.53 260.18 187.37 260.18ZM199.887 255.92L197.407 258.2V261.2H195.987V246.36H197.407V256.42L203.687 250.68H205.447L200.947 254.98L205.867 261.2H204.127L199.887 255.92ZM216.729 256.38H207.929C208.009 257.473 208.429 258.36 209.189 259.04C209.949 259.707 210.909 260.04 212.069 260.04C212.722 260.04 213.322 259.927 213.869 259.7C214.416 259.46 214.889 259.113 215.289 258.66L216.089 259.58C215.622 260.14 215.036 260.567 214.329 260.86C213.636 261.153 212.869 261.3 212.029 261.3C210.949 261.3 209.989 261.073 209.149 260.62C208.322 260.153 207.676 259.513 207.209 258.7C206.742 257.887 206.509 256.967 206.509 255.94C206.509 254.913 206.729 253.993 207.169 253.18C207.622 252.367 208.236 251.733 209.009 251.28C209.796 250.827 210.676 250.6 211.649 250.6C212.622 250.6 213.496 250.827 214.269 251.28C215.042 251.733 215.649 252.367 216.089 253.18C216.529 253.98 216.749 254.9 216.749 255.94L216.729 256.38ZM211.649 251.82C210.636 251.82 209.782 252.147 209.089 252.8C208.409 253.44 208.022 254.28 207.929 255.32H215.389C215.296 254.28 214.902 253.44 214.209 252.8C213.529 252.147 212.676 251.82 211.649 251.82ZM222.459 261.3C221.606 261.3 220.786 261.18 219.999 260.94C219.226 260.687 218.619 260.373 218.179 260L218.819 258.88C219.259 259.227 219.813 259.513 220.479 259.74C221.146 259.953 221.839 260.06 222.559 260.06C223.519 260.06 224.226 259.913 224.679 259.62C225.146 259.313 225.379 258.887 225.379 258.34C225.379 257.953 225.253 257.653 224.999 257.44C224.746 257.213 224.426 257.047 224.039 256.94C223.653 256.82 223.139 256.707 222.499 256.6C221.646 256.44 220.959 256.28 220.439 256.12C219.919 255.947 219.473 255.66 219.099 255.26C218.739 254.86 218.559 254.307 218.559 253.6C218.559 252.72 218.926 252 219.659 251.44C220.393 250.88 221.413 250.6 222.719 250.6C223.399 250.6 224.079 250.693 224.759 250.88C225.439 251.053 225.999 251.287 226.439 251.58L225.819 252.72C224.953 252.12 223.919 251.82 222.719 251.82C221.813 251.82 221.126 251.98 220.659 252.3C220.206 252.62 219.979 253.04 219.979 253.56C219.979 253.96 220.106 254.28 220.359 254.52C220.626 254.76 220.953 254.94 221.339 255.06C221.726 255.167 222.259 255.28 222.939 255.4C223.779 255.56 224.453 255.72 224.959 255.88C225.466 256.04 225.899 256.313 226.259 256.7C226.619 257.087 226.799 257.62 226.799 258.3C226.799 259.22 226.413 259.953 225.639 260.5C224.879 261.033 223.819 261.3 222.459 261.3Z" fill="white"/>
<path d="M126.628 295.18C126.161 295.18 125.748 295.093 125.388 294.92C125.028 294.747 124.701 294.547 124.408 294.32C124.115 294.093 123.841 293.893 123.588 293.72C123.335 293.533 123.075 293.44 122.808 293.44C122.448 293.44 122.155 293.58 121.928 293.86C121.715 294.14 121.595 294.52 121.568 295H119.628C119.655 293.733 119.941 292.78 120.488 292.14C121.048 291.5 121.761 291.18 122.628 291.18C123.095 291.18 123.508 291.273 123.868 291.46C124.228 291.633 124.548 291.833 124.828 292.06C125.121 292.273 125.395 292.473 125.648 292.66C125.901 292.833 126.161 292.92 126.428 292.92C126.801 292.92 127.095 292.78 127.308 292.5C127.535 292.22 127.655 291.84 127.668 291.36H129.628C129.601 292.613 129.308 293.567 128.748 294.22C128.201 294.86 127.495 295.18 126.628 295.18ZM132.261 300.2V286.2H134.941L143.201 296.28H141.901V286.2H145.101V300.2H142.441L134.161 290.12H135.461V300.2H132.261ZM148.193 300.2V289.44H151.313V300.2H148.193ZM149.753 287.94C149.18 287.94 148.713 287.773 148.353 287.44C147.993 287.107 147.813 286.693 147.813 286.2C147.813 285.707 147.993 285.293 148.353 284.96C148.713 284.627 149.18 284.46 149.753 284.46C150.326 284.46 150.793 284.62 151.153 284.94C151.513 285.247 151.693 285.647 151.693 286.14C151.693 286.66 151.513 287.093 151.153 287.44C150.806 287.773 150.34 287.94 149.753 287.94ZM160.749 289.28C161.602 289.28 162.362 289.453 163.029 289.8C163.709 290.133 164.242 290.653 164.629 291.36C165.015 292.053 165.209 292.947 165.209 294.04V300.2H162.089V294.52C162.089 293.653 161.895 293.013 161.509 292.6C161.135 292.187 160.602 291.98 159.909 291.98C159.415 291.98 158.969 292.087 158.569 292.3C158.182 292.5 157.875 292.813 157.649 293.24C157.435 293.667 157.329 294.213 157.329 294.88V300.2H154.209V285.36H157.329V292.42L156.629 291.52C157.015 290.8 157.569 290.247 158.289 289.86C159.009 289.473 159.829 289.28 160.749 289.28ZM174.637 300.2V298.1L174.437 297.64V293.88C174.437 293.213 174.23 292.693 173.817 292.32C173.417 291.947 172.797 291.76 171.957 291.76C171.383 291.76 170.817 291.853 170.257 292.04C169.71 292.213 169.243 292.453 168.857 292.76L167.737 290.58C168.323 290.167 169.03 289.847 169.857 289.62C170.683 289.393 171.523 289.28 172.377 289.28C174.017 289.28 175.29 289.667 176.197 290.44C177.103 291.213 177.557 292.42 177.557 294.06V300.2H174.637ZM171.357 300.36C170.517 300.36 169.797 300.22 169.197 299.94C168.597 299.647 168.137 299.253 167.817 298.76C167.497 298.267 167.337 297.713 167.337 297.1C167.337 296.46 167.49 295.9 167.797 295.42C168.117 294.94 168.617 294.567 169.297 294.3C169.977 294.02 170.863 293.88 171.957 293.88H174.817V295.7H172.297C171.563 295.7 171.057 295.82 170.777 296.06C170.51 296.3 170.377 296.6 170.377 296.96C170.377 297.36 170.53 297.68 170.837 297.92C171.157 298.147 171.59 298.26 172.137 298.26C172.657 298.26 173.123 298.14 173.537 297.9C173.95 297.647 174.25 297.28 174.437 296.8L174.917 298.24C174.69 298.933 174.277 299.46 173.677 299.82C173.077 300.18 172.303 300.36 171.357 300.36ZM180.38 300.2V289.44H183.36V292.48L182.94 291.6C183.26 290.84 183.774 290.267 184.48 289.88C185.187 289.48 186.047 289.28 187.06 289.28V292.16C186.927 292.147 186.807 292.14 186.7 292.14C186.594 292.127 186.48 292.12 186.36 292.12C185.507 292.12 184.814 292.367 184.28 292.86C183.76 293.34 183.5 294.093 183.5 295.12V300.2H180.38ZM188.935 300.2V289.44H192.055V300.2H188.935ZM190.495 287.94C189.922 287.94 189.455 287.773 189.095 287.44C188.735 287.107 188.555 286.693 188.555 286.2C188.555 285.707 188.735 285.293 189.095 284.96C189.455 284.627 189.922 284.46 190.495 284.46C191.068 284.46 191.535 284.62 191.895 284.94C192.255 285.247 192.435 285.647 192.435 286.14C192.435 286.66 192.255 287.093 191.895 287.44C191.548 287.773 191.082 287.94 190.495 287.94ZM197.531 298L197.611 294.2L202.631 289.44H206.351L201.531 294.34L199.911 295.66L197.531 298ZM194.951 300.2V285.36H198.071V300.2H194.951ZM202.971 300.2L199.331 295.68L201.291 293.26L206.751 300.2H202.971ZM214.559 300.2V298.1L214.359 297.64V293.88C214.359 293.213 214.152 292.693 213.739 292.32C213.339 291.947 212.719 291.76 211.879 291.76C211.305 291.76 210.739 291.853 210.179 292.04C209.632 292.213 209.165 292.453 208.779 292.76L207.659 290.58C208.245 290.167 208.952 289.847 209.779 289.62C210.605 289.393 211.445 289.28 212.299 289.28C213.939 289.28 215.212 289.667 216.119 290.44C217.025 291.213 217.479 292.42 217.479 294.06V300.2H214.559ZM211.279 300.36C210.439 300.36 209.719 300.22 209.119 299.94C208.519 299.647 208.059 299.253 207.739 298.76C207.419 298.267 207.259 297.713 207.259 297.1C207.259 296.46 207.412 295.9 207.719 295.42C208.039 294.94 208.539 294.567 209.219 294.3C209.899 294.02 210.785 293.88 211.879 293.88H214.739V295.7H212.219C211.485 295.7 210.979 295.82 210.699 296.06C210.432 296.3 210.299 296.6 210.299 296.96C210.299 297.36 210.452 297.68 210.759 297.92C211.079 298.147 211.512 298.26 212.059 298.26C212.579 298.26 213.045 298.14 213.459 297.9C213.872 297.647 214.172 297.28 214.359 296.8L214.839 298.24C214.612 298.933 214.199 299.46 213.599 299.82C212.999 300.18 212.225 300.36 211.279 300.36Z" fill="white"/>
</svg>
