<svg width="1280" height="450" viewBox="0 0 1280 450" fill="none" xmlns="http://www.w3.org/2000/svg">
<path d="M371.185 325.242C368.789 324.104 367.627 322.685 366.774 319.971C366.051 317.703 366.044 317.553 366.722 315.487C367.813 311.971 370.538 309.777 374.294 309.347C375.532 309.18 378.192 308.836 380.232 308.557C382.271 308.241 385.004 307.894 386.244 307.763C387.52 307.594 391.638 307.073 395.39 306.567C401.036 305.79 402.534 305.686 403.904 306.002C405.979 306.514 408.648 308.846 409.507 310.881C411.105 314.693 409.277 319.75 405.656 321.569C404.437 322.188 397.635 323.356 397.072 323.041C396.884 322.937 396.192 323.043 395.544 323.297C394.93 323.513 392.676 323.914 390.559 324.121C388.443 324.328 386.257 324.613 385.638 324.716C375.119 326.349 373.583 326.417 371.185 325.242Z" fill="#E4CAAC" fill-opacity="0.3"/>
<path d="M651.147 300.068C647.878 299.774 644.791 299.392 644.265 299.216C643.022 298.712 641.559 296.583 641.498 295.189C641.464 294.433 641.87 293.577 642.679 292.624L643.945 291.132L647.538 291.252C656.28 291.504 660.629 291.99 661.661 292.742C662.236 293.195 662.671 293.814 662.687 294.173C662.665 294.533 662.785 294.727 662.927 294.601C663.536 294.135 663.798 296.716 663.297 297.935C662.087 300.702 661.133 300.863 651.147 300.068Z" fill="#E4CAAC" fill-opacity="0.3"/>
<path d="M124.284 307.177C112.009 301.593 107.849 299.586 107.158 299.023C105.815 297.931 104.867 295.745 104.933 293.885C105.063 290.983 107.702 287.896 109.717 288.252C110.464 288.405 110.573 288.363 110.153 288.084C109.736 287.843 109.915 287.724 110.987 287.676C111.762 287.642 112.323 287.766 112.22 287.956C112.081 288.148 112.306 288.212 112.67 288.085C113.073 287.992 113.595 288.081 113.904 288.364C114.211 288.61 114.665 288.85 114.889 288.878C115.112 288.905 115.946 289.351 116.744 289.835C117.506 290.321 118.374 290.692 118.632 290.68C118.928 290.667 119.157 290.843 119.166 291.028C119.175 291.25 119.404 291.389 119.699 291.376C119.995 291.362 122.067 292.199 124.334 293.25C126.564 294.303 129.737 295.759 131.361 296.504C136.082 298.635 137.607 300.498 137.313 303.89C137.188 305.232 136.723 306.441 135.844 307.483C135.072 308.445 132.465 309.749 131.173 309.806C130.545 309.834 127.61 308.738 124.284 307.177Z" fill="#E4CAAC" fill-opacity="0.3"/>
<path d="M230.299 296.801C228.748 295.969 228.03 295.136 228.266 294.477C228.366 294.184 228.279 293.936 228.091 293.944C227.864 293.954 227.746 293.852 227.777 293.706C227.835 293.307 227.222 291.425 226.768 290.58C226.562 290.193 226.089 288.916 225.696 287.745C225.342 286.571 224.601 284.37 224.118 282.878C223.242 280.178 223.238 280.107 223.905 278.924C224.255 278.26 225.163 277.391 225.904 277.034C227.089 276.441 227.428 276.39 228.465 276.741C229.083 277.002 229.513 277.307 229.368 277.457C229.223 277.608 229.374 277.601 229.746 277.441C230.229 277.239 230.544 277.513 231.043 278.536C231.79 280.017 233.348 284.416 233.551 285.596C233.607 285.99 233.783 286.558 233.909 286.841C236.664 292.628 236.69 294.933 234.15 296.559C232.678 297.525 231.771 297.565 230.299 296.801Z" fill="#E4CAAC" fill-opacity="0.3"/>
<path d="M460.283 242.864C459.406 242.716 457.866 242.151 456.82 241.602C450.617 238.3 444.225 235.008 443.067 234.5C442.332 234.16 441.401 233.643 441.01 233.362C440.617 233.044 440.075 232.77 439.771 232.747C438.935 232.672 436.469 230.844 436.446 230.324C436.435 230.064 436.233 229.775 436.003 229.71C435.313 229.517 434.992 225.695 435.569 224.18C436.042 222.893 437.92 220.836 438.708 220.689C439.234 220.591 439.533 220.504 440.425 220.129C440.909 219.959 441.593 220.003 442.135 220.277C442.638 220.515 443.211 220.639 443.474 220.59C444.109 220.413 446.324 221.693 446 222.08C445.857 222.272 445.933 222.269 446.191 222.109C446.413 221.987 447.722 222.488 449.08 223.247C450.439 224.007 452.18 224.861 452.951 225.162C453.759 225.461 454.308 225.884 454.166 226.114C454.063 226.342 454.14 226.375 454.36 226.217C454.692 226.016 457.475 227.308 458.303 228.054C458.421 228.16 458.766 228.257 459.072 228.318C459.377 228.378 459.918 228.615 460.232 228.862C460.545 229.109 461.906 229.905 463.223 230.592C465.743 231.933 467.486 233.681 467.064 234.407C466.924 234.674 466.965 234.747 467.187 234.625C467.407 234.467 467.585 235.055 467.706 236.092C467.874 238.17 467.583 239.301 467.039 238.989C466.768 238.852 466.734 238.928 466.896 239.182C467.057 239.398 466.859 240.04 466.466 240.579C466.037 241.157 465.71 241.469 465.702 241.283C465.694 241.097 465.545 241.141 465.403 241.371C465.088 241.944 462.906 243.12 462.3 243.11C462.034 243.084 461.121 242.976 460.283 242.864Z" fill="#E4CAAC" fill-opacity="0.3"/>
<path d="M561.695 235.492C559.527 235.227 558.496 232.924 556.168 223.161C556.031 222.589 555.674 221.231 555.368 220.197C554.885 218.52 554.906 218.157 555.486 216.975C556.306 215.349 557.797 214.597 559.556 214.88C560.98 215.142 562.322 216.059 562.356 216.816C562.367 217.069 562.537 217.567 562.739 217.919C563.221 218.729 564.976 224.795 565.592 227.803C565.639 228.018 565.802 228.336 565.961 228.582C566.516 229.353 566.822 232.086 566.457 233.077C566.096 234.141 564.156 235.673 563.188 235.643C562.89 235.62 562.217 235.542 561.695 235.492Z" fill="#E4CAAC" fill-opacity="0.3"/>
<path d="M132.855 235.488C130.32 234.44 127.322 233.187 126.247 232.748C125.134 232.31 124.207 231.827 124.199 231.64C124.192 231.49 123.922 231.353 123.583 231.368C123.282 231.381 123.125 231.238 123.228 231.009C123.333 230.817 123.217 230.747 122.883 230.874C122.179 231.167 121.08 229.344 121.011 227.774C120.933 226.018 122.588 224.222 124.466 224.027C126.042 223.844 129.026 224.798 128.56 225.343C128.378 225.501 128.493 225.534 128.712 225.374C128.969 225.213 129.653 225.332 130.231 225.606C130.846 225.879 132.884 226.762 134.844 227.574C136.764 228.351 138.27 229.145 138.167 229.374C138.062 229.566 138.139 229.6 138.396 229.439C138.616 229.28 139.416 229.469 140.151 229.886C141.891 230.857 142.699 232.919 142.061 234.707C141.556 236.077 139.804 237.39 138.41 237.415C137.883 237.438 135.393 236.574 132.855 235.488Z" fill="#E4CAAC" fill-opacity="0.3"/>
<path d="M328.046 228.355C327.274 227.911 326.841 227.452 326.939 227.116C327.038 226.818 326.996 226.709 326.776 226.829C326.156 227.261 325.814 224.628 326.401 223.461C326.984 222.185 329.368 220.019 330.013 220.174C330.242 220.238 330.315 220.198 330.159 220.058C329.728 219.672 330.849 218.666 331.387 218.936C331.656 219.072 331.766 219.03 331.572 218.891C331.178 218.467 332.36 217.164 332.898 217.435C333.128 217.535 333.203 217.532 333.045 217.355C332.732 217.074 332.804 216.998 335.801 214.253C338.689 211.587 340.204 211.005 342.042 211.77C342.806 212.067 343.426 212.481 343.436 212.701C343.445 212.922 343.259 212.967 342.99 212.831C342.721 212.696 342.686 212.734 342.849 213.021C343.008 213.235 343.276 213.334 343.458 213.215C343.86 212.94 344.627 214.157 344.673 215.185C344.725 216.36 343.002 219.048 342.353 218.819C342.049 218.722 341.863 218.767 341.983 218.946C342.264 219.338 337.172 224.015 336.711 223.778C336.519 223.676 336.447 223.753 336.492 223.935C336.704 224.477 332.547 228.193 331.434 228.5C330.876 228.635 330.172 228.85 329.875 228.936C329.578 229.023 328.74 228.766 328.046 228.355Z" fill="#E4CAAC" fill-opacity="0.3"/>
<path d="M210.15 231.143C209.775 231.085 209.466 230.837 209.457 230.651C209.449 230.465 209.182 230.327 208.885 230.341C208.178 230.372 207.128 228.515 207.068 227.174C207.044 226.615 207.3 225.671 207.647 225.096C208.756 223.218 210.631 220.971 210.898 221.108C211.052 221.213 211.157 221.06 211.108 220.8C211.096 220.54 211.754 219.391 212.635 218.27C213.517 217.149 214.68 215.642 215.244 214.908C215.77 214.175 216.419 213.699 216.649 213.838C216.84 213.941 216.911 213.864 216.791 213.682C216.312 212.957 217.939 211.84 219.465 211.81C221.886 211.778 223.887 214.078 223.546 216.481C223.466 217.194 223.268 217.762 223.082 217.771C222.933 217.777 222.58 218.203 222.342 218.736C222.068 219.271 221.675 219.661 221.41 219.561C221.184 219.497 221.003 219.616 221.051 219.876C221.063 220.136 220.618 221.014 219.984 221.863C219.35 222.675 217.662 224.952 216.222 226.919C214.78 228.848 213.179 230.561 212.739 230.73C211.307 231.204 210.827 231.3 210.15 231.143ZM215.094 215.735C214.977 215.629 214.693 215.94 214.453 216.398C214.004 217.202 214.041 217.2 214.647 216.576C215.002 216.187 215.209 215.805 215.094 215.735Z" fill="#E4CAAC" fill-opacity="0.3"/>
<path d="M478.131 196.165C477.465 196.045 476.267 195.538 475.436 195.015C473.737 193.97 470.64 190.372 470.982 189.797C471.082 189.568 470.969 189.499 470.681 189.623C470.356 189.75 469.473 188.893 468.186 187.194C466.199 184.594 464.918 183.044 460.11 177.282C458.753 175.661 457.622 174.18 457.614 173.994C457.604 173.77 457.484 173.552 457.298 173.485C456.925 173.352 454.635 170.578 454.506 170.136C454.461 169.951 454.253 169.4 454.048 168.924C453.557 167.788 453.444 164.394 453.884 164.375C454.067 164.367 454.092 164.104 453.966 163.736C453.801 163.333 453.833 163.219 454.134 163.393C454.397 163.531 454.504 163.451 454.342 163.122C454.056 162.463 457.135 159.003 458.051 158.962C458.418 158.946 458.851 158.778 458.951 158.549C459.053 158.358 460.07 158.126 461.17 158.077C463.369 157.98 465.942 158.875 467.175 160.165C468.945 161.991 476.723 171.804 476.741 172.214C476.753 172.475 476.868 172.582 477.011 172.501C477.118 172.422 477.574 172.775 478 173.279C478.391 173.822 478.969 174.431 479.237 174.681C479.469 174.932 479.705 175.295 479.713 175.481C479.723 175.705 479.843 175.924 480.03 175.99C480.291 176.091 481.568 177.565 484.407 181.137C486.739 184.059 487.51 185.705 487.612 188.016C487.826 192.861 482.91 197.112 478.131 196.165Z" fill="#E4CAAC" fill-opacity="0.3"/>
<path d="M364.178 185.902C362.189 185.165 361.621 184.627 360.511 182.463C359.876 181.216 359.66 179.613 359.054 171.65C357.919 156.622 357.919 156.622 359.059 154.546C359.729 153.316 360.25 152.805 360.619 152.939C360.949 153.037 361.054 152.957 360.862 152.703C360.59 152.303 362.617 151.425 364.064 151.361C365.221 151.31 367.173 152.012 366.936 152.397C366.836 152.589 366.879 152.737 367.058 152.692C368.421 152.369 370.118 154.694 370.451 157.305C370.784 159.916 371.961 175.055 372.08 178.576C372.199 181.271 372.111 181.725 371.197 183.191C369.544 185.965 367.013 186.902 364.178 185.902Z" fill="#E4CAAC" fill-opacity="0.3"/>
<path d="M663.175 171.672C661.863 171.073 660.67 169.009 660.944 167.72C661.066 167.167 661.308 166.828 661.496 166.929C661.684 167.03 661.753 166.918 661.63 166.631C661.507 166.345 661.919 165.706 662.59 165.093C664.074 163.786 667.614 160.82 669.74 159.084C670.662 158.35 671.866 157.348 672.431 156.849C674.624 154.964 677.904 155.256 678.918 157.437C680.256 160.297 679.983 160.747 672.232 167.294C666.463 172.147 665.421 172.667 663.175 171.672Z" fill="#E4CAAC" fill-opacity="0.3"/>
<path d="M525.002 171.788C523.815 171.148 522.718 169.274 522.77 168.003C522.864 166.846 523.528 165.471 524.97 163.677C528.915 158.696 529.985 157.495 530.284 157.713C530.438 157.898 530.469 157.781 530.312 157.519C529.961 156.958 532.606 153.688 533.92 153.092C536.548 151.899 539.963 154.593 539.137 157.206C538.98 157.751 538.928 158.215 539.036 158.21C539.181 158.204 539.084 158.477 538.845 158.795C538.605 159.113 538.251 159.283 538.027 159.139C537.805 159.033 537.772 159.112 537.927 159.336C538.084 159.598 537.546 160.544 536.721 161.542C535.894 162.501 534.899 163.776 534.455 164.372C533.705 165.443 533.669 165.445 532.843 164.789C532.016 164.095 532.016 164.095 532.664 164.836C533.428 165.725 533.235 166.272 531.104 168.865C528.456 172.058 526.93 172.779 525.002 171.788ZM531.751 155.649C531.637 155.538 531.429 155.74 531.337 156.128C531.144 156.675 531.182 156.712 531.528 156.35C531.769 156.071 531.864 155.759 531.751 155.649Z" fill="#E4CAAC" fill-opacity="0.3"/>
<path d="M7.52604 351.638C6.26137 351.095 5.09225 349.312 5.22531 348.07C5.37606 346.378 5.90914 345.681 9.19636 342.652C11.0748 340.921 12.9173 339.229 13.2793 338.914C17.8302 334.706 17.9036 334.665 19.5529 334.555C22.5138 334.349 24.7197 337.472 23.4046 340.039C22.8146 341.151 21.983 341.899 21.5212 341.657C21.327 341.516 21.2944 341.63 21.4544 341.848C21.5769 342.067 21.2248 342.607 20.6427 343.044C20.0622 343.519 19.5092 343.769 19.3901 343.624C19.3068 343.44 19.3101 343.515 19.3592 343.775C19.4458 344.033 19.0578 344.612 18.479 345.125C16.4196 347.013 15.0726 348.009 14.7299 347.912C14.5407 347.883 14.4706 347.998 14.5914 348.18C14.9131 348.653 10.9896 351.747 9.75967 351.989C9.20014 352.088 8.17714 351.909 7.52604 351.638ZM13.8636 347.875C13.9663 347.646 13.8145 347.615 13.5193 347.741C12.8555 348.032 12.7545 348.299 13.2798 348.275C13.5049 348.266 13.761 348.104 13.8636 347.875Z" fill="#E4CAAC" fill-opacity="0.3"/>
<path d="M172.429 142.27C171.299 141.721 170.268 140.831 169.694 139.921C168.793 138.502 168.743 138.242 168.742 132.18C168.742 128.738 168.764 124.92 168.787 123.722C168.848 122.521 168.877 119.714 168.857 117.544C168.875 115.373 169.043 113.121 169.211 112.627C169.749 110.994 171.786 108.771 172.593 108.923C172.978 109.018 173.203 108.933 173.083 108.789C172.757 108.317 174.987 107.881 176.37 108.119C177.983 108.385 179.948 109.72 181.007 111.245C181.739 112.297 181.842 112.892 181.865 116.857C181.898 119.325 181.97 122.689 182.008 124.409C182.044 126.091 181.952 127.442 181.795 127.337C181.639 127.269 181.551 129.593 181.602 132.472C181.655 135.388 181.551 138.199 181.384 138.731C180.912 140.136 178.422 142.454 177.027 142.815C175.065 143.276 174.299 143.197 172.429 142.27Z" fill="#E4CAAC" fill-opacity="0.3"/>
<path d="M76.167 127.835C74.3076 127.011 72.721 125.761 72.9905 125.258C73.126 125.026 73.0119 124.917 72.7952 124.965C72.5438 125.051 72.1666 124.766 71.93 124.361C71.6586 123.996 71.1075 123.077 70.6375 122.343C70.1692 121.646 69.8084 120.908 69.7637 120.721C69.7554 120.533 69.4873 120.242 69.1515 120.069C68.8157 119.895 68.5393 119.416 68.521 119.002C68.5027 118.588 68.3471 118.368 68.1338 118.491C67.9568 118.612 67.7716 118.545 67.7616 118.319C67.7516 118.093 67.0433 116.916 66.1497 115.672C65.2578 114.466 64.0432 112.558 63.411 111.453C62.7788 110.349 62.2708 109.579 62.2774 109.73C62.2858 109.918 61.8241 109.372 61.2747 108.491C60.727 107.647 60.3959 106.756 60.4967 106.563C60.6323 106.33 60.5181 106.222 60.3014 106.269C60.0865 106.354 59.5123 105.738 59.039 104.929C58.5657 104.12 58.0957 103.385 57.9816 103.277C57.2999 102.704 56.0456 100.721 56.0222 100.194C56.0072 99.8547 55.85 99.5975 55.6681 99.6056C55.4861 99.6136 55.3503 99.0158 55.3551 98.2985C55.3962 97.5796 55.2587 96.9441 55.0751 96.9144C54.5573 96.7486 55.299 93.7343 56.3124 91.9157C56.7488 91.0661 57.1985 90.5178 57.3127 90.626C57.4632 90.7326 57.7443 90.4937 57.9824 90.1058C58.4932 89.2906 61.3179 88.0335 62.7387 88.0084C64.0487 87.9504 66.9055 89.0695 66.5964 89.4983C66.4575 89.6555 66.5319 89.6899 66.8147 89.4887C67.3108 89.1648 69.7462 91.4725 70.6995 93.2419C71.0139 93.7564 71.6395 94.71 72.1044 95.331C72.6058 95.9504 73.0013 96.65 73.0113 96.876C73.023 97.1397 73.1405 97.3232 73.3224 97.3151C73.468 97.3087 73.933 97.9297 74.3682 98.703C74.8018 99.4387 75.9751 101.236 76.9861 102.663C78.0336 104.089 78.8594 105.449 78.8693 105.675C78.881 105.938 79.0713 106.119 79.2896 106.109C79.4715 106.101 79.5874 106.247 79.4865 106.44C79.3857 106.633 79.5413 106.853 79.839 106.991C80.1351 107.091 80.4048 107.418 80.4182 107.72C80.4315 108.021 80.554 108.318 80.7392 108.385C81.0353 108.485 84.8976 114.202 84.9143 114.578C84.9193 114.691 85.2287 115.093 85.6093 115.453C85.9898 115.814 86.2348 116.407 86.1787 116.787C86.0862 117.168 86.212 117.54 86.47 117.604C86.6917 117.67 86.9119 118.528 86.9586 119.583C87.0452 121.542 86.353 124.025 85.8285 123.709C85.6416 123.604 85.6119 123.756 85.6963 124.017C86.0224 124.795 83.9655 126.924 82.138 127.646C80.0244 128.495 77.8759 128.552 76.167 127.835Z" fill="#E4CAAC" fill-opacity="0.3"/>
<path d="M317.522 104.883C316.087 104.157 315.083 103.148 315.244 102.615C315.343 102.347 315.224 102.164 315.006 102.249C314.75 102.298 314.278 101.642 313.945 100.792C313.446 99.5355 313.386 99.0118 313.735 97.7179C313.918 96.845 314.26 96.2282 314.449 96.3327C314.638 96.4371 314.891 96.3131 315.029 96.0814C315.163 95.7747 315.124 95.7388 314.873 95.9003C314.622 96.0618 314.436 96.0324 314.427 95.8448C314.404 95.3194 315.366 94.5249 315.565 94.8545C315.682 94.9997 315.679 94.9246 315.63 94.6636C315.419 94.0713 317.426 92.7041 319.071 92.3305C319.764 92.1495 320.417 91.895 320.521 91.74C320.829 91.1999 329.27 87.5929 329.65 87.8393C329.915 87.978 329.946 87.8638 329.749 87.5717C329.511 87.2062 329.582 87.1279 330.032 87.296C330.369 87.3939 330.662 87.3433 330.729 87.19C330.858 86.7706 338.756 83.4132 339.677 83.3725C340.819 83.322 343.566 84.5165 344.457 85.4548C345.888 86.9331 346.381 88.9042 346.005 91.2521C345.795 92.3518 345.464 93.1937 345.274 93.0893C345.084 92.9473 344.943 93.104 344.954 93.3667C344.968 93.6669 344.623 94.2086 344.234 94.6018C343.241 95.5105 338.543 97.7864 338.087 97.5057C337.898 97.4013 337.756 97.5204 337.766 97.7455C337.776 97.9707 337.632 98.0523 337.406 97.9495C337.217 97.845 337.034 97.8907 337.042 98.0783C337.061 98.4912 334.518 99.4308 334.026 99.1518C333.798 99.0114 333.767 99.1257 333.964 99.4177C334.202 99.7832 334.094 99.8632 333.498 99.7391C333.05 99.6086 332.758 99.6967 332.875 99.8419C332.994 100.025 332.202 100.473 331.185 100.857C330.134 101.279 329.05 101.816 328.765 102.054C328.481 102.292 328.193 102.455 328.116 102.384C328.04 102.349 327.387 102.604 326.628 102.976C325.907 103.346 324.815 103.695 324.262 103.72C323.709 103.744 323.42 103.87 323.647 104.01C324.217 104.361 321.487 105.234 319.791 105.271C318.978 105.269 317.974 105.088 317.522 104.883Z" fill="#E4CAAC" fill-opacity="0.3"/>
<path d="M616.442 83.5865C614.73 83.0678 613.254 81.944 612.398 80.4213C611.627 79.1178 611.628 75.7365 612.443 62.77C613.087 52.7093 613.248 52.1077 615.718 50.2521C618.296 48.2803 621.953 48.6387 624.239 51.1014C625.973 52.9569 626.136 54.1015 625.715 61.5514C624.545 80.9245 624.662 80.1762 622.496 82.1298C621.522 83.0274 619.278 84.0556 618.265 84.0633C618.076 84.0345 617.242 83.8484 616.442 83.5865Z" fill="#E4CAAC" fill-opacity="0.3"/>
<path d="M540.414 67.7634C538.202 66.7846 537.229 65.5653 533.064 58.6582C532.588 57.8625 531.161 55.5124 529.855 53.4168C521.076 39.3998 521.354 39.8702 521.038 36.8769C520.801 34.8454 520.843 34.1381 521.21 34.1219C521.467 34.1105 521.572 33.9945 521.42 33.8898C520.999 33.5001 522.127 31.5938 523.607 30.1547C525.69 28.2062 528.306 27.5336 530.947 28.2336C532.956 28.7759 535.729 30.8066 535.773 31.8071C535.786 32.1035 535.981 32.3548 536.164 32.3467C536.385 32.337 536.541 32.5528 536.554 32.8492C536.567 33.1457 536.69 33.4372 536.877 33.5032C537.027 33.5709 537.697 34.5808 538.338 35.7776C539.015 36.9729 539.688 38.0569 539.84 38.1616C540.18 38.3693 540.616 39.0925 543.432 43.7574C544.503 45.5292 546.403 48.601 547.667 50.5871C551.421 56.5098 552.118 58.1497 551.998 60.4198C551.853 62.9508 550.802 64.965 548.783 66.6879C547.367 67.9014 546.896 68.0708 544.59 68.2841C542.503 68.4507 541.691 68.3752 540.414 67.7634Z" fill="#E4CAAC" fill-opacity="0.3"/>
<path d="M7.10592 261.314C3.95825 259.85 1.85395 256.475 2.0468 253.184C2.11952 251.428 4.23029 246.449 4.7362 246.837C4.89453 247.016 4.92876 246.94 4.76714 246.686C4.60552 246.432 4.99983 245.147 5.61928 243.851C6.19955 242.521 6.75053 241.377 6.78312 241.264C7.10073 239.945 7.71853 238.612 7.98119 238.6C8.16881 238.592 8.30737 238.325 8.2942 238.027C8.27939 237.692 8.85308 236.212 9.53769 234.69C10.224 233.205 10.8385 231.798 10.8661 231.573C11.0468 230.558 12.3054 228.414 12.578 228.626C12.7722 228.766 12.7689 228.692 12.6073 228.438C12.4457 228.184 12.4993 227.697 12.6705 227.316C12.8416 226.936 13.0779 226.329 13.174 225.951C13.2701 225.574 13.5246 225.377 13.7546 225.478C13.9864 225.617 14.0157 225.429 13.8491 225.064C13.6401 224.588 13.7118 224.51 14.097 224.717C14.4429 224.888 14.5163 224.848 14.3172 224.596C13.834 223.871 15.8365 221.545 17.8558 220.448C18.9584 219.878 20.5163 219.398 21.3793 219.36C22.8052 219.297 25.6705 220.327 27.1099 221.419C27.8883 222.019 29.0522 223.683 29.2385 224.495C29.33 224.864 29.5522 225.637 29.7661 226.225C30.1598 227.475 29.5055 231.383 28.9279 231.073C28.6978 230.971 28.6636 231.047 28.8252 231.301C28.9851 231.518 28.8989 232.118 28.6185 232.578C28.338 233.038 28.0968 233.534 28.0658 233.684C28.0349 233.835 27.4905 235.127 26.8385 236.536C26.1881 237.982 25.647 239.348 25.6585 239.609C25.6684 239.832 25.5282 240.062 25.303 240.072C25.1154 240.08 24.9426 240.424 24.9624 240.87C24.9838 241.354 24.8419 241.547 24.5335 241.374C24.3018 241.235 24.2284 241.276 24.39 241.53C24.5124 241.748 23.8117 243.756 22.8223 246.037C21.7937 248.283 20.2208 251.821 19.3341 253.874C18.4849 255.926 17.3405 258.102 16.8431 258.758C14.7086 261.5 10.1377 262.709 7.10592 261.314Z" fill="#E4CAAC" fill-opacity="0.3"/>
<path d="M1179.19 298.242C1176.79 297.104 1175.63 295.685 1174.77 292.971C1174.05 290.703 1174.04 290.553 1174.72 288.487C1175.81 284.971 1178.54 282.777 1182.29 282.347C1183.53 282.18 1186.19 281.836 1188.23 281.557C1190.27 281.241 1193 280.894 1194.24 280.763C1195.52 280.594 1199.64 280.073 1203.39 279.567C1209.04 278.79 1210.53 278.686 1211.9 279.002C1213.98 279.514 1216.65 281.846 1217.51 283.881C1219.11 287.693 1217.28 292.75 1213.66 294.569C1212.44 295.188 1205.64 296.356 1205.07 296.041C1204.88 295.937 1204.19 296.043 1203.54 296.297C1202.93 296.513 1200.68 296.914 1198.56 297.121C1196.44 297.328 1194.26 297.613 1193.64 297.716C1183.12 299.349 1181.58 299.417 1179.19 298.242Z" fill="#E4CAAC" fill-opacity="0.3"/>
<path d="M932.284 280.177C920.009 274.593 915.849 272.586 915.158 272.023C913.815 270.931 912.867 268.745 912.933 266.885C913.063 263.983 915.702 260.896 917.717 261.252C918.464 261.405 918.573 261.363 918.153 261.084C917.736 260.843 917.915 260.724 918.987 260.676C919.762 260.642 920.323 260.766 920.22 260.956C920.081 261.148 920.306 261.212 920.67 261.085C921.073 260.992 921.595 261.081 921.904 261.364C922.211 261.61 922.665 261.85 922.889 261.878C923.112 261.905 923.946 262.351 924.744 262.835C925.506 263.321 926.374 263.692 926.632 263.68C926.928 263.667 927.157 263.843 927.166 264.028C927.175 264.25 927.404 264.389 927.699 264.376C927.995 264.362 930.067 265.199 932.334 266.25C934.564 267.303 937.737 268.759 939.361 269.504C944.082 271.635 945.607 273.498 945.313 276.89C945.188 278.232 944.723 279.441 943.844 280.483C943.072 281.445 940.465 282.749 939.173 282.806C938.545 282.834 935.61 281.738 932.284 280.177Z" fill="#E4CAAC" fill-opacity="0.3"/>
<path d="M1038.3 269.801C1036.75 268.969 1036.03 268.136 1036.27 267.477C1036.37 267.184 1036.28 266.936 1036.09 266.944C1035.86 266.954 1035.75 266.852 1035.78 266.706C1035.84 266.307 1035.22 264.425 1034.77 263.58C1034.56 263.193 1034.09 261.916 1033.7 260.745C1033.34 259.571 1032.6 257.37 1032.12 255.878C1031.24 253.178 1031.24 253.107 1031.91 251.924C1032.25 251.26 1033.16 250.391 1033.9 250.034C1035.09 249.441 1035.43 249.39 1036.47 249.741C1037.08 250.002 1037.51 250.307 1037.37 250.457C1037.22 250.608 1037.37 250.601 1037.75 250.441C1038.23 250.239 1038.54 250.513 1039.04 251.536C1039.79 253.017 1041.35 257.416 1041.55 258.596C1041.61 258.99 1041.78 259.558 1041.91 259.841C1044.66 265.628 1044.69 267.933 1042.15 269.559C1040.68 270.525 1039.77 270.565 1038.3 269.801Z" fill="#E4CAAC" fill-opacity="0.3"/>
<path d="M768.506 421.695C767.03 421.105 764.099 418.688 764.072 418.071C764.065 417.926 764.211 417.846 764.402 417.983C764.593 418.084 764.885 417.962 765.023 417.738C765.16 417.477 765.12 417.406 764.94 417.523C764.722 417.642 764.349 417.622 764.045 417.454C763.435 417.117 762.946 412.773 763.502 412.748C763.725 412.738 763.792 412.59 763.673 412.413C763.475 412.131 767.35 402.282 770.086 396.086C770.557 394.973 770.959 393.973 770.991 393.863C771.004 393.317 773.338 388.12 773.593 388C773.738 387.92 773.874 387.623 773.861 387.333C773.819 386.389 775.092 384.077 776.269 382.97C781.724 377.745 790.829 381.962 790.118 389.415C790.013 390.402 789.786 391.14 789.632 391.037C789.479 390.935 789.416 391.193 789.545 391.587C789.676 392.018 789.543 392.387 789.179 392.549C788.85 392.673 788.674 392.899 788.792 393.039C788.872 393.181 788.343 394.66 787.601 396.366C786.895 398.034 786.29 399.48 786.294 399.589C786.302 399.771 785.599 401.512 783.445 406.591C782.673 408.444 781.635 411.037 781.101 412.406C780.567 413.776 780.019 414.819 779.829 414.718C779.675 414.616 779.646 414.799 779.77 415.085C779.896 415.406 779.833 415.664 779.611 415.674C779.388 415.684 779.325 415.941 779.449 416.227C779.611 416.51 779.548 416.768 779.325 416.778C779.14 416.786 778.896 417.161 778.769 417.639C778.527 418.887 776.856 420.598 776.14 420.375C775.801 420.281 775.653 420.287 775.807 420.426C776.388 420.946 774.495 421.83 772.313 422.072C770.574 422.258 769.641 422.154 768.506 421.695Z" fill="#E4CAAC" fill-opacity="0.3"/>
<path d="M1268.28 215.864C1267.41 215.716 1265.87 215.151 1264.82 214.602C1258.62 211.3 1252.22 208.008 1251.07 207.5C1250.33 207.16 1249.4 206.643 1249.01 206.362C1248.62 206.044 1248.08 205.77 1247.77 205.747C1246.94 205.672 1244.47 203.844 1244.45 203.324C1244.43 203.064 1244.23 202.775 1244 202.71C1243.31 202.517 1242.99 198.695 1243.57 197.18C1244.04 195.893 1245.92 193.836 1246.71 193.689C1247.23 193.591 1247.53 193.504 1248.42 193.129C1248.91 192.959 1249.59 193.003 1250.13 193.277C1250.64 193.515 1251.21 193.639 1251.47 193.59C1252.11 193.413 1254.32 194.693 1254 195.08C1253.86 195.272 1253.93 195.269 1254.19 195.109C1254.41 194.987 1255.72 195.488 1257.08 196.247C1258.44 197.007 1260.18 197.861 1260.95 198.162C1261.76 198.461 1262.31 198.884 1262.17 199.114C1262.06 199.342 1262.14 199.375 1262.36 199.217C1262.69 199.016 1265.47 200.308 1266.3 201.054C1266.42 201.16 1266.77 201.257 1267.07 201.318C1267.38 201.378 1267.92 201.615 1268.23 201.862C1268.55 202.109 1269.91 202.905 1271.22 203.592C1273.74 204.933 1275.49 206.681 1275.06 207.407C1274.92 207.674 1274.97 207.747 1275.19 207.625C1275.41 207.467 1275.58 208.055 1275.71 209.092C1275.87 211.17 1275.58 212.301 1275.04 211.989C1274.77 211.852 1274.73 211.928 1274.9 212.182C1275.06 212.398 1274.86 213.04 1274.47 213.579C1274.04 214.157 1273.71 214.469 1273.7 214.283C1273.69 214.097 1273.54 214.141 1273.4 214.371C1273.09 214.944 1270.91 216.12 1270.3 216.11C1270.03 216.084 1269.12 215.976 1268.28 215.864Z" fill="#E4CAAC" fill-opacity="0.3"/>
<path d="M940.855 208.488C938.32 207.44 935.322 206.187 934.247 205.748C933.134 205.31 932.207 204.827 932.199 204.64C932.192 204.49 931.922 204.353 931.583 204.368C931.282 204.381 931.125 204.238 931.228 204.009C931.333 203.817 931.217 203.747 930.883 203.874C930.179 204.167 929.08 202.344 929.011 200.774C928.933 199.018 930.588 197.222 932.466 197.027C934.042 196.844 937.026 197.798 936.56 198.343C936.378 198.501 936.493 198.534 936.712 198.374C936.969 198.213 937.653 198.332 938.231 198.606C938.846 198.879 940.884 199.762 942.844 200.574C944.764 201.351 946.27 202.145 946.167 202.374C946.062 202.566 946.139 202.6 946.396 202.439C946.616 202.28 947.416 202.469 948.151 202.886C949.891 203.857 950.699 205.919 950.061 207.707C949.556 209.077 947.804 210.39 946.41 210.415C945.883 210.438 943.393 209.574 940.855 208.488Z" fill="#E4CAAC" fill-opacity="0.3"/>
<path d="M1136.05 201.355C1135.27 200.911 1134.84 200.452 1134.94 200.116C1135.04 199.818 1135 199.709 1134.78 199.829C1134.16 200.261 1133.81 197.628 1134.4 196.461C1134.98 195.185 1137.37 193.019 1138.01 193.174C1138.24 193.238 1138.32 193.198 1138.16 193.058C1137.73 192.672 1138.85 191.666 1139.39 191.936C1139.66 192.072 1139.77 192.03 1139.57 191.891C1139.18 191.467 1140.36 190.164 1140.9 190.435C1141.13 190.535 1141.2 190.532 1141.05 190.355C1140.73 190.074 1140.8 189.998 1143.8 187.253C1146.69 184.587 1148.2 184.005 1150.04 184.77C1150.81 185.067 1151.43 185.481 1151.44 185.701C1151.45 185.922 1151.26 185.967 1150.99 185.831C1150.72 185.696 1150.69 185.734 1150.85 186.021C1151.01 186.235 1151.28 186.334 1151.46 186.215C1151.86 185.94 1152.63 187.157 1152.67 188.185C1152.72 189.36 1151 192.048 1150.35 191.819C1150.05 191.722 1149.86 191.767 1149.98 191.946C1150.26 192.338 1145.17 197.015 1144.71 196.778C1144.52 196.676 1144.45 196.753 1144.49 196.935C1144.7 197.477 1140.55 201.193 1139.43 201.5C1138.88 201.635 1138.17 201.85 1137.87 201.936C1137.58 202.023 1136.74 201.766 1136.05 201.355Z" fill="#E4CAAC" fill-opacity="0.3"/>
<path d="M1018.15 204.143C1017.77 204.085 1017.47 203.837 1017.46 203.651C1017.45 203.465 1017.18 203.327 1016.88 203.341C1016.18 203.372 1015.13 201.515 1015.07 200.174C1015.04 199.615 1015.3 198.671 1015.65 198.096C1016.76 196.218 1018.63 193.971 1018.9 194.108C1019.05 194.213 1019.16 194.06 1019.11 193.8C1019.1 193.54 1019.75 192.391 1020.64 191.27C1021.52 190.149 1022.68 188.642 1023.24 187.908C1023.77 187.175 1024.42 186.699 1024.65 186.838C1024.84 186.941 1024.91 186.864 1024.79 186.682C1024.31 185.957 1025.94 184.84 1027.47 184.81C1029.89 184.778 1031.89 187.078 1031.55 189.481C1031.47 190.194 1031.27 190.762 1031.08 190.771C1030.93 190.777 1030.58 191.203 1030.34 191.736C1030.07 192.271 1029.68 192.661 1029.41 192.561C1029.18 192.497 1029 192.616 1029.05 192.876C1029.06 193.136 1028.62 194.014 1027.98 194.863C1027.35 195.675 1025.66 197.952 1024.22 199.919C1022.78 201.848 1021.18 203.561 1020.74 203.73C1019.31 204.204 1018.83 204.3 1018.15 204.143ZM1023.09 188.735C1022.98 188.629 1022.69 188.94 1022.45 189.398C1022 190.202 1022.04 190.2 1022.65 189.576C1023 189.187 1023.21 188.805 1023.09 188.735Z" fill="#E4CAAC" fill-opacity="0.3"/>
<path d="M1286.13 169.165C1285.46 169.045 1284.27 168.538 1283.44 168.015C1281.74 166.97 1278.64 163.372 1278.98 162.797C1279.08 162.568 1278.97 162.499 1278.68 162.623C1278.36 162.75 1277.47 161.893 1276.19 160.194C1274.2 157.594 1272.92 156.044 1268.11 150.282C1266.75 148.661 1265.62 147.18 1265.61 146.994C1265.6 146.77 1265.48 146.552 1265.3 146.485C1264.92 146.352 1262.64 143.578 1262.51 143.136C1262.46 142.951 1262.25 142.4 1262.05 141.924C1261.56 140.788 1261.44 137.394 1261.88 137.375C1262.07 137.367 1262.09 137.104 1261.97 136.736C1261.8 136.333 1261.83 136.219 1262.13 136.393C1262.4 136.531 1262.5 136.451 1262.34 136.122C1262.06 135.463 1265.13 132.003 1266.05 131.962C1266.42 131.946 1266.85 131.778 1266.95 131.549C1267.05 131.358 1268.07 131.126 1269.17 131.077C1271.37 130.98 1273.94 131.875 1275.17 133.165C1276.94 134.991 1284.72 144.804 1284.74 145.214C1284.75 145.475 1284.87 145.582 1285.01 145.501C1285.12 145.422 1285.57 145.775 1286 146.279C1286.39 146.822 1286.97 147.431 1287.24 147.681C1287.47 147.932 1287.71 148.295 1287.71 148.481C1287.72 148.705 1287.84 148.924 1288.03 148.99C1288.29 149.091 1289.57 150.565 1292.41 154.137C1294.74 157.059 1295.51 158.705 1295.61 161.016C1295.83 165.861 1290.91 170.112 1286.13 169.165Z" fill="#E4CAAC" fill-opacity="0.3"/>
<path d="M1172.18 158.902C1170.19 158.165 1169.62 157.627 1168.51 155.463C1167.88 154.216 1167.66 152.613 1167.05 144.65C1165.92 129.622 1165.92 129.622 1167.06 127.546C1167.73 126.316 1168.25 125.805 1168.62 125.939C1168.95 126.037 1169.05 125.957 1168.86 125.703C1168.59 125.303 1170.62 124.425 1172.06 124.361C1173.22 124.31 1175.17 125.012 1174.94 125.397C1174.84 125.589 1174.88 125.737 1175.06 125.692C1176.42 125.369 1178.12 127.694 1178.45 130.305C1178.78 132.916 1179.96 148.055 1180.08 151.576C1180.2 154.271 1180.11 154.725 1179.2 156.191C1177.54 158.965 1175.01 159.902 1172.18 158.902Z" fill="#E4CAAC" fill-opacity="0.3"/>
<path d="M815.526 324.638C814.261 324.095 813.092 322.312 813.225 321.07C813.376 319.378 813.909 318.681 817.196 315.652C819.075 313.921 820.917 312.229 821.279 311.914C825.83 307.706 825.904 307.665 827.553 307.555C830.514 307.349 832.72 310.472 831.405 313.039C830.815 314.151 829.983 314.899 829.521 314.657C829.327 314.516 829.294 314.63 829.454 314.848C829.577 315.067 829.225 315.607 828.643 316.044C828.062 316.519 827.509 316.769 827.39 316.624C827.307 316.44 827.31 316.515 827.359 316.775C827.446 317.033 827.058 317.612 826.479 318.125C824.42 320.013 823.073 321.009 822.73 320.912C822.541 320.883 822.471 320.998 822.591 321.18C822.913 321.653 818.99 324.747 817.76 324.989C817.2 325.088 816.177 324.909 815.526 324.638ZM821.864 320.875C821.966 320.646 821.815 320.615 821.519 320.741C820.855 321.032 820.754 321.299 821.28 321.275C821.505 321.266 821.761 321.104 821.864 320.875Z" fill="#E4CAAC" fill-opacity="0.3"/>
<path d="M980.429 115.27C979.299 114.721 978.268 113.831 977.694 112.921C976.793 111.502 976.743 111.242 976.742 105.18C976.742 101.738 976.764 97.92 976.787 96.7216C976.848 95.5215 976.877 92.7138 976.857 90.5444C976.875 88.3733 977.043 86.1208 977.211 85.6269C977.749 83.9941 979.786 81.7712 980.593 81.9226C980.978 82.0178 981.203 81.933 981.083 81.7887C980.757 81.3167 982.987 80.8813 984.37 81.1195C985.983 81.3849 987.948 82.7199 989.007 84.2446C989.739 85.2974 989.842 85.8915 989.865 89.8569C989.898 92.325 989.97 95.6895 990.008 97.4091C990.044 99.0913 989.952 100.442 989.795 100.337C989.639 100.269 989.551 102.593 989.602 105.472C989.655 108.388 989.551 111.199 989.384 111.731C988.912 113.136 986.422 115.454 985.027 115.815C983.065 116.276 982.299 116.197 980.429 115.27Z" fill="#E4CAAC" fill-opacity="0.3"/>
<path d="M773.061 291.511C771.456 290.91 770.883 290.122 770.726 288.184C770.591 286.776 770.713 286.275 771.594 285.105C772.17 284.337 772.753 283.745 772.936 283.808C773.116 283.835 773.216 283.654 773.135 283.446C773.088 283.2 773.223 283.017 773.476 283.042C773.729 283.101 773.827 282.885 773.708 282.607C773.552 282.331 773.681 282.007 773.963 281.889C774.244 281.77 775.062 280.779 775.767 279.687C776.509 278.629 777.227 277.819 777.373 277.884C777.521 277.983 777.658 277.836 777.645 277.553C777.611 276.777 780.629 273.638 781.487 273.565C784.345 273.297 786.129 274.703 786.246 277.35C786.302 278.62 783.82 282.513 783.158 282.154C782.937 282.022 782.867 282.061 783.021 282.301C783.138 282.508 782.539 283.56 781.689 284.623C779.815 286.863 779.712 286.974 778.803 288.322C778.433 288.869 777.947 289.244 777.762 289.111C777.578 289.013 777.437 289.054 777.48 289.229C777.656 289.964 777.385 290.33 776.128 291.092C774.555 292.046 774.521 292.083 773.061 291.511Z" fill="#E4CAAC" fill-opacity="0.3"/>
<path d="M884.167 100.835C882.308 100.011 880.721 98.7606 880.99 98.258C881.126 98.0256 881.012 97.9174 880.795 97.9647C880.544 98.0513 880.167 97.7661 879.93 97.3614C879.659 96.996 879.108 96.0768 878.638 95.3428C878.169 94.6464 877.808 93.9076 877.764 93.7209C877.755 93.5325 877.487 93.2424 877.152 93.0686C876.816 92.8947 876.539 92.4163 876.521 92.002C876.503 91.5877 876.347 91.3681 876.134 91.4908C875.957 91.6118 875.772 91.5445 875.762 91.3185C875.752 91.0925 875.043 89.9161 874.15 88.6725C873.258 87.4665 872.043 85.5577 871.411 84.4534C870.779 83.3491 870.271 82.579 870.277 82.7297C870.286 82.918 869.824 82.3723 869.275 81.4909C868.727 80.6471 868.396 79.7559 868.497 79.5628C868.632 79.3303 868.518 79.2221 868.301 79.2695C868.086 79.3545 867.512 78.7383 867.039 77.9289C866.566 77.1195 866.096 76.3855 865.982 76.2773C865.3 75.7036 864.046 73.7211 864.022 73.1937C864.007 72.8547 863.85 72.5975 863.668 72.6056C863.486 72.6136 863.35 72.0158 863.355 71.2985C863.396 70.5796 863.259 69.9441 863.075 69.9144C862.557 69.7486 863.299 66.7343 864.312 64.9157C864.749 64.0661 865.199 63.5178 865.313 63.626C865.463 63.7326 865.744 63.4937 865.982 63.1058C866.493 62.2906 869.318 61.0335 870.739 61.0084C872.049 60.9504 874.906 62.0695 874.596 62.4983C874.457 62.6555 874.532 62.6899 874.815 62.4887C875.311 62.1648 877.746 64.4725 878.7 66.2419C879.014 66.7564 879.639 67.71 880.104 68.331C880.606 68.9504 881.001 69.65 881.011 69.876C881.023 70.1397 881.14 70.3232 881.322 70.3151C881.468 70.3087 881.933 70.9297 882.368 71.703C882.802 72.4387 883.975 74.2361 884.986 75.6633C886.034 77.0888 886.859 78.4487 886.869 78.6747C886.881 78.9384 887.071 79.1187 887.29 79.109C887.472 79.101 887.587 79.2468 887.487 79.44C887.386 79.6331 887.541 79.8527 887.839 79.9905C888.135 80.0906 888.405 80.4184 888.418 80.7197C888.431 81.021 888.554 81.3176 888.739 81.3848C889.035 81.485 892.898 87.2017 892.914 87.5784C892.919 87.6914 893.229 88.0929 893.609 88.4534C893.99 88.814 894.235 89.407 894.179 89.7869C894.086 90.1684 894.212 90.5403 894.47 90.6043C894.692 90.67 894.912 91.5283 894.959 92.583C895.045 94.5417 894.353 97.0254 893.829 96.709C893.642 96.604 893.612 96.7563 893.696 97.0167C894.022 97.7949 891.965 99.9239 890.138 100.646C888.024 101.495 885.876 101.552 884.167 100.835Z" fill="#E4CAAC" fill-opacity="0.3"/>
<path d="M1125.52 77.8827C1124.09 77.1565 1123.08 76.1481 1123.24 75.6145C1123.34 75.347 1123.22 75.1642 1123.01 75.249C1122.75 75.298 1122.28 74.642 1121.94 73.7919C1121.45 72.5355 1121.39 72.0118 1121.74 70.7179C1121.92 69.845 1122.26 69.2282 1122.45 69.3327C1122.64 69.4371 1122.89 69.3131 1123.03 69.0814C1123.16 68.7747 1123.12 68.7388 1122.87 68.9003C1122.62 69.0618 1122.44 69.0324 1122.43 68.8448C1122.4 68.3194 1123.37 67.5249 1123.56 67.8545C1123.68 67.9997 1123.68 67.9246 1123.63 67.6636C1123.42 67.0713 1125.43 65.7041 1127.07 65.3305C1127.76 65.1495 1128.42 64.895 1128.52 64.74C1128.83 64.1999 1137.27 60.5929 1137.65 60.8393C1137.91 60.978 1137.95 60.8638 1137.75 60.5717C1137.51 60.2062 1137.58 60.1279 1138.03 60.296C1138.37 60.3939 1138.66 60.3433 1138.73 60.19C1138.86 59.7706 1146.76 56.4132 1147.68 56.3725C1148.82 56.322 1151.57 57.5165 1152.46 58.4548C1153.89 59.9331 1154.38 61.9042 1154.01 64.2521C1153.8 65.3518 1153.46 66.1937 1153.27 66.0893C1153.08 65.9473 1152.94 66.104 1152.95 66.3667C1152.97 66.6669 1152.62 67.2086 1152.23 67.6018C1151.24 68.5105 1146.54 70.7864 1146.09 70.5057C1145.9 70.4013 1145.76 70.5204 1145.77 70.7455C1145.78 70.9707 1145.63 71.0523 1145.41 70.9495C1145.22 70.845 1145.03 70.8907 1145.04 71.0783C1145.06 71.4912 1142.52 72.4308 1142.03 72.1518C1141.8 72.0114 1141.77 72.1257 1141.96 72.4177C1142.2 72.7832 1142.09 72.8632 1141.5 72.7391C1141.05 72.6086 1140.76 72.6967 1140.88 72.8419C1140.99 73.0246 1140.2 73.4733 1139.19 73.8567C1138.13 74.2792 1137.05 74.8159 1136.77 75.0541C1136.48 75.2923 1136.19 75.4555 1136.12 75.3837C1136.04 75.3494 1135.39 75.6039 1134.63 75.9759C1133.91 76.3462 1132.81 76.6953 1132.26 76.7198C1131.71 76.7442 1131.42 76.8698 1131.65 77.0101C1132.22 77.361 1129.49 78.2337 1127.79 78.2712C1126.98 78.2695 1125.97 78.0883 1125.52 77.8827Z" fill="#E4CAAC" fill-opacity="0.3"/>
<path d="M776.679 84.43C775.312 84.0694 773.721 83.7186 773.08 83.6322C772.476 83.544 771.79 83.3064 771.594 83.1236C771.361 82.9425 770.83 82.8129 770.381 82.8328C768.621 82.9106 764.394 81.4897 763.26 80.4298C762.203 79.4429 762.116 79.1787 762.27 77.5641C762.439 75.4512 762.969 74.7004 764.773 73.9316C765.952 73.4583 766.517 73.5099 770.916 74.5786C773.571 75.2268 776.037 75.8451 776.413 75.8668C776.79 75.9266 777.626 76.1577 778.308 76.3189C778.992 76.5183 779.978 76.7427 780.507 76.8341C782.093 77.0703 783.935 78.8646 783.76 79.9825C783.606 80.7549 783.646 80.7914 784 80.3164C784.316 79.843 784.361 79.9942 784.256 81.0324C784.14 81.8031 783.589 82.8994 782.836 83.6983C781.405 85.2546 780.434 85.3741 776.679 84.43Z" fill="#E4CAAC" fill-opacity="0.3"/>
<path d="M763.26 237.123C761.887 236.201 761.283 235.463 760.73 234.14C760.344 233.173 760.139 231.981 760.233 231.503C760.422 230.621 760.427 226.433 760.248 219.813C760.155 217.705 760.284 216.316 760.48 216.453C760.675 216.553 760.974 216.431 761.116 216.206C761.256 215.909 761.216 215.874 760.957 216.031C760.623 216.228 760.475 215.47 760.379 213.289C760.285 211.181 760.367 210.449 760.649 210.801C760.933 211.189 760.963 211.005 760.775 210.213C760.632 209.563 760.67 208.688 760.953 208.202C761.509 207.012 763.108 205.303 763.824 205.125C764.124 205.039 764.46 204.879 764.569 204.765C764.929 204.312 767.576 203.903 767.592 204.267C767.601 204.485 767.832 204.547 768.131 204.425C768.878 204.101 771.383 205.665 772.397 207.077C773.128 208.1 773.234 208.788 773.373 212.787C773.484 215.295 773.507 218.389 773.451 219.703C773.394 221.016 773.352 224.368 773.362 227.172C773.334 229.977 773.298 232.601 773.202 233.005C772.532 235.948 770.552 237.638 767.298 238.073C765.217 238.348 764.986 238.285 763.26 237.123Z" fill="#E4CAAC" fill-opacity="0.3"/>
<path d="M815.106 234.314C811.958 232.85 809.854 229.475 810.047 226.184C810.12 224.428 812.23 219.449 812.736 219.837C812.895 220.016 812.929 219.94 812.767 219.686C812.606 219.432 813 218.147 813.619 216.851C814.2 215.521 814.751 214.377 814.783 214.264C815.101 212.945 815.719 211.612 815.981 211.6C816.169 211.592 816.307 211.325 816.294 211.027C816.279 210.692 816.853 209.212 817.538 207.69C818.224 206.205 818.838 204.798 818.866 204.573C819.047 203.558 820.305 201.414 820.578 201.626C820.772 201.766 820.769 201.692 820.607 201.438C820.446 201.184 820.499 200.697 820.67 200.316C820.842 199.936 821.078 199.329 821.174 198.951C821.27 198.574 821.525 198.377 821.755 198.478C821.986 198.617 822.016 198.429 821.849 198.064C821.64 197.588 821.712 197.51 822.097 197.717C822.443 197.888 822.516 197.848 822.317 197.596C821.834 196.871 823.836 194.545 825.856 193.448C826.958 192.878 828.516 192.398 829.379 192.36C830.805 192.297 833.67 193.327 835.11 194.419C835.888 195.019 837.052 196.683 837.238 197.495C837.33 197.864 837.552 198.637 837.766 199.225C838.16 200.475 837.506 204.383 836.928 204.073C836.698 203.971 836.664 204.047 836.825 204.301C836.985 204.518 836.899 205.118 836.618 205.578C836.338 206.038 836.097 206.534 836.066 206.684C836.035 206.835 835.491 208.127 834.838 209.536C834.188 210.982 833.647 212.348 833.659 212.609C833.668 212.832 833.528 213.062 833.303 213.072C833.115 213.08 832.943 213.424 832.962 213.87C832.984 214.354 832.842 214.547 832.534 214.374C832.302 214.235 832.228 214.276 832.39 214.53C832.512 214.748 831.812 216.756 830.822 219.037C829.794 221.283 828.221 224.821 827.334 226.874C826.485 228.926 825.34 231.102 824.843 231.758C822.709 234.5 818.138 235.709 815.106 234.314Z" fill="#E4CAAC" fill-opacity="0.3"/>
</svg>
