<svg width="580" height="469" viewBox="0 0 580 469" fill="none" xmlns="http://www.w3.org/2000/svg">
<path d="M434.4 330.777C431.923 329.515 430.722 327.941 429.841 324.931C429.093 322.417 429.086 322.25 429.787 319.959C430.914 316.059 433.731 313.626 437.612 313.149C438.893 312.963 441.642 312.581 443.751 312.272C445.857 311.921 448.682 311.537 449.964 311.392C451.282 311.204 455.539 310.626 459.417 310.066C465.253 309.203 466.801 309.088 468.217 309.439C470.361 310.006 473.119 312.593 474.008 314.85C475.659 319.078 473.769 324.686 470.027 326.703C468.767 327.39 461.737 328.685 461.155 328.337C460.961 328.221 460.246 328.338 459.576 328.621C458.942 328.86 456.611 329.305 454.424 329.534C452.236 329.763 449.977 330.08 449.338 330.194C438.465 332.006 436.878 332.081 434.4 330.777Z" fill="#E4CAAC" fill-opacity="0.3"/>
<path d="M179.213 310.742C166.526 304.548 162.227 302.323 161.513 301.698C160.124 300.487 159.145 298.062 159.213 296C159.348 292.781 162.075 289.357 164.157 289.752C164.929 289.922 165.042 289.875 164.608 289.566C164.177 289.298 164.362 289.166 165.47 289.113C166.271 289.075 166.851 289.213 166.745 289.424C166.6 289.636 166.833 289.708 167.209 289.566C167.626 289.464 168.166 289.562 168.485 289.876C168.802 290.15 169.272 290.416 169.502 290.446C169.733 290.476 170.595 290.971 171.421 291.508C172.208 292.047 173.104 292.458 173.372 292.445C173.677 292.43 173.915 292.625 173.923 292.831C173.933 293.077 174.169 293.231 174.474 293.216C174.78 293.202 176.922 294.13 179.265 295.295C181.57 296.463 184.849 298.078 186.528 298.904C191.407 301.267 192.984 303.334 192.68 307.096C192.55 308.585 192.07 309.926 191.161 311.081C190.364 312.148 187.669 313.594 186.333 313.657C185.684 313.688 182.65 312.473 179.213 310.742Z" fill="#E4CAAC" fill-opacity="0.3"/>
<path d="M288.786 299.234C287.183 298.311 286.44 297.387 286.684 296.656C286.788 296.332 286.698 296.056 286.503 296.066C286.269 296.077 286.147 295.963 286.179 295.801C286.239 295.359 285.605 293.271 285.136 292.334C284.923 291.905 284.434 290.489 284.029 289.19C283.662 287.888 282.896 285.447 282.398 283.792C281.492 280.798 281.488 280.718 282.178 279.407C282.539 278.67 283.477 277.707 284.243 277.31C285.468 276.653 285.818 276.596 286.891 276.985C287.529 277.274 287.973 277.613 287.823 277.78C287.674 277.947 287.83 277.94 288.214 277.761C288.713 277.538 289.039 277.842 289.555 278.977C290.327 280.618 291.937 285.497 292.147 286.806C292.204 287.243 292.387 287.874 292.517 288.187C295.364 294.606 295.391 297.162 292.766 298.965C291.245 300.037 290.308 300.081 288.786 299.234Z" fill="#E4CAAC" fill-opacity="0.3"/>
<path d="M9.93886 467.698C8.41399 467.044 5.38448 464.363 5.35627 463.678C5.34963 463.517 5.49964 463.43 5.69795 463.581C5.89459 463.693 6.19628 463.558 6.33965 463.309C6.48137 463.02 6.43971 462.941 6.25303 463.071C6.02801 463.203 5.64302 463.181 5.32805 462.994C4.69812 462.62 4.19229 457.802 4.76729 457.775C4.99729 457.764 5.06732 457.599 4.94402 457.403C4.73908 457.09 8.74424 446.167 11.5721 439.295C12.0589 438.061 12.4741 436.952 12.5075 436.83C12.5209 436.224 14.9335 430.46 15.1969 430.327C15.3469 430.239 15.487 429.91 15.4737 429.587C15.4305 428.54 16.746 425.976 17.9628 424.748C23.6004 418.953 33.0112 423.631 32.2764 431.897C32.1679 432.991 31.9328 433.81 31.7745 433.696C31.6162 433.582 31.5511 433.868 31.6844 434.306C31.8193 434.783 31.6825 435.193 31.3058 435.373C30.9658 435.51 30.7841 435.76 30.9058 435.916C30.9891 436.074 30.4421 437.713 29.6751 439.606C28.9448 441.456 28.3196 443.06 28.3245 443.18C28.3328 443.382 27.6058 445.313 25.3799 450.946C24.5812 453.002 23.5091 455.877 22.9571 457.396C22.4052 458.915 21.8384 460.072 21.6417 459.96C21.4834 459.847 21.4534 460.05 21.5817 460.366C21.7116 460.723 21.6465 461.009 21.4165 461.02C21.1865 461.031 21.1215 461.316 21.2498 461.633C21.4164 461.948 21.3513 462.233 21.1213 462.244C20.9297 462.253 20.6779 462.669 20.5462 463.2C20.2959 464.583 18.569 466.481 17.829 466.234C17.479 466.129 17.3257 466.137 17.4857 466.29C18.0856 466.867 16.1288 467.848 13.8737 468.116C12.0771 468.322 11.1121 468.207 9.93886 467.698Z" fill="#E4CAAC" fill-opacity="0.3"/>
<path d="M526.487 239.412C525.581 239.249 523.99 238.622 522.908 238.013C516.497 234.351 509.89 230.699 508.693 230.137C507.934 229.76 506.972 229.186 506.568 228.874C506.162 228.522 505.602 228.218 505.287 228.192C504.423 228.109 501.875 226.082 501.851 225.505C501.839 225.216 501.63 224.895 501.392 224.824C500.679 224.61 500.348 220.371 500.944 218.691C501.433 217.263 503.374 214.982 504.189 214.819C504.732 214.711 505.041 214.613 505.963 214.198C506.464 214.009 507.17 214.058 507.73 214.362C508.25 214.626 508.842 214.763 509.114 214.709C509.771 214.513 512.06 215.932 511.725 216.361C511.578 216.575 511.656 216.571 511.922 216.393C512.152 216.259 513.505 216.814 514.909 217.656C516.313 218.498 518.113 219.445 518.909 219.779C519.744 220.112 520.312 220.58 520.166 220.835C520.059 221.088 520.138 221.125 520.366 220.949C520.709 220.727 523.585 222.16 524.441 222.987C524.563 223.105 524.92 223.212 525.235 223.279C525.551 223.347 526.11 223.61 526.434 223.883C526.758 224.157 528.164 225.041 529.526 225.802C532.131 227.289 533.932 229.228 533.496 230.034C533.351 230.33 533.394 230.41 533.623 230.275C533.851 230.099 534.034 230.752 534.16 231.902C534.333 234.207 534.032 235.461 533.47 235.116C533.19 234.964 533.155 235.048 533.323 235.329C533.489 235.569 533.284 236.281 532.878 236.879C532.435 237.519 532.097 237.866 532.088 237.66C532.08 237.453 531.925 237.502 531.779 237.757C531.453 238.392 529.199 239.697 528.572 239.685C528.297 239.657 527.353 239.537 526.487 239.412Z" fill="#E4CAAC" fill-opacity="0.3"/>
<path d="M188.072 231.233C185.451 230.07 182.353 228.68 181.242 228.193C180.091 227.708 179.134 227.172 179.125 226.964C179.118 226.798 178.839 226.646 178.489 226.662C178.178 226.677 178.015 226.519 178.122 226.264C178.23 226.052 178.11 225.974 177.765 226.115C177.038 226.44 175.902 224.418 175.83 222.677C175.75 220.729 177.461 218.737 179.401 218.52C181.03 218.319 184.114 219.377 183.632 219.981C183.445 220.156 183.563 220.192 183.79 220.015C184.055 219.836 184.762 219.969 185.359 220.273C185.996 220.575 188.102 221.555 190.127 222.455C192.112 223.316 193.669 224.198 193.562 224.452C193.454 224.665 193.533 224.702 193.799 224.524C194.026 224.347 194.853 224.557 195.613 225.019C197.411 226.096 198.246 228.383 197.587 230.366C197.065 231.886 195.254 233.342 193.813 233.369C193.268 233.395 190.695 232.437 188.072 231.233Z" fill="#E4CAAC" fill-opacity="0.3"/>
<path d="M389.812 223.321C389.015 222.829 388.567 222.319 388.668 221.947C388.771 221.616 388.727 221.496 388.5 221.629C387.859 222.108 387.506 219.187 388.113 217.893C388.715 216.478 391.179 214.076 391.846 214.248C392.082 214.318 392.158 214.274 391.996 214.119C391.551 213.691 392.709 212.575 393.265 212.875C393.543 213.025 393.658 212.979 393.457 212.825C393.05 212.355 394.272 210.91 394.828 211.21C395.065 211.321 395.143 211.317 394.98 211.121C394.656 210.81 394.73 210.725 397.828 207.681C400.813 204.723 402.379 204.078 404.278 204.926C405.068 205.256 405.709 205.715 405.719 205.96C405.729 206.204 405.537 206.254 405.259 206.104C404.981 205.954 404.944 205.996 405.112 206.315C405.277 206.552 405.553 206.661 405.742 206.53C406.157 206.224 406.95 207.574 406.997 208.714C407.051 210.017 405.271 212.999 404.6 212.745C404.285 212.638 404.093 212.688 404.218 212.886C404.508 213.321 399.245 218.508 398.768 218.245C398.57 218.132 398.495 218.217 398.543 218.419C398.762 219.02 394.465 223.141 393.314 223.481C392.738 223.631 392.01 223.87 391.703 223.966C391.396 224.062 390.53 223.777 389.812 223.321Z" fill="#E4CAAC" fill-opacity="0.3"/>
<path d="M267.96 226.413C267.573 226.349 267.253 226.074 267.245 225.868C267.236 225.661 266.96 225.509 266.653 225.523C265.923 225.558 264.837 223.498 264.776 222.011C264.75 221.392 265.015 220.344 265.374 219.706C266.52 217.624 268.458 215.131 268.734 215.284C268.893 215.4 269.001 215.23 268.951 214.942C268.939 214.653 269.618 213.379 270.529 212.136C271.441 210.892 272.643 209.221 273.225 208.407C273.769 207.595 274.441 207.066 274.678 207.22C274.875 207.335 274.949 207.249 274.825 207.048C274.33 206.243 276.011 205.005 277.589 204.971C280.09 204.935 282.159 207.486 281.807 210.152C281.724 210.942 281.519 211.573 281.327 211.582C281.173 211.589 280.807 212.062 280.562 212.653C280.278 213.246 279.873 213.679 279.599 213.568C279.365 213.496 279.178 213.629 279.228 213.917C279.24 214.206 278.779 215.18 278.125 216.121C277.469 217.022 275.725 219.546 274.236 221.728C272.746 223.868 271.091 225.768 270.637 225.955C269.157 226.48 268.661 226.587 267.96 226.413ZM273.07 209.325C272.95 209.206 272.656 209.551 272.408 210.06C271.944 210.951 271.982 210.949 272.608 210.257C272.976 209.826 273.189 209.402 273.07 209.325Z" fill="#E4CAAC" fill-opacity="0.3"/>
<path d="M544.934 187.62C544.246 187.487 543.008 186.924 542.149 186.344C540.393 185.185 537.192 181.195 537.546 180.557C537.649 180.303 537.532 180.226 537.234 180.364C536.898 180.505 535.986 179.554 534.656 177.67C532.601 174.786 531.278 173.067 526.308 166.676C524.906 164.879 523.737 163.237 523.729 163.03C523.719 162.782 523.595 162.539 523.402 162.465C523.016 162.318 520.65 159.241 520.516 158.751C520.47 158.546 520.255 157.935 520.043 157.406C519.536 156.146 519.419 152.383 519.873 152.361C520.063 152.352 520.089 152.061 519.958 151.653C519.788 151.206 519.82 151.08 520.132 151.272C520.404 151.425 520.514 151.337 520.347 150.972C520.052 150.24 523.233 146.403 524.18 146.358C524.559 146.34 525.007 146.153 525.11 145.9C525.216 145.688 526.268 145.431 527.404 145.377C529.677 145.269 532.337 146.261 533.61 147.692C535.44 149.717 543.479 160.601 543.498 161.056C543.51 161.346 543.628 161.464 543.777 161.374C543.887 161.286 544.358 161.678 544.799 162.237C545.203 162.839 545.8 163.515 546.078 163.792C546.317 164.07 546.561 164.473 546.57 164.679C546.58 164.927 546.704 165.17 546.897 165.244C547.167 165.355 548.487 166.991 551.421 170.952C553.831 174.192 554.628 176.018 554.733 178.581C554.955 183.955 549.874 188.669 544.934 187.62Z" fill="#E4CAAC" fill-opacity="0.3"/>
<path d="M427.157 176.237C425.101 175.419 424.515 174.823 423.367 172.423C422.711 171.039 422.488 169.261 421.862 160.43C420.688 143.762 420.688 143.762 421.866 141.46C422.559 140.096 423.098 139.529 423.478 139.678C423.82 139.786 423.929 139.698 423.73 139.416C423.449 138.972 425.544 137.999 427.039 137.928C428.235 137.871 430.253 138.649 430.008 139.077C429.904 139.29 429.949 139.454 430.134 139.404C431.542 139.046 433.297 141.625 433.641 144.52C433.985 147.416 435.201 164.207 435.325 168.111C435.448 171.101 435.356 171.604 434.412 173.23C432.704 176.306 430.087 177.345 427.157 176.237Z" fill="#E4CAAC" fill-opacity="0.3"/>
<path d="M58.5371 360.053C57.23 359.451 56.0216 357.473 56.1592 356.096C56.315 354.22 56.8659 353.446 60.2635 350.087C62.2049 348.167 64.1093 346.291 64.4834 345.941C69.187 341.274 69.2629 341.229 70.9675 341.106C74.0278 340.878 76.3077 344.341 74.9485 347.189C74.3387 348.422 73.4792 349.252 73.0019 348.984C72.8012 348.827 72.7675 348.953 72.9329 349.195C73.0595 349.438 72.6956 350.037 72.0939 350.522C71.4939 351.049 70.9224 351.325 70.7993 351.165C70.7132 350.961 70.7166 351.044 70.7673 351.332C70.8568 351.619 70.4559 352.261 69.8576 352.829C67.7291 354.924 66.3369 356.028 65.9827 355.92C65.7871 355.888 65.7147 356.016 65.8396 356.218C66.172 356.742 62.1169 360.174 60.8457 360.442C60.2674 360.552 59.21 360.353 58.5371 360.053ZM65.0873 355.88C65.1934 355.626 65.0366 355.591 64.7315 355.731C64.0454 356.054 63.941 356.35 64.4839 356.324C64.7166 356.313 64.9812 356.134 65.0873 355.88Z" fill="#E4CAAC" fill-opacity="0.3"/>
<path d="M228.973 127.845C227.806 127.236 226.74 126.249 226.147 125.24C225.215 123.665 225.164 123.377 225.163 116.654C225.163 112.836 225.186 108.602 225.21 107.273C225.273 105.942 225.302 102.828 225.282 100.422C225.301 98.014 225.474 95.5157 225.648 94.968C226.204 93.1571 228.309 90.6916 229.143 90.8595C229.542 90.9651 229.774 90.8711 229.649 90.711C229.313 90.1875 231.618 89.7046 233.047 89.9688C234.714 90.2632 236.745 91.7438 237.839 93.4349C238.597 94.6025 238.703 95.2614 238.726 99.6594C238.76 102.397 238.835 106.128 238.874 108.035C238.912 109.901 238.816 111.4 238.654 111.283C238.493 111.208 238.402 113.785 238.455 116.978C238.509 120.212 238.402 123.33 238.229 123.919C237.741 125.478 235.168 128.049 233.727 128.449C231.699 128.96 230.907 128.873 228.973 127.845Z" fill="#E4CAAC" fill-opacity="0.3"/>
<path d="M14.6472 323.312C12.9883 322.646 12.3961 321.772 12.2334 319.623C12.0948 318.061 12.2203 317.506 13.1308 316.207C13.726 315.356 14.3293 314.7 14.5175 314.769C14.7042 314.799 14.8071 314.598 14.7234 314.367C14.6751 314.095 14.8151 313.892 15.0757 313.919C15.338 313.985 15.4393 313.745 15.3154 313.437C15.1545 313.131 15.288 312.772 15.5792 312.64C15.8704 312.509 16.715 311.41 17.4437 310.199C18.211 309.025 18.9526 308.127 19.1039 308.198C19.2568 308.309 19.3983 308.145 19.3854 307.832C19.3499 306.971 22.4693 303.49 23.3558 303.408C26.3098 303.111 28.1538 304.671 28.2748 307.606C28.3328 309.015 25.767 313.333 25.0832 312.934C24.8547 312.788 24.7823 312.831 24.9416 313.098C25.0623 313.327 24.443 314.494 23.5647 315.673C21.6278 318.157 21.5216 318.28 20.5821 319.775C20.1993 320.382 19.6973 320.798 19.5058 320.65C19.316 320.541 19.1696 320.588 19.2146 320.781C19.3965 321.596 19.1166 322.002 17.8167 322.848C16.1918 323.905 16.1564 323.946 14.6472 323.312Z" fill="#E4CAAC" fill-opacity="0.3"/>
<path d="M129.482 111.835C127.56 110.922 125.92 109.534 126.198 108.977C126.339 108.719 126.221 108.599 125.997 108.652C125.737 108.748 125.347 108.431 125.102 107.983C124.822 107.577 124.252 106.558 123.767 105.744C123.283 104.971 122.91 104.152 122.863 103.945C122.855 103.736 122.578 103.414 122.231 103.221C121.884 103.029 121.598 102.498 121.579 102.038C121.56 101.579 121.399 101.335 121.179 101.471C120.996 101.606 120.804 101.531 120.794 101.28C120.784 101.03 120.052 99.725 119.128 98.3457C118.206 97.0081 116.951 94.8911 116.298 93.6664C115.644 92.4416 115.119 91.5876 115.126 91.7547C115.135 91.9635 114.657 91.3583 114.09 90.3807C113.523 89.4448 113.181 88.4565 113.285 88.2422C113.426 87.9844 113.308 87.8644 113.084 87.9169C112.861 88.0112 112.268 87.3278 111.779 86.4301C111.29 85.5325 110.804 84.7183 110.686 84.5984C109.981 83.9621 108.685 81.7633 108.661 81.1784C108.645 80.8024 108.483 80.5171 108.295 80.5261C108.107 80.535 107.966 79.8719 107.971 79.0764C108.014 78.2791 107.872 77.5742 107.682 77.5414C107.147 77.3575 107.913 74.0143 108.961 71.9973C109.412 71.055 109.877 70.4469 109.995 70.5669C110.15 70.6851 110.441 70.4202 110.687 69.9899C111.215 69.0858 114.134 67.6915 115.603 67.6637C116.957 67.5995 119.909 68.8406 119.59 69.3162C119.446 69.4905 119.523 69.5287 119.815 69.3055C120.328 68.9463 122.845 71.5058 123.831 73.4682C124.156 74.0388 124.802 75.0964 125.283 75.7852C125.801 76.4722 126.21 77.2481 126.22 77.4987C126.232 77.7912 126.354 77.9947 126.542 77.9858C126.692 77.9786 127.173 78.6674 127.622 79.5251C128.071 80.341 129.283 82.3345 130.328 83.9173C131.411 85.4984 132.264 87.0067 132.275 87.2573C132.287 87.5497 132.483 87.7497 132.709 87.739C132.897 87.7301 133.017 87.8918 132.913 88.1061C132.808 88.3203 132.969 88.5638 133.277 88.7166C133.583 88.8277 133.862 89.1912 133.875 89.5254C133.889 89.8596 134.016 90.1885 134.207 90.2631C134.513 90.3741 138.505 96.7145 138.522 97.1323C138.528 97.2576 138.847 97.7029 139.241 98.1028C139.634 98.5027 139.887 99.1604 139.829 99.5817C139.734 100.005 139.864 100.417 140.13 100.488C140.359 100.561 140.587 101.513 140.635 102.683C140.725 104.855 140.009 107.61 139.467 107.259C139.274 107.143 139.243 107.311 139.331 107.6C139.668 108.463 137.542 110.825 135.653 111.626C133.468 112.567 131.248 112.63 129.482 111.835Z" fill="#E4CAAC" fill-opacity="0.3"/>
<path d="M378.935 86.379C377.452 85.5736 376.414 84.4552 376.581 83.8635C376.683 83.5667 376.56 83.364 376.335 83.4581C376.07 83.5124 375.583 82.7848 375.239 81.842C374.723 80.4485 374.661 79.8676 375.022 78.4326C375.211 77.4645 375.564 76.7804 375.76 76.8963C375.955 77.0121 376.217 76.8746 376.359 76.6176C376.497 76.2774 376.457 76.2376 376.198 76.4167C375.938 76.5959 375.746 76.5633 375.737 76.3552C375.713 75.7725 376.707 74.8913 376.913 75.2568C377.034 75.4179 377.03 75.3346 376.98 75.0451C376.763 74.3882 378.836 72.8718 380.536 72.4575C381.253 72.2567 381.928 71.9745 382.035 71.8026C382.354 71.2036 391.078 67.2031 391.471 67.4764C391.744 67.6302 391.777 67.5035 391.573 67.1796C391.327 66.7742 391.4 66.6873 391.866 66.8738C392.213 66.9824 392.516 66.9263 392.586 66.7562C392.719 66.2911 400.882 62.5674 401.834 62.5223C403.014 62.4663 405.854 63.7911 406.774 64.8317C408.254 66.4714 408.763 68.6574 408.375 71.2615C408.158 72.4812 407.815 73.4149 407.619 73.2991C407.422 73.1416 407.277 73.3154 407.289 73.6067C407.302 73.9397 406.946 74.5405 406.544 74.9766C405.517 75.9845 400.662 78.5086 400.191 78.1973C399.996 78.0815 399.848 78.2136 399.859 78.4633C399.869 78.713 399.72 78.8035 399.487 78.6895C399.291 78.5736 399.102 78.6243 399.111 78.8324C399.13 79.2902 396.502 80.3324 395.994 80.0229C395.758 79.8673 395.725 79.994 395.929 80.3179C396.175 80.7233 396.064 80.8119 395.448 80.6744C394.984 80.5296 394.683 80.6273 394.804 80.7883C394.927 80.991 394.108 81.4886 393.058 81.9138C391.971 82.3824 390.851 82.9777 390.556 83.2419C390.262 83.5061 389.964 83.687 389.885 83.6074C389.807 83.5694 389.132 83.8517 388.348 84.2642C387.602 84.6749 386.473 85.0621 385.902 85.0892C385.331 85.1163 385.031 85.2557 385.267 85.4113C385.855 85.8004 383.033 86.7684 381.28 86.8099C380.441 86.808 379.403 86.6071 378.935 86.379Z" fill="#E4CAAC" fill-opacity="0.3"/>
<path d="M18.3862 93.6406C16.9739 93.2406 15.3294 92.8516 14.6664 92.7557C14.042 92.658 13.3332 92.3944 13.131 92.1917C12.8901 91.9908 12.3413 91.8471 11.877 91.8691C10.0582 91.9554 5.68948 90.3795 4.51662 89.2039C3.42465 88.1094 3.33503 87.8165 3.49386 86.0257C3.66869 83.6822 4.21596 82.8496 6.08068 81.9969C7.29977 81.472 7.88372 81.5292 12.4302 82.7145C15.1739 83.4334 17.7224 84.1192 18.1111 84.1432C18.5016 84.2096 19.3652 84.4658 20.0704 84.6446C20.7775 84.8658 21.7958 85.1147 22.3428 85.2161C23.982 85.4779 25.8864 87.468 25.7048 88.7079C25.5463 89.5645 25.5867 89.6051 25.9527 89.0782C26.2801 88.5532 26.3257 88.7209 26.2181 89.8723C26.0982 90.7272 25.528 91.943 24.7503 92.8291C23.2705 94.5551 22.2679 94.6876 18.3862 93.6406Z" fill="#E4CAAC" fill-opacity="0.3"/>
<path d="M4.51671 262.991C3.09772 261.968 2.47391 261.149 1.90205 259.682C1.50385 258.611 1.29198 257.288 1.38817 256.758C1.58386 255.78 1.58911 251.135 1.40454 243.793C1.30818 241.455 1.44136 239.914 1.64431 240.066C1.84559 240.177 2.1547 240.042 2.30177 239.792C2.44553 239.462 2.40461 239.424 2.13642 239.598C1.79138 239.816 1.63871 238.976 1.53903 236.557C1.44268 234.219 1.52723 233.407 1.81867 233.797C2.11177 234.228 2.14273 234.024 1.94913 233.145C1.80145 232.425 1.8401 231.454 2.13259 230.915C2.7076 229.595 4.36033 227.699 5.09964 227.503C5.4104 227.407 5.75711 227.229 5.86991 227.102C6.24258 226.6 8.97756 226.147 8.99417 226.55C9.00414 226.792 9.24303 226.862 9.55213 226.726C10.3241 226.366 12.9132 228.101 13.9612 229.667C14.716 230.802 14.8261 231.564 14.9696 236C15.0842 238.782 15.1077 242.214 15.0497 243.67C14.9917 245.127 14.9483 248.845 14.9584 251.954C14.9293 255.066 14.8918 257.975 14.7923 258.424C14.1008 261.688 12.0538 263.562 8.69061 264.045C6.53956 264.349 6.30067 264.28 4.51671 262.991Z" fill="#E4CAAC" fill-opacity="0.3"/>
<path d="M58.1029 259.876C54.8496 258.252 52.6747 254.508 52.874 250.859C52.9492 248.911 55.1308 243.389 55.6537 243.819C55.8173 244.018 55.8527 243.934 55.6856 243.652C55.5186 243.37 55.9261 241.945 56.5664 240.508C57.1661 239.032 57.7356 237.764 57.7693 237.638C58.0975 236.175 58.7361 234.697 59.0075 234.684C59.2014 234.675 59.3447 234.378 59.3311 234.048C59.3157 233.677 59.9087 232.035 60.6163 230.347C61.3256 228.7 61.9607 227.14 61.9893 226.89C62.176 225.764 63.4769 223.386 63.7586 223.621C63.9593 223.777 63.9559 223.695 63.7889 223.413C63.6218 223.131 63.6773 222.591 63.8542 222.169C64.0311 221.747 64.2753 221.073 64.3746 220.655C64.474 220.237 64.7369 220.017 64.9747 220.13C65.2142 220.284 65.2445 220.076 65.0724 219.671C64.8563 219.143 64.9305 219.057 65.3285 219.286C65.6861 219.476 65.7619 219.431 65.5561 219.151C65.0567 218.348 67.1264 215.768 69.2135 214.552C70.3531 213.919 71.9633 213.387 72.8553 213.345C74.329 213.275 77.2904 214.417 78.7781 215.628C79.5827 216.293 80.7856 218.139 80.9782 219.04C81.0728 219.449 81.3024 220.307 81.5235 220.958C81.9304 222.345 81.2542 226.679 80.6571 226.335C80.4193 226.222 80.3839 226.307 80.551 226.588C80.7163 226.829 80.6272 227.495 80.3373 228.005C80.0475 228.515 79.7982 229.065 79.7662 229.231C79.7342 229.398 79.1715 230.832 78.4976 232.394C77.8254 233.998 77.2662 235.513 77.2781 235.802C77.2883 236.05 77.1433 236.305 76.9107 236.316C76.7167 236.325 76.5381 236.706 76.5586 237.201C76.5807 237.738 76.4341 237.952 76.1153 237.76C75.8758 237.606 75.7999 237.651 75.967 237.933C76.0935 238.175 75.3693 240.401 74.3467 242.932C73.2836 245.423 71.6578 249.347 70.7414 251.624C69.8637 253.899 68.6809 256.313 68.1669 257.041C65.9607 260.082 61.2364 261.423 58.1029 259.876Z" fill="#E4CAAC" fill-opacity="0.3"/>
</svg>
